<svg width="195" height="126" viewBox="0 0 195 126" fill="none" xmlns="http://www.w3.org/2000/svg">
<path d="M174.936 123.011C170.562 126.005 164.895 126.155 159.416 125.787C158.651 125.736 157.892 125.676 157.139 125.611C157.135 125.61 157.129 125.61 157.124 125.609C157.088 125.606 157.052 125.602 157.017 125.6C156.862 125.587 156.706 125.573 156.553 125.559L156.589 125.625L156.703 125.829C156.662 125.761 156.621 125.694 156.58 125.625C156.568 125.605 156.554 125.584 156.542 125.564C155.123 123.217 153.716 120.784 153.357 118.104C152.985 115.322 154.028 112.172 156.605 110.805C156.943 110.626 157.3 110.484 157.671 110.38C157.826 110.336 157.982 110.3 158.14 110.268C159.106 110.064 160.112 110.108 161.054 110.396C161.996 110.684 162.84 111.206 163.5 111.907C164.16 112.608 164.612 113.463 164.808 114.385C165.005 115.307 164.94 116.262 164.62 117.151C166.804 115.023 166.396 111.57 165.643 108.685C164.888 105.799 163.974 102.588 165.509 99.9962C166.363 98.5535 167.864 97.6584 169.548 97.2979C169.6 97.2873 169.652 97.2767 169.703 97.2675C171.71 96.8812 173.797 97.2286 175.546 98.2404C178.766 100.169 180.421 103.826 180.957 107.408C181.822 113.173 179.908 119.606 174.936 123.011Z" fill="#F2F2F2"/>
<path d="M173.524 113.77C173.397 115.041 173.076 116.289 172.57 117.472C172.104 118.519 171.476 119.494 170.706 120.365C169.106 122.144 167.08 123.532 164.799 124.413C163.073 125.085 161.264 125.546 159.416 125.787C158.651 125.736 157.892 125.676 157.139 125.611C157.135 125.61 157.129 125.61 157.124 125.609C157.088 125.606 157.052 125.602 157.017 125.6C156.862 125.587 156.706 125.573 156.553 125.559L156.589 125.625L156.703 125.829C156.662 125.761 156.621 125.694 156.58 125.625C156.568 125.605 156.554 125.584 156.542 125.564C157.928 124.252 158.962 122.644 159.559 120.874C160.155 119.105 160.297 117.225 159.972 115.392C159.631 113.573 158.843 111.855 157.671 110.38C157.826 110.336 157.982 110.3 158.14 110.268C158.585 110.846 158.975 111.461 159.307 112.105C160.495 114.401 160.875 117 160.388 119.517C159.936 121.794 158.81 123.902 157.141 125.592C157.287 125.582 157.435 125.571 157.579 125.559C160.314 125.338 163.043 124.78 165.523 123.635C167.643 122.681 169.484 121.246 170.883 119.456C172.385 117.487 173.047 115.119 173.161 112.712C173.248 110.119 172.962 107.527 172.311 105.007C171.679 102.438 170.718 99.9522 169.451 97.6048C169.423 97.5516 169.417 97.49 169.435 97.4329C169.453 97.3757 169.494 97.3274 169.548 97.2978C169.594 97.2687 169.65 97.2578 169.703 97.2675C169.73 97.2742 169.754 97.2864 169.775 97.3032C169.796 97.3201 169.812 97.3411 169.823 97.3649C169.979 97.6549 170.133 97.945 170.28 98.2384C171.51 100.682 172.415 103.262 172.975 105.918C173.518 108.48 173.808 111.161 173.524 113.77Z" fill="white"/>
<path d="M8.13563 40.0487C8.00542 40.0485 7.87638 40.0254 7.7551 39.9804C7.55896 39.9088 7.39039 39.7821 7.27177 39.6173C7.15316 39.4525 7.09011 39.2573 7.09101 39.0576V28.7152C7.09059 28.3652 6.94408 28.0295 6.6836 27.782C6.42313 27.5344 6.06996 27.3952 5.70159 27.3948H3.47298C2.5522 27.3938 1.66942 27.0458 1.01833 26.427C0.367239 25.8083 0.00100145 24.9694 -3.05176e-05 24.0943V3.30047C0.00100206 2.42543 0.367239 1.58652 1.01833 0.96777C1.66942 0.349024 2.5522 0.0009807 3.47298 0H82.0823C83.0031 0.000981863 83.8859 0.349024 84.5369 0.96777C85.188 1.58652 85.5543 2.42543 85.5553 3.30047V24.0943C85.5543 24.9694 85.188 25.8083 84.5369 26.427C83.8859 27.0458 83.0031 27.3938 82.0823 27.3948H21.4071C21.2145 27.395 21.024 27.4332 20.8477 27.5069C20.6714 27.5806 20.5131 27.6882 20.3828 27.823L8.9008 39.7266C8.80385 39.8279 8.68572 39.9089 8.55396 39.9644C8.4222 40.0198 8.27972 40.0485 8.13563 40.0487ZM3.47298 0.439791C2.6749 0.440647 1.90976 0.742315 1.34542 1.27861C0.78109 1.81491 0.463653 2.54203 0.462751 3.30047V24.0943C0.463653 24.8528 0.781091 25.5799 1.34542 26.1162C1.90975 26.6525 2.6749 26.9541 3.47298 26.955H5.70158C6.19266 26.9555 6.66346 27.1411 7.0107 27.4711C7.35793 27.8011 7.55324 28.2486 7.55378 28.7152V39.0576C7.55379 39.1685 7.58904 39.2768 7.65491 39.3683C7.72078 39.4598 7.8142 39.5302 7.92293 39.5704C8.03166 39.6106 8.15063 39.6187 8.26425 39.5935C8.37787 39.5683 8.48084 39.5112 8.55968 39.4294L20.0417 27.5258C20.2154 27.3461 20.4264 27.2026 20.6614 27.1044C20.8965 27.0061 21.1504 26.9553 21.4071 26.955H82.0823C82.8804 26.9541 83.6455 26.6525 84.2099 26.1162C84.7742 25.5799 85.0916 24.8528 85.0925 24.0943V3.30047C85.0916 2.54203 84.7742 1.81491 84.2099 1.27861C83.6455 0.742315 82.8804 0.440647 82.0823 0.439791H3.47298Z" fill="#FB4242"/>
<path d="M8.51891 9.36534C10.1973 9.36534 11.5579 8.07232 11.5579 6.4773C11.5579 4.88228 10.1973 3.58926 8.51891 3.58926C6.8405 3.58926 5.47989 4.88228 5.47989 6.4773C5.47989 8.07232 6.8405 9.36534 8.51891 9.36534Z" fill="#FB4242"/>
<path d="M78.5368 22.4578H7.01856C6.80555 22.458 6.59458 22.4184 6.39771 22.3411C6.20084 22.2638 6.02194 22.1504 5.87122 22.0073C5.72051 21.8643 5.60095 21.6944 5.51937 21.5074C5.4378 21.3204 5.39581 21.1199 5.39581 20.9175C5.39581 20.7151 5.4378 20.5146 5.51937 20.3277C5.60095 20.1407 5.72051 19.9708 5.87122 19.8277C6.02194 19.6847 6.20084 19.5712 6.39771 19.4939C6.59458 19.4166 6.80555 19.377 7.01856 19.3772H78.5368C78.7498 19.377 78.9608 19.4166 79.1577 19.4939C79.3545 19.5712 79.5334 19.6847 79.6842 19.8277C79.8349 19.9708 79.9544 20.1407 80.036 20.3277C80.1176 20.5146 80.1596 20.7151 80.1596 20.9175C80.1596 21.1199 80.1176 21.3204 80.036 21.5074C79.9544 21.6944 79.8349 21.8643 79.6842 22.0073C79.5334 22.1504 79.3545 22.2638 79.1577 22.3411C78.9608 22.4184 78.7498 22.458 78.5368 22.4578Z" fill="#FB4242"/>
<path d="M55.2377 15.9116H7.01856C6.80555 15.9118 6.59458 15.8721 6.39771 15.7948C6.20084 15.7176 6.02194 15.6041 5.87122 15.4611C5.72051 15.318 5.60095 15.1481 5.51937 14.9611C5.4378 14.7742 5.39581 14.5737 5.39581 14.3713C5.39581 14.1689 5.4378 13.9684 5.51937 13.7814C5.60095 13.5944 5.72051 13.4245 5.87122 13.2815C6.02194 13.1384 6.20084 13.025 6.39771 12.9477C6.59458 12.8704 6.80555 12.8308 7.01856 12.831H55.2377C55.4507 12.8308 55.6617 12.8704 55.8585 12.9477C56.0554 13.025 56.2343 13.1384 56.385 13.2815C56.5357 13.4245 56.6553 13.5944 56.7369 13.7814C56.8184 13.9684 56.8604 14.1689 56.8604 14.3713C56.8604 14.5737 56.8184 14.7742 56.7369 14.9611C56.6553 15.1481 56.5357 15.318 56.385 15.4611C56.2343 15.6041 56.0554 15.7176 55.8585 15.7948C55.6617 15.8721 55.4507 15.9118 55.2377 15.9116Z" fill="#FB4242"/>
<path d="M8.13566 113.405C8.00545 113.405 7.87641 113.382 7.75513 113.337C7.559 113.265 7.39043 113.138 7.27182 112.974C7.15321 112.809 7.09016 112.613 7.09104 112.414V102.071C7.09062 101.721 6.94411 101.386 6.68363 101.138C6.42316 100.891 6.06999 100.751 5.70162 100.751H3.47301C2.55223 100.75 1.66946 100.402 1.01837 99.7832C0.367273 99.1645 0.00103442 98.3256 0 97.4506V76.6567C0.00103258 75.7817 0.36727 74.9427 1.01836 74.324C1.66945 73.7053 2.55223 73.3572 3.47301 73.3562H82.0823C83.0031 73.3572 83.8859 73.7053 84.537 74.324C85.1881 74.9427 85.5543 75.7817 85.5553 76.6567V97.4506C85.5543 98.3256 85.1881 99.1645 84.537 99.7832C83.8859 100.402 83.0031 100.75 82.0823 100.751H21.4071C21.2145 100.751 21.0241 100.789 20.8478 100.863C20.6715 100.937 20.5132 101.044 20.3829 101.179L8.90083 113.083C8.80388 113.184 8.68575 113.265 8.55399 113.321C8.42223 113.376 8.27975 113.405 8.13566 113.405ZM3.47301 73.796C2.67493 73.7969 1.90979 74.0985 1.34545 74.6348C0.781121 75.1711 0.463682 75.8983 0.462782 76.6567V97.4506C0.463683 98.209 0.781121 98.9361 1.34545 99.4724C1.90979 100.009 2.67493 100.31 3.47301 100.311H5.70161C6.19269 100.312 6.66349 100.497 7.01073 100.827C7.35796 101.157 7.55327 101.605 7.55381 102.071V112.414C7.55382 112.525 7.58907 112.633 7.65494 112.724C7.72081 112.816 7.81423 112.886 7.92296 112.927C8.03169 112.967 8.15066 112.975 8.26428 112.95C8.3779 112.925 8.48087 112.867 8.55971 112.786L20.0417 100.882C20.2155 100.702 20.4265 100.559 20.6615 100.461C20.8965 100.362 21.1504 100.312 21.4071 100.311H82.0823C82.8804 100.31 83.6456 100.009 84.2099 99.4724C84.7742 98.9361 85.0917 98.209 85.0926 97.4506V76.6567C85.0917 75.8983 84.7742 75.1711 84.2099 74.6348C83.6456 74.0985 82.8804 73.7969 82.0823 73.796L3.47301 73.796Z" fill="#FB4242"/>
<path d="M124.221 75.2828C124.076 75.2827 123.934 75.254 123.802 75.1985C123.67 75.1431 123.552 75.0621 123.455 74.9608L111.973 63.0571C111.843 62.9223 111.685 62.8147 111.508 62.741C111.332 62.6673 111.142 62.6291 110.949 62.6289H50.2739C49.3532 62.6279 48.4704 62.2799 47.8193 61.6612C47.1682 61.0424 46.802 60.2035 46.8009 59.3285V38.5346C46.802 37.6596 47.1682 36.8206 47.8193 36.2019C48.4704 35.5832 49.3532 35.2351 50.2739 35.2341H128.883C129.804 35.2351 130.687 35.5832 131.338 36.2019C131.989 36.8206 132.355 37.6596 132.356 38.5346V59.3285C132.355 60.2035 131.989 61.0424 131.338 61.6612C130.687 62.2799 129.804 62.6279 128.883 62.6289H126.655C126.286 62.6293 125.933 62.7686 125.673 63.0161C125.412 63.2637 125.266 63.5993 125.265 63.9494V74.2918C125.266 74.4914 125.203 74.6866 125.084 74.8514C124.966 75.0162 124.797 75.1428 124.601 75.2144C124.48 75.2595 124.351 75.2827 124.221 75.2828ZM50.2739 35.6739C49.4759 35.6748 48.7107 35.9764 48.1464 36.5127C47.582 37.049 47.2646 37.7762 47.2637 38.5346V59.3285C47.2646 60.0869 47.582 60.814 48.1464 61.3503C48.7107 61.8866 49.4759 62.1883 50.2739 62.1891H110.949C111.206 62.1894 111.46 62.2403 111.695 62.3385C111.93 62.4368 112.141 62.5802 112.314 62.7599L123.797 74.6636C123.875 74.7453 123.978 74.8025 124.092 74.8276C124.206 74.8528 124.325 74.8448 124.433 74.8046C124.542 74.7644 124.635 74.6939 124.701 74.6024C124.767 74.5109 124.802 74.4026 124.802 74.2918V63.9494C124.803 63.4827 124.998 63.0353 125.346 62.7053C125.693 62.3753 126.164 62.1897 126.655 62.1891H128.883C129.681 62.1883 130.446 61.8866 131.011 61.3503C131.575 60.814 131.893 60.0869 131.893 59.3285V38.5346C131.893 37.7762 131.575 37.049 131.011 36.5127C130.446 35.9764 129.681 35.6748 128.883 35.6739L50.2739 35.6739Z" fill="#FB4242"/>
<path d="M8.51891 82.7216C10.1973 82.7216 11.5579 81.4286 11.5579 79.8335C11.5579 78.2385 10.1973 76.9455 8.51891 76.9455C6.8405 76.9455 5.47989 78.2385 5.47989 79.8335C5.47989 81.4286 6.8405 82.7216 8.51891 82.7216Z" fill="#FB4242"/>
<path d="M78.5368 95.814H7.01856C6.80555 95.8143 6.59458 95.7746 6.39771 95.6973C6.20084 95.62 6.02194 95.5066 5.87122 95.3635C5.72051 95.2205 5.60095 95.0506 5.51937 94.8636C5.4378 94.6766 5.39581 94.4762 5.39581 94.2737C5.39581 94.0713 5.4378 93.8709 5.51937 93.6839C5.60095 93.4969 5.72051 93.327 5.87122 93.1839C6.02194 93.0409 6.20084 92.9275 6.39771 92.8502C6.59458 92.7729 6.80555 92.7332 7.01856 92.7334H78.5368C78.9667 92.7334 79.3789 92.8957 79.6829 93.1846C79.9869 93.4735 80.1576 93.8652 80.1576 94.2737C80.1576 94.6822 79.9869 95.074 79.6829 95.3629C79.3789 95.6518 78.9667 95.814 78.5368 95.814Z" fill="#FB4242"/>
<path d="M55.2377 89.2678H7.01856C6.80555 89.2681 6.59458 89.2284 6.39771 89.1511C6.20084 89.0738 6.02194 88.9604 5.87122 88.8173C5.72051 88.6743 5.60095 88.5044 5.51937 88.3174C5.4378 88.1304 5.39581 87.93 5.39581 87.7275C5.39581 87.5251 5.4378 87.3247 5.51937 87.1377C5.60095 86.9507 5.72051 86.7808 5.87122 86.6377C6.02194 86.4947 6.20084 86.3813 6.39771 86.304C6.59458 86.2267 6.80555 86.187 7.01856 86.1872H55.2377C55.4507 86.187 55.6617 86.2267 55.8585 86.304C56.0554 86.3813 56.2343 86.4947 56.385 86.6377C56.5357 86.7808 56.6553 86.9507 56.7369 87.1377C56.8184 87.3247 56.8604 87.5251 56.8604 87.7275C56.8604 87.93 56.8184 88.1304 56.7369 88.3174C56.6553 88.5044 56.5357 88.6743 56.385 88.8173C56.2343 88.9604 56.0554 89.0738 55.8585 89.1511C55.6617 89.2284 55.4507 89.2681 55.2377 89.2678Z" fill="#FB4242"/>
<path d="M55.3198 44.4069C56.9982 44.4069 58.3588 43.1139 58.3588 41.5189C58.3588 39.9238 56.9982 38.6308 55.3198 38.6308C53.6414 38.6308 52.2808 39.9238 52.2808 41.5189C52.2808 43.1139 53.6414 44.4069 55.3198 44.4069Z" fill="#FB4242"/>
<path d="M125.338 57.4994H53.8194C53.3896 57.4994 52.9773 57.3371 52.6734 57.0482C52.3694 56.7594 52.1986 56.3676 52.1986 55.9591C52.1986 55.5506 52.3694 55.1588 52.6734 54.8699C52.9773 54.5811 53.3896 54.4188 53.8194 54.4188H125.338C125.768 54.4188 126.18 54.5811 126.484 54.8699C126.788 55.1588 126.959 55.5506 126.959 55.9591C126.959 56.3676 126.788 56.7594 126.484 57.0482C126.18 57.3371 125.768 57.4994 125.338 57.4994Z" fill="#FB4242"/>
<path d="M102.039 50.9531H53.8195C53.6064 50.9534 53.3955 50.9137 53.1986 50.8364C53.0017 50.7591 52.8228 50.6457 52.6721 50.5026C52.5214 50.3596 52.4019 50.1897 52.3203 50.0027C52.2387 49.8157 52.1967 49.6153 52.1967 49.4128C52.1967 49.2104 52.2387 49.01 52.3203 48.823C52.4019 48.636 52.5214 48.4661 52.6721 48.323C52.8228 48.18 53.0017 48.0666 53.1986 47.9893C53.3955 47.912 53.6064 47.8723 53.8195 47.8726H102.039C102.252 47.8723 102.463 47.912 102.659 47.9893C102.856 48.0666 103.035 48.18 103.186 48.323C103.337 48.4661 103.456 48.636 103.538 48.823C103.619 49.01 103.661 49.2104 103.661 49.4128C103.661 49.6153 103.619 49.8157 103.538 50.0027C103.456 50.1897 103.337 50.3596 103.186 50.5026C103.035 50.6457 102.856 50.7591 102.659 50.8364C102.463 50.9137 102.252 50.9534 102.039 50.9531Z" fill="#FB4242"/>
<path d="M125.307 79.2412C125.376 78.9247 125.518 78.6266 125.721 78.3678C125.925 78.109 126.186 77.8958 126.486 77.7432C126.786 77.5906 127.118 77.5024 127.457 77.4847C127.797 77.467 128.136 77.5204 128.452 77.6409L133.88 71.7134L135.033 75.647L129.702 80.6728C129.454 81.1633 129.025 81.5502 128.496 81.7602C127.968 81.9702 127.377 81.9887 126.835 81.8122C126.293 81.6358 125.838 81.2766 125.557 80.8027C125.275 80.3288 125.186 79.7732 125.307 79.2412Z" fill="#FFB8B8"/>
<path d="M155.099 51.4251C158.238 51.4251 160.782 49.007 160.782 46.0242C160.782 43.0414 158.238 40.6234 155.099 40.6234C151.96 40.6234 149.416 43.0414 149.416 46.0242C149.416 49.007 151.96 51.4251 155.099 51.4251Z" fill="#FFB8B8"/>
<path d="M148.422 120.365L145.586 120.365L144.236 109.966L148.423 109.966L148.422 120.365Z" fill="#FFB8B8"/>
<path d="M149.146 122.978L139.999 122.978V122.868C139.999 122.423 140.091 121.983 140.27 121.573C140.449 121.162 140.711 120.789 141.042 120.475C141.372 120.161 141.765 119.912 142.197 119.742C142.629 119.572 143.092 119.484 143.559 119.484H143.56L149.146 119.485L149.146 122.978Z" fill="#2F2E41"/>
<path d="M156.984 123.223L154.147 123.223L153.754 113.073L156.985 112.825L156.984 123.223Z" fill="#FFB8B8"/>
<path d="M157.707 125.837L148.56 125.836V125.726C148.56 125.282 148.653 124.842 148.831 124.432C149.01 124.021 149.273 123.648 149.603 123.334C149.934 123.02 150.326 122.771 150.758 122.601C151.19 122.43 151.653 122.343 152.121 122.343H152.121L157.708 122.343L157.707 125.837Z" fill="#2F2E41"/>
<path d="M156.177 121.326L153.968 121.079C153.718 121.05 153.486 120.936 153.317 120.758C153.148 120.58 153.053 120.35 153.049 120.11L152.635 92.7686C152.633 92.6912 152.604 92.6167 152.55 92.5581C152.497 92.4995 152.424 92.4605 152.344 92.448C152.263 92.4354 152.181 92.4501 152.111 92.4895C152.041 92.5289 151.988 92.5904 151.96 92.6634L148.895 100.887L149.115 116.302C149.118 116.557 149.019 116.803 148.837 116.989C148.654 117.176 148.403 117.288 148.136 117.303L145.252 117.42C144.988 117.434 144.729 117.353 144.525 117.193C144.321 117.033 144.189 116.806 144.154 116.557L142.648 99.1189L142.647 99.108L144.933 80.8964L162.098 82.0766L157.333 120.459C157.303 120.7 157.181 120.921 156.99 121.082C156.8 121.243 156.554 121.332 156.299 121.333C156.259 121.333 156.218 121.33 156.177 121.326Z" fill="#2F2E41"/>
<path d="M145.006 82.5108C144.852 82.4327 144.721 82.3187 144.626 82.1796C144.53 82.0405 144.474 81.8807 144.461 81.7152C144.461 81.7152 146.005 72.593 146.57 72.4218L145.333 62.6665C145.184 61.4767 145.288 60.2708 145.637 59.1194C145.985 57.9681 146.573 56.8946 147.364 55.9619C148.126 55.0571 149.074 54.3084 150.149 53.761C151.224 53.2137 152.404 52.879 153.619 52.7773C153.792 52.7625 153.964 52.7511 154.135 52.7433C155.6 52.6688 157.062 52.9314 158.396 53.5088C159.731 54.0862 160.9 54.9613 161.802 56.0598C162.739 57.1677 163.379 58.4742 163.67 59.868C163.961 61.2618 163.893 62.7018 163.473 64.0654L162.779 66.361V82.4037C162.778 82.5602 162.739 82.7145 162.664 82.854C162.589 82.9935 162.481 83.1144 162.348 83.207C160.186 84.7145 157.744 85.2475 155.37 85.2475C150.879 85.2475 146.633 83.3389 145.006 82.5108Z" fill="#FB4242"/>
<path d="M131.68 79.5751L128.695 77.4535C128.578 77.3703 128.48 77.2646 128.409 77.1432C128.338 77.0219 128.294 76.8876 128.281 76.7492C128.268 76.6108 128.286 76.4713 128.333 76.3398C128.381 76.2084 128.457 76.0879 128.557 75.9863L146.342 57.8506C146.913 57.2735 147.683 56.9101 148.511 56.8264C149.34 56.7426 150.173 56.9441 150.859 57.3942L150.859 57.3942C151.277 57.6711 151.625 58.0321 151.88 58.4516C152.134 58.871 152.288 59.3386 152.331 59.821C152.373 60.3034 152.303 60.7888 152.126 61.2426C151.949 61.6964 151.668 62.1075 151.305 62.4466L133.033 79.4889C132.873 79.6401 132.664 79.7371 132.44 79.7653C132.216 79.7934 131.989 79.7511 131.792 79.6447C131.753 79.6237 131.716 79.6005 131.68 79.5751Z" fill="#FB4242"/>
<path d="M154.53 77.1738C154.66 76.8753 154.858 76.6076 155.109 76.3896C155.36 76.1715 155.659 76.0085 155.983 75.9119C156.308 75.8153 156.651 75.7875 156.988 75.8305C157.325 75.8735 157.648 75.9863 157.935 76.1608L164.434 71.3025L164.792 75.3716L158.566 79.3613C158.225 79.799 157.728 80.1029 157.167 80.2153C156.607 80.3277 156.023 80.2408 155.525 79.9712C155.028 79.7015 154.652 79.2678 154.468 78.7523C154.285 78.2367 154.307 77.6751 154.53 77.1738Z" fill="#FFB8B8"/>
<path d="M160.347 79.0704C160.175 79.0197 160.02 78.927 159.897 78.8017C159.774 78.6763 159.688 78.5227 159.647 78.356L158.991 75.7357C158.943 75.5497 158.953 75.3544 159.021 75.174C159.089 74.9936 159.211 74.8363 159.373 74.7215L163.79 70.1819L157.292 60.6613C156.801 60.0859 156.524 59.3718 156.504 58.6307C156.485 57.8897 156.724 57.1634 157.186 56.5655C157.553 56.0891 158.047 55.7135 158.616 55.4768C159.186 55.24 159.811 55.1505 160.429 55.2174C161.046 55.2842 161.634 55.505 162.133 55.8574C162.632 56.2098 163.024 56.6812 163.27 57.2239L169.31 68.3969C169.911 69.507 170.06 70.7882 169.731 71.9964C169.401 73.2047 168.616 74.2555 167.524 74.9487L161.351 78.8673C161.162 79.028 160.917 79.117 160.664 79.1173C160.556 79.1171 160.449 79.1013 160.347 79.0704Z" fill="#FB4242"/>
<path d="M159.31 50.8525C159.176 50.9289 159.026 50.9749 158.87 50.9871C158.714 50.9993 158.558 50.9773 158.413 50.9227C158.267 50.8682 158.137 50.7826 158.032 50.6726C157.927 50.5627 157.851 50.4312 157.808 50.2885L157.804 50.275C157.688 49.8256 157.78 49.3553 157.81 48.8935C157.84 48.4318 157.789 47.9249 157.456 47.5872C156.836 46.9577 155.741 47.2987 154.848 47.1432C154.325 47.0351 153.862 46.7496 153.544 46.3401C153.227 45.9306 153.077 45.4252 153.124 44.9185C153.136 44.8225 153.155 44.7264 153.177 44.6303C153.232 44.3868 153.226 44.1346 153.16 43.8935C153.095 43.6525 152.972 43.4291 152.8 43.241C152.629 43.0529 152.414 42.9051 152.172 42.8092C151.93 42.7134 151.668 42.6721 151.407 42.6886C150.506 42.7422 149.535 43.0066 148.785 42.3761C148.511 42.1272 148.319 41.8071 148.235 41.4554C148.15 41.1038 148.176 40.7363 148.31 40.3988C148.73 39.2289 149.929 38.6114 151.118 38.2692C152.589 37.8574 154.137 37.7621 155.651 37.9902C157.165 38.2184 158.607 38.7644 159.871 39.5884C160.626 40.0884 161.332 40.7178 161.657 41.5359C161.982 42.3539 161.833 43.3888 161.114 43.9336C161.677 44.4945 162.075 45.1863 162.269 45.9397C162.463 46.693 162.444 47.4815 162.216 48.2261C161.865 49.3212 160.167 50.378 159.31 50.8525Z" fill="#2F2E41"/>
<path d="M195 125.78C195 125.838 194.975 125.894 194.932 125.935C194.889 125.977 194.83 126 194.769 126H106.609C106.547 126 106.488 125.977 106.445 125.936C106.402 125.894 106.377 125.838 106.377 125.78C106.377 125.722 106.402 125.666 106.445 125.625C106.488 125.583 106.547 125.56 106.609 125.56H194.769C194.83 125.56 194.889 125.584 194.932 125.625C194.975 125.666 195 125.722 195 125.78Z" fill="#FB4242"/>
</svg>
