<svg width="536" height="325" viewBox="0 0 536 325" fill="none" xmlns="http://www.w3.org/2000/svg">
<path opacity="0.1" d="M259.355 315.01C402.593 315.01 518.71 310.104 518.71 304.052C518.71 298 402.593 293.094 259.355 293.094C116.117 293.094 0 298 0 304.052C0 310.104 116.117 315.01 259.355 315.01Z" fill="#FB4242"/>
<g opacity="0.2">
<path opacity="0.2" d="M465.776 269.025C465.559 269.373 465.305 269.704 465.018 270.014C462.503 268.512 459.936 267.046 457.319 265.613C457.37 265.519 457.426 265.424 457.487 265.33C458.09 264.342 458.994 263.508 460.106 262.915C461.545 262.167 463.157 261.999 464.505 262.597C465.852 263.194 466.59 264.427 466.666 265.845C466.711 266.953 466.404 268.052 465.776 269.025V269.025Z" fill="#3F3D56"/>
<path opacity="0.2" d="M469.306 263.447C470.893 260.916 470.324 258.034 468.036 257.009C465.748 255.985 462.607 257.207 461.02 259.738C459.433 262.27 460.002 265.152 462.29 266.176C464.578 267.2 467.72 265.979 469.306 263.447Z" fill="#3F3D56"/>
<path opacity="0.2" d="M472.821 257.839C474.408 255.308 473.839 252.426 471.551 251.401C469.263 250.377 466.121 251.599 464.534 254.13C462.948 256.662 463.516 259.544 465.805 260.568C468.093 261.593 471.234 260.371 472.821 257.839Z" fill="#3F3D56"/>
<path opacity="0.2" d="M476.333 252.24C477.92 249.708 477.351 246.826 475.063 245.802C472.775 244.777 469.633 245.999 468.047 248.531C466.46 251.062 467.029 253.944 469.317 254.969C471.605 255.993 474.747 254.771 476.333 252.24Z" fill="#3F3D56"/>
<path opacity="0.2" d="M479.848 246.632C481.435 244.1 480.866 241.218 478.578 240.194C476.289 239.17 473.148 240.391 471.561 242.923C469.974 245.454 470.543 248.336 472.831 249.361C475.12 250.385 478.261 249.163 479.848 246.632Z" fill="#3F3D56"/>
<path opacity="0.2" d="M484.2 199.436C484.018 198.574 483.904 197.703 483.859 196.828L495.703 200.188L483.875 194.993C484.046 192.41 484.839 189.883 486.207 187.568C487.575 185.253 489.487 183.198 491.828 181.53L503.291 195.53L494.391 179.953C497.006 178.574 499.929 177.665 502.978 177.281C506.026 176.898 509.136 177.049 512.113 177.724C515.089 178.4 517.87 179.586 520.281 181.209C522.692 182.831 524.682 184.855 526.128 187.156C527.573 189.456 528.443 191.983 528.684 194.58C528.924 197.176 528.529 199.787 527.524 202.249C526.52 204.711 524.926 206.973 522.843 208.892C520.759 210.812 518.231 212.348 515.414 213.407C515.705 214.75 515.821 216.116 515.76 217.48L497.732 217.36L515.491 219.831C515.095 221.876 514.308 223.852 513.161 225.684C510.818 229.451 507.039 232.439 502.436 234.166C503.191 237.673 502.762 241.288 501.199 244.598C499.636 247.909 497.002 250.78 493.598 252.885C490.195 254.99 486.159 256.243 481.952 256.501C477.746 256.759 473.538 256.011 469.81 254.344C466.083 252.676 462.986 250.155 460.874 247.07C458.762 243.985 457.72 240.461 457.868 236.899C458.015 233.337 459.345 229.882 461.707 226.929C464.069 223.976 467.366 221.644 471.222 220.2C470.318 216.011 471.105 211.686 473.459 207.921C475.813 204.155 479.595 201.167 484.2 199.436V199.436Z" fill="#02328D"/>
<path opacity="0.1" d="M513.161 225.697C510.815 229.459 507.037 232.443 502.436 234.166C503.191 237.673 502.762 241.288 501.199 244.598C499.636 247.909 497.002 250.78 493.598 252.885C490.195 254.99 486.159 256.243 481.952 256.501C477.746 256.759 473.538 256.011 469.81 254.344C466.083 252.676 462.986 250.155 460.874 247.07C458.762 243.985 457.72 240.461 457.868 236.899C458.015 233.337 459.345 229.882 461.707 226.929C464.069 223.976 467.366 221.644 471.222 220.201C470.327 216.153 514.341 223.81 513.161 225.697Z" fill="black"/>
</g>
<g opacity="0.2">
<path opacity="0.2" d="M451.694 157.027C451.425 157.623 451.097 158.198 450.713 158.746C446.306 156.758 441.834 154.824 437.298 152.945C437.364 152.786 437.43 152.623 437.501 152.459C438.242 150.779 439.499 149.296 441.142 148.162C443.278 146.718 445.846 146.173 448.135 146.908C450.423 147.642 451.913 149.486 452.376 151.763C452.706 153.538 452.471 155.355 451.694 157.027V157.027Z" fill="#3F3D56"/>
<path opacity="0.2" d="M457.096 150.098C459.073 145.783 457.514 141.251 453.614 139.976C449.715 138.7 444.951 141.164 442.974 145.479C440.998 149.794 442.556 154.326 446.456 155.602C450.356 156.877 455.12 154.413 457.096 150.098Z" fill="#3F3D56"/>
<path opacity="0.2" d="M460.356 137.85C462.309 133.513 460.716 128.976 456.797 127.716C452.878 126.455 448.118 128.949 446.164 133.285C444.211 137.621 445.804 142.158 449.723 143.419C453.642 144.679 458.402 142.186 460.356 137.85Z" fill="#3F3D56"/>
<path opacity="0.2" d="M464.676 128.255C466.629 123.919 465.036 119.382 461.117 118.121C457.198 116.86 452.438 119.354 450.484 123.69C448.531 128.026 450.124 132.563 454.043 133.824C457.962 135.084 462.722 132.591 464.676 128.255Z" fill="#3F3D56"/>
<path opacity="0.2" d="M469.001 118.656C470.954 114.32 469.361 109.782 465.442 108.522C461.523 107.261 456.763 109.755 454.809 114.091C452.856 118.427 454.449 122.964 458.368 124.225C462.287 125.485 467.047 122.992 469.001 118.656Z" fill="#3F3D56"/>
<path opacity="0.2" d="M464.896 42.1591C464.395 40.8041 464.006 39.4214 463.732 38.0209L483.565 41.4328L463.34 35.073C463.002 30.8897 463.679 26.6921 465.33 22.738C466.981 18.7838 469.571 15.1565 472.941 12.0787L494.656 32.6451L476.684 9.11791C480.563 6.47045 485.044 4.52507 489.85 3.40255C494.656 2.28004 499.683 2.00437 504.62 2.59267C509.558 3.18096 514.299 4.62066 518.55 6.82235C522.801 9.02405 526.471 11.9407 529.332 15.3913C532.193 18.8418 534.184 22.7526 535.182 26.8806C536.179 31.0087 536.162 35.266 535.13 39.3881C534.099 43.5102 532.076 47.4091 529.186 50.8427C526.297 54.2763 522.602 57.1713 518.333 59.3478C519.115 61.4569 519.627 63.6309 519.859 65.8323L490.872 68.6728L519.981 69.6568C519.756 74.7669 518.026 79.7488 514.948 84.1512C511.869 88.5536 507.539 92.2373 502.35 94.8685C504.384 100.374 504.544 106.251 502.811 111.829C501.079 117.408 497.524 122.461 492.553 126.413C487.581 130.364 481.395 133.054 474.7 134.175C468.005 135.296 461.072 134.802 454.694 132.751C448.315 130.699 442.749 127.173 438.63 122.574C434.511 117.975 432.007 112.49 431.404 106.745C430.8 101.001 432.122 95.2288 435.217 90.0889C438.312 84.949 443.057 80.6487 448.908 77.6797C446.476 71.1014 446.73 64.0236 449.63 57.5821C452.529 51.1406 457.906 45.709 464.896 42.1591V42.1591Z" fill="#02328D"/>
<path opacity="0.1" d="M517.611 79.4415C514.725 85.8858 509.35 91.3184 502.355 94.8599C504.389 100.365 504.549 106.243 502.816 111.821C501.084 117.399 497.529 122.453 492.558 126.404C487.587 130.356 481.4 133.046 474.705 134.167C468.01 135.287 461.077 134.794 454.699 132.742C448.32 130.691 442.754 127.164 438.635 122.565C434.517 117.967 432.012 112.481 431.409 106.737C430.805 100.992 432.127 95.2202 435.222 90.0803C438.317 84.9404 443.062 80.6401 448.913 77.6711C446.538 71.3198 519.061 76.2143 517.611 79.4415Z" fill="black"/>
</g>
<g opacity="0.2">
<path opacity="0.2" d="M102.577 188.951C102.792 189.686 103.08 190.405 103.437 191.1C108.99 189.298 114.604 187.579 120.28 185.943C120.229 185.75 120.178 185.544 120.122 185.346C119.539 183.262 118.311 181.348 116.562 179.798C114.294 177.826 111.355 176.863 108.527 177.448C105.7 178.032 103.615 180.026 102.679 182.652C101.981 184.706 101.946 186.881 102.577 188.951V188.951Z" fill="#3F3D56"/>
<path opacity="0.2" d="M110.747 184.971C115.593 183.972 118.266 178.816 116.717 173.455C115.168 168.095 109.985 164.56 105.139 165.559C100.293 166.559 97.6205 171.715 99.1693 177.075C100.718 182.436 105.902 185.971 110.747 184.971Z" fill="#3F3D56"/>
<path opacity="0.2" d="M107.317 173.105C112.163 172.105 114.835 166.95 113.286 161.589C111.738 156.229 106.554 152.694 101.708 153.693C96.8625 154.693 94.1898 159.849 95.7386 165.209C97.2874 170.57 102.471 174.105 107.317 173.105Z" fill="#3F3D56"/>
<path opacity="0.2" d="M103.887 161.248C108.733 160.248 111.406 155.092 109.857 149.732C108.308 144.371 103.124 140.836 98.2788 141.836C93.433 142.835 90.7603 147.991 92.3091 153.352C93.8579 158.712 99.0416 162.247 103.887 161.248Z" fill="#3F3D56"/>
<path opacity="0.2" d="M100.468 149.389C105.314 148.389 107.986 143.233 106.438 137.873C104.889 132.512 99.7051 128.977 94.8593 129.977C90.0136 130.977 87.3409 136.133 88.8897 141.493C90.4384 146.853 95.6222 150.389 100.468 149.389Z" fill="#3F3D56"/>
<path opacity="0.2" d="M107.042 51.7496C107.871 50.2173 108.571 48.6378 109.138 47.0227L85.165 48.5782L110.139 43.5935C111.261 38.7033 111.19 33.6711 109.931 28.8049C108.671 23.9387 106.251 19.3407 102.816 15.2922L73.6008 36.8512L98.9159 11.3301C94.8123 7.69291 89.8652 4.80978 84.3836 2.86084C78.9021 0.911893 73.0038 -0.0609881 67.0572 0.00295984C61.1107 0.0669077 55.2436 1.16631 49.8225 3.2325C44.4014 5.29869 39.5427 8.28727 35.55 12.0116C31.5573 15.7359 28.5162 20.1159 26.6168 24.878C24.7175 29.6401 24.0006 34.6819 24.5109 39.6887C25.0213 44.6955 26.7479 49.5595 29.583 53.977C32.4181 58.3945 36.3007 62.2706 40.9882 65.3631C39.6988 67.7551 38.7185 70.2577 38.0641 72.8273L71.7803 79.7931L37.2607 77.3222C36.6369 83.3807 37.8108 89.4751 40.6762 95.0537C43.5416 100.632 48.008 105.519 53.6712 109.272C50.306 115.515 49.0878 122.432 50.1559 129.232C51.2239 136.033 54.5351 142.442 59.7109 147.727C64.8866 153.012 71.718 156.959 79.4238 159.118C87.1296 161.277 95.3988 161.56 103.286 159.934C111.173 158.309 118.36 154.841 124.024 149.926C129.688 145.012 133.601 138.85 135.316 132.145C137.031 125.44 136.479 118.462 133.721 112.01C130.964 105.557 126.114 99.8909 119.725 95.6583C123.745 88.1979 124.68 79.8121 122.379 71.8486C120.079 63.8851 114.677 56.8063 107.042 51.7496V51.7496Z" fill="#02328D"/>
<path opacity="0.1" d="M38.3337 89.1833C40.621 97.1524 46.0254 104.236 53.6712 109.286C50.3082 115.529 49.0923 122.446 50.1625 129.246C51.2327 136.046 54.5458 142.454 59.7229 147.738C64.9001 153.022 71.7324 156.968 79.4385 159.125C87.1447 161.282 95.4138 161.564 103.3 159.937C111.187 158.31 118.372 154.84 124.035 149.925C129.698 145.01 133.61 138.848 135.323 132.142C137.037 125.437 136.482 118.46 133.724 112.008C130.966 105.556 126.115 99.8908 119.725 95.6591C123.616 88.457 37.1844 85.1998 38.3337 89.1833Z" fill="black"/>
</g>
<path d="M487.262 42.1591H62.774C61.7701 42.1613 60.8083 42.5002 60.0999 43.1013C59.3914 43.7024 58.9942 44.5164 58.9956 45.3648V264.887C58.9922 265.735 59.1871 266.576 59.5689 267.36C59.9508 268.145 60.5121 268.858 61.2208 269.459C61.9295 270.06 62.7715 270.536 63.6986 270.862C64.6258 271.187 65.6198 271.354 66.6237 271.354H483.427C484.431 271.354 485.425 271.187 486.352 270.862C487.279 270.536 488.121 270.06 488.83 269.459C489.539 268.858 490.1 268.145 490.482 267.36C490.864 266.576 491.059 265.735 491.055 264.887V45.3605C491.055 44.9397 490.957 44.523 490.766 44.1344C490.576 43.7457 490.296 43.3925 489.944 43.0952C489.592 42.7979 489.173 42.5622 488.713 42.4015C488.253 42.2409 487.76 42.1585 487.262 42.1591V42.1591Z" fill="url(#paint0_linear)"/>
<path d="M489 56V263.612C489 265.305 488.201 266.93 486.778 268.127C485.355 269.325 483.425 269.999 481.412 270H66.5877C64.5749 269.999 62.6449 269.325 61.2221 268.127C59.7993 266.93 59 265.305 59 263.612V56H489Z" fill="white"/>
<path d="M489.326 46.5508V55.7855H60.7857V46.5508C60.785 46.1345 60.8814 45.7222 61.0695 45.3375C61.2575 44.9528 61.5335 44.6031 61.8816 44.3086C62.2297 44.014 62.6431 43.7804 63.0982 43.6209C63.5532 43.4615 64.041 43.3795 64.5336 43.3795H485.604C486.594 43.3851 487.542 43.7219 488.239 44.3161C488.937 44.9104 489.328 45.7138 489.326 46.5508V46.5508Z" fill="#EDEDF4"/>
<path opacity="0.8" d="M67.5747 50.9726C68.5436 50.9726 69.3291 50.3088 69.3291 49.4901C69.3291 48.6713 68.5436 48.0075 67.5747 48.0075C66.6057 48.0075 65.8202 48.6713 65.8202 49.4901C65.8202 50.3088 66.6057 50.9726 67.5747 50.9726Z" fill="#FA5959"/>
<path opacity="0.8" d="M72.3956 50.9726C73.3646 50.9726 74.1501 50.3088 74.1501 49.4901C74.1501 48.6713 73.3646 48.0075 72.3956 48.0075C71.4266 48.0075 70.6411 48.6713 70.6411 49.4901C70.6411 50.3088 71.4266 50.9726 72.3956 50.9726Z" fill="#FED253"/>
<path opacity="0.8" d="M77.2166 50.9726C78.1855 50.9726 78.971 50.3088 78.971 49.4901C78.971 48.6713 78.1855 48.0075 77.2166 48.0075C76.2476 48.0075 75.4621 48.6713 75.4621 49.4901C75.4621 50.3088 76.2476 50.9726 77.2166 50.9726Z" fill="#8CCF4D"/>
<path d="M299.992 38.0853V36.6028H297.363V38.0853H299.992Z" fill="url(#paint1_linear)"/>
<path d="M200.532 74.0013H159.34V77.7055H200.532V74.0013Z" fill="#EDEDF4"/>
<path d="M390.7 84.7357H159.34V88.4398H390.7V84.7357Z" fill="#EDEDF4"/>
<path d="M390.7 95.4744H159.34V99.1786H390.7V95.4744Z" fill="#EDEDF4"/>
<path d="M390.7 106.213H159.34V109.917H390.7V106.213Z" fill="#EDEDF4"/>
<path d="M390.7 116.952H159.34V120.656H390.7V116.952Z" fill="#EDEDF4"/>
<path d="M346.371 137.432H203.522V230.742H346.371V137.432Z" fill="#EDEDF4"/>
<path d="M460.533 324.051C468.079 324.051 474.197 323.056 474.197 321.829C474.197 320.602 468.079 319.608 460.533 319.608C452.986 319.608 446.868 320.602 446.868 321.829C446.868 323.056 452.986 324.051 460.533 324.051Z" fill="#02328D"/>
<path d="M460.304 322.646C461.183 322.646 461.896 321.859 461.896 320.888C461.896 319.917 461.183 319.131 460.304 319.131C459.425 319.131 458.712 319.917 458.712 320.888C458.712 321.859 459.425 322.646 460.304 322.646Z" fill="#3F3D56"/>
<path d="M460.304 320.493C461.183 320.493 461.896 319.706 461.896 318.735C461.896 317.765 461.183 316.978 460.304 316.978C459.425 316.978 458.712 317.765 458.712 318.735C458.712 319.706 459.425 320.493 460.304 320.493Z" fill="#3F3D56"/>
<path d="M460.304 318.344C461.183 318.344 461.896 317.557 461.896 316.587C461.896 315.616 461.183 314.829 460.304 314.829C459.425 314.829 458.712 315.616 458.712 316.587C458.712 317.557 459.425 318.344 460.304 318.344Z" fill="#3F3D56"/>
<path d="M460.304 316.191C461.183 316.191 461.896 315.404 461.896 314.434C461.896 313.463 461.183 312.676 460.304 312.676C459.425 312.676 458.712 313.463 458.712 314.434C458.712 315.404 459.425 316.191 460.304 316.191Z" fill="#3F3D56"/>
<path d="M460.304 314.043C461.183 314.043 461.896 313.256 461.896 312.285C461.896 311.314 461.183 310.528 460.304 310.528C459.425 310.528 458.712 311.314 458.712 312.285C458.712 313.256 459.425 314.043 460.304 314.043Z" fill="#3F3D56"/>
<path d="M460.304 311.894C461.183 311.894 461.896 311.107 461.896 310.136C461.896 309.166 461.183 308.379 460.304 308.379C459.425 308.379 458.712 309.166 458.712 310.136C458.712 311.107 459.425 311.894 460.304 311.894Z" fill="#3F3D56"/>
<path d="M460.304 309.741C461.183 309.741 461.896 308.954 461.896 307.984C461.896 307.013 461.183 306.226 460.304 306.226C459.425 306.226 458.712 307.013 458.712 307.984C458.712 308.954 459.425 309.741 460.304 309.741Z" fill="#3F3D56"/>
<path d="M466.259 293.266C466.476 293.033 466.674 292.788 466.849 292.531L462.674 291.951L467.19 291.977C467.626 291.18 467.864 290.316 467.889 289.439C467.915 288.562 467.727 287.689 467.337 286.876L461.27 289.536L466.864 286.059C466.349 285.279 465.647 284.598 464.804 284.06C463.96 283.521 462.993 283.137 461.965 282.93C460.936 282.724 459.868 282.701 458.828 282.862C457.788 283.023 456.799 283.365 455.924 283.867C455.049 284.368 454.307 285.017 453.745 285.774C453.182 286.53 452.812 287.377 452.658 288.261C452.504 289.145 452.568 290.046 452.848 290.908C453.128 291.769 453.616 292.572 454.283 293.266C453.943 293.628 453.651 294.022 453.413 294.439L458.839 296.824L453.052 295.182C452.647 296.197 452.547 297.281 452.762 298.337C452.977 299.393 453.499 300.386 454.283 301.228C453.395 302.179 452.843 303.321 452.688 304.524C452.533 305.728 452.782 306.944 453.407 308.033C454.032 309.122 455.007 310.041 456.221 310.684C457.435 311.326 458.838 311.667 460.271 311.667C461.704 311.667 463.107 311.326 464.321 310.684C465.535 310.041 466.51 309.122 467.135 308.033C467.76 306.944 468.009 305.728 467.854 304.524C467.699 303.321 467.146 302.179 466.259 301.228C467.314 300.093 467.888 298.691 467.888 297.247C467.888 295.803 467.314 294.401 466.259 293.266V293.266Z" fill="#02328D"/>
<path opacity="0.1" d="M452.65 297.245C452.648 298.69 453.223 300.094 454.283 301.228C453.395 302.179 452.843 303.321 452.688 304.524C452.533 305.728 452.782 306.944 453.407 308.033C454.032 309.122 455.007 310.041 456.221 310.684C457.435 311.326 458.838 311.667 460.271 311.667C461.704 311.667 463.107 311.326 464.321 310.684C465.535 310.041 466.51 309.122 467.135 308.033C467.76 306.944 468.009 305.728 467.854 304.524C467.699 303.321 467.146 302.179 466.259 301.228C467.281 300.133 452.65 296.523 452.65 297.245Z" fill="black"/>
<path d="M39.1473 294.142C42.5626 294.142 45.3312 293.692 45.3312 293.137C45.3312 292.581 42.5626 292.131 39.1473 292.131C35.7321 292.131 32.9635 292.581 32.9635 293.137C32.9635 293.692 35.7321 294.142 39.1473 294.142Z" fill="#02328D"/>
<path d="M39.0405 293.506C39.4393 293.506 39.7627 293.15 39.7627 292.711C39.7627 292.272 39.4393 291.916 39.0405 291.916C38.6417 291.916 38.3184 292.272 38.3184 292.711C38.3184 293.15 38.6417 293.506 39.0405 293.506Z" fill="#3F3D56"/>
<path d="M39.0405 292.531C39.4393 292.531 39.7627 292.175 39.7627 291.736C39.7627 291.297 39.4393 290.941 39.0405 290.941C38.6417 290.941 38.3184 291.297 38.3184 291.736C38.3184 292.175 38.6417 292.531 39.0405 292.531Z" fill="#3F3D56"/>
<path d="M39.0405 291.56C39.4393 291.56 39.7627 291.204 39.7627 290.765C39.7627 290.326 39.4393 289.97 39.0405 289.97C38.6417 289.97 38.3184 290.326 38.3184 290.765C38.3184 291.204 38.6417 291.56 39.0405 291.56Z" fill="#3F3D56"/>
<path d="M39.0405 290.584C39.4393 290.584 39.7627 290.228 39.7627 289.789C39.7627 289.35 39.4393 288.994 39.0405 288.994C38.6417 288.994 38.3184 289.35 38.3184 289.789C38.3184 290.228 38.6417 290.584 39.0405 290.584Z" fill="#3F3D56"/>
<path d="M39.0405 289.613C39.4393 289.613 39.7627 289.257 39.7627 288.818C39.7627 288.379 39.4393 288.023 39.0405 288.023C38.6417 288.023 38.3184 288.379 38.3184 288.818C38.3184 289.257 38.6417 289.613 39.0405 289.613Z" fill="#3F3D56"/>
<path d="M39.0405 288.638C39.4393 288.638 39.7627 288.282 39.7627 287.843C39.7627 287.404 39.4393 287.048 39.0405 287.048C38.6417 287.048 38.3184 287.404 38.3184 287.843C38.3184 288.282 38.6417 288.638 39.0405 288.638Z" fill="#3F3D56"/>
<path d="M39.0405 287.662C39.4393 287.662 39.7627 287.306 39.7627 286.867C39.7627 286.428 39.4393 286.072 39.0405 286.072C38.6417 286.072 38.3184 286.428 38.3184 286.867C38.3184 287.306 38.6417 287.662 39.0405 287.662Z" fill="#3F3D56"/>
<path d="M41.7358 280.224C41.8359 280.12 41.9261 280.009 42.0053 279.893L40.1135 279.626H42.1477C42.3436 279.266 42.4505 278.875 42.4618 278.478C42.4732 278.082 42.3888 277.687 42.2138 277.319L39.4677 278.522L42.0104 276.949C41.7723 276.605 41.4529 276.305 41.0721 276.069C40.6913 275.833 40.2571 275.666 39.7966 275.577C39.3361 275.489 38.859 275.481 38.3949 275.555C37.9308 275.629 37.4897 275.783 37.0987 276.007C36.7078 276.23 36.3754 276.52 36.1223 276.857C35.8692 277.194 35.7006 277.571 35.6271 277.965C35.5536 278.359 35.5767 278.762 35.695 279.148C35.8133 279.535 36.0242 279.896 36.3148 280.211C36.1613 280.376 36.03 280.554 35.9232 280.744L38.3794 281.822L35.7605 281.083C35.576 281.542 35.53 282.033 35.6268 282.511C35.7236 282.989 35.9601 283.439 36.3148 283.82C35.9149 284.25 35.6662 284.766 35.5971 285.31C35.528 285.854 35.6413 286.403 35.924 286.894C36.2068 287.386 36.6475 287.801 37.1959 288.091C37.7444 288.381 38.3783 288.535 39.0253 288.535C39.6723 288.535 40.3062 288.381 40.8546 288.091C41.403 287.801 41.8438 287.386 42.1265 286.894C42.4092 286.403 42.5225 285.854 42.4534 285.31C42.3844 284.766 42.1357 284.25 41.7358 283.82C42.2138 283.306 42.4736 282.672 42.4736 282.018C42.4736 281.364 42.2138 280.729 41.7358 280.215V280.224Z" fill="#02328D"/>
<path opacity="0.1" d="M35.5977 282.007C35.5958 282.662 35.8557 283.298 36.3351 283.812C35.9352 284.242 35.6865 284.758 35.6174 285.301C35.5483 285.845 35.6616 286.394 35.9444 286.886C36.2271 287.378 36.6679 287.792 37.2163 288.082C37.7647 288.372 38.3986 288.526 39.0456 288.526C39.6926 288.526 40.3265 288.372 40.875 288.082C41.4234 287.792 41.8641 287.378 42.1469 286.886C42.4296 286.394 42.5429 285.845 42.4738 285.301C42.4047 284.758 42.156 284.242 41.7561 283.812C42.2087 283.313 35.5977 281.681 35.5977 282.007Z" fill="black"/>
<path d="M141.847 130.883H118.129C117.77 130.884 117.422 130.989 117.144 131.181C116.867 131.372 116.675 131.639 116.603 131.936L110.185 158.69C110.175 158.763 110.175 158.837 110.185 158.91L109.575 158.965L109.031 159.013C108.998 159.008 108.966 159 108.934 158.991C108.851 158.942 108.78 158.878 108.728 158.804C108.675 158.73 108.642 158.647 108.629 158.561C108.318 157.609 108.092 156.638 107.953 155.657C107.874 154.58 107.874 153.501 107.953 152.425C107.983 151.566 107.953 150.728 107.953 149.881C108.121 148.929 108.222 147.969 108.253 147.006C108.313 145.98 108.193 144.952 107.897 143.955C107.709 143.415 107.471 142.887 107.185 142.378C106.961 140.934 106.717 139.486 106.468 138.047C106.28 136.977 106.091 135.898 105.842 134.841C105.898 134.665 105.944 134.489 105.98 134.308C106.117 133.433 105.982 132.543 105.589 131.726C105.196 130.908 104.557 130.191 103.737 129.646C103.228 129.296 102.665 129.007 102.064 128.786C101.565 128.613 101.056 128.463 100.538 128.335L92.3558 126.186C91.598 125.254 90.8301 124.313 90.1487 123.35C89.4846 122.483 88.9046 121.572 88.4146 120.626C91.0708 119.024 92.9011 116.625 93.5299 113.919C94.1588 111.213 93.5385 108.407 91.7964 106.076C91.6591 105.895 91.5167 105.715 91.3692 105.543C91.4287 104.711 91.3133 103.878 91.0285 103.08C90.9653 102.785 90.8612 102.496 90.7183 102.221C90.4973 101.848 90.2148 101.504 89.8792 101.198C89.8131 101.134 89.7368 101.074 89.6656 101.009C88.9956 100.387 88.245 99.8308 87.428 99.3504C84.7124 97.6874 81.0713 95.6677 77.7403 94.9888C76.0943 94.6723 74.3861 94.6649 72.7363 94.9673L72.4821 94.9071L71.9989 94.8255C72.121 94.8685 72.238 94.9243 72.36 94.9716C70.6129 94.6415 68.7978 94.6695 67.0661 95.0532C64.9099 95.5947 64.1573 97.0386 63.247 98.6156C61.7692 101.154 59.528 103.319 56.7479 104.894C54.9578 105.908 52.8372 106.785 51.9778 108.448C51.1743 109.999 51.7184 111.774 51.9066 113.462C52.135 115.754 51.683 118.057 50.5916 120.163C49.5003 122.27 47.804 124.112 45.6566 125.525C43.2106 127.115 39.9457 128.447 39.4219 131.008C39.0507 132.834 40.2712 134.579 41.1917 136.263C43.1394 139.813 43.8055 144.149 41.5171 147.556C40.8713 148.523 39.9915 149.408 39.6457 150.478C39.0354 152.382 40.3322 154.453 42.2748 155.562C44.2175 156.671 46.6534 156.967 49.0028 156.959C49.4046 156.959 49.8114 156.959 50.2233 156.911C50.0199 158.574 49.7656 160.237 49.4452 161.888C48.9723 164.324 48.3671 166.769 48.5502 169.231C48.6468 170.564 49.0079 171.943 50.0301 172.97C51.637 174.59 54.434 174.921 56.9411 174.839C60.9077 174.71 64.8082 173.838 68.7545 173.645C68.6806 173.779 68.6424 173.926 68.6426 174.074C68.6426 174.654 69.0647 175.295 68.8714 175.871C68.7896 176.072 68.6694 176.261 68.5154 176.429C67.4984 177.693 66.2931 179.102 66.644 180.602C66.8169 181.332 67.356 182.063 67.1068 182.78C66.9493 183.116 66.7295 183.428 66.4559 183.704C65.0625 185.458 65.3523 187.765 65.7032 189.858L66.1711 189.97C66.0389 190.21 65.9066 190.455 65.7846 190.7C65.2145 191.786 64.8853 192.951 64.8133 194.138C64.8522 195.47 65.1194 196.79 65.6066 198.057C66.2982 200.206 67.0153 202.354 67.9255 204.43C68.6985 206.213 69.6088 207.945 70.5089 209.681C70.7937 210.214 71.0734 210.751 71.3531 211.288C73.0889 214.611 74.8281 217.937 76.5707 221.266C76.7896 221.648 76.9601 222.049 77.0793 222.461C77.1708 222.813 77.1911 223.17 77.2572 223.526C77.5318 224.91 78.5998 226.075 79.3829 227.317C82.0222 231.506 81.3662 236.56 80.6492 241.265C81.0412 241.596 81.4802 241.885 81.9561 242.125C81.8799 242.597 81.8036 243.074 81.6866 243.53C80.9899 246.216 80.161 248.88 79.6779 251.609C79.4348 252.935 79.3157 254.276 79.3219 255.618C79.3219 256.907 79.866 258.218 79.866 259.485C80.2373 260.775 80.8018 262.004 81.1984 263.28C81.3611 265.261 81.6358 267.242 81.9866 269.219C82.1019 271.012 82.2206 272.807 82.3426 274.603C82.4494 276.193 82.5359 277.865 81.6917 279.291C81.6917 279.338 81.6307 279.386 81.6002 279.433C80.8626 279.391 80.1243 279.507 79.4546 279.772C78.7848 280.036 78.2055 280.44 77.7709 280.946C76.8811 282.039 76.3687 283.32 76.291 284.645C76.1832 285.205 76.2589 285.779 76.5097 286.304C76.7538 286.734 77.181 287.022 77.4607 287.417C77.7349 287.877 77.9073 288.375 77.9692 288.887C78.5388 291.86 79.1134 294.843 79.4185 297.846C79.5101 298.762 79.5965 299.729 80.2322 300.476C80.8679 301.224 82.2663 301.589 83.0647 300.958C82.2586 297.516 81.86 294.015 81.8748 290.507C82.1412 290.475 82.4118 290.475 82.6783 290.507C82.8359 291.113 83.0546 291.714 83.258 292.312C83.394 292.75 83.5638 293.181 83.7665 293.601C83.6852 294.19 83.7665 295.075 83.736 295.504C83.6953 297.404 83.6953 299.302 83.736 301.198C83.7665 302.281 83.8123 303.364 83.8733 304.447C83.8676 304.567 83.8955 304.686 83.9547 304.795C83.9739 304.816 83.9987 304.832 84.0271 304.842C84.0555 304.853 84.0865 304.857 84.1174 304.855C84.5446 304.855 84.9769 304.855 85.404 304.855C85.4502 304.427 85.4689 303.996 85.46 303.566C85.46 302.578 85.46 301.592 85.46 300.61C85.46 299.767 85.46 298.925 85.46 298.083C85.76 299.591 86.1872 301.091 86.6194 302.573L87.5348 305.745L87.6263 306.063L88.4044 308.748C88.4286 308.845 88.4662 308.939 88.5163 309.028C88.6152 309.158 88.7451 309.269 88.8977 309.354C90.507 310.343 92.395 310.958 94.3733 311.137C96.3516 311.317 98.351 311.055 100.172 310.377C100.312 310.329 100.441 310.261 100.553 310.175C100.757 309.945 100.85 309.658 100.813 309.372C100.764 308.515 100.963 307.661 101.392 306.883C101.627 306.597 101.818 306.286 101.962 305.96C102.049 305.43 101.928 304.891 101.616 304.425L100.777 302.771C101.174 302.758 101.57 302.724 101.962 302.668C102.557 302.238 102.125 301.349 102.618 300.842C102.823 300.684 103.043 300.541 103.274 300.412C103.894 299.952 103.833 299.123 103.554 298.465C102.649 296.347 100.228 294.997 97.9599 293.803L97.6649 293.648C95.8138 286.343 92.549 279.145 93.4186 271.732C93.6068 270.151 93.9831 268.587 94.2882 267.005C95.8138 259.228 95.7172 251.248 97.4767 243.508C98.3852 243.465 99.2694 243.244 100.06 242.864C101.55 242.082 102.277 240.569 102.476 239.104C102.674 237.638 102.435 236.16 102.476 234.682C102.521 232.563 103.122 230.484 103.722 228.417C104.423 226.006 103.213 223.449 103.945 221.047C104.224 220.308 104.444 219.554 104.606 218.791C104.759 217.712 104.505 216.574 104.957 215.551C105.161 215.082 105.512 214.666 105.746 214.206C106.763 212.264 105.644 209.909 106.666 207.958C106.996 207.505 107.241 207.012 107.393 206.497C107.428 206.095 107.368 205.692 107.215 205.311C106.956 204.417 106.707 203.514 106.539 202.608C106.463 202.295 106.431 201.977 106.442 201.658C106.492 201.32 106.582 200.988 106.712 200.665C107.485 198.405 107.581 196.02 107.668 193.661C107.714 192.41 107.754 191.083 107.129 189.957C106.943 189.616 106.703 189.298 106.417 189.011L106.493 188.977C106.102 187.632 105.791 186.068 106.361 184.766C106.6 184.211 107.012 183.679 106.936 183.09C106.859 182.501 106.381 182.097 106.188 181.573C105.857 180.714 106.361 179.785 106.656 178.9C107.164 177.387 107.047 175.78 106.93 174.208C106.936 173.869 106.845 173.535 106.666 173.232C106.534 173.047 106.335 172.906 106.208 172.716C106.081 172.487 106.018 172.236 106.024 171.982C106.03 171.729 106.106 171.48 106.244 171.255C106.526 170.811 106.756 170.345 106.93 169.863C106.958 169.714 106.958 169.561 106.93 169.412C107.307 169.274 107.642 169.068 108.004 168.905C109.529 168.217 111.334 168.32 113.053 168.282C114.772 168.243 116.684 167.955 117.712 166.799C117.813 166.654 117.952 166.531 118.118 166.438C118.173 166.415 118.231 166.397 118.291 166.387C118.917 166.46 119.308 166.455 119.222 166.318C119.507 166.21 119.639 165.948 119.807 165.729C119.85 165.672 119.897 165.617 119.949 165.566C120.587 165.245 121.253 164.966 121.943 164.732C121.819 164.719 121.695 164.719 121.571 164.732C122.631 164.442 123.743 164.311 124.856 164.346C125.919 164.346 127.75 164.47 128.579 163.774C130.105 162.953 130.557 161.307 131.264 159.907C131.499 159.453 131.762 159.009 132.052 158.579L136.004 158.252C136.336 158.224 136.648 158.107 136.896 157.919C137.144 157.73 137.314 157.48 137.382 157.204L143.311 132.456C143.356 132.269 143.352 132.077 143.299 131.892C143.247 131.707 143.148 131.534 143.009 131.384C142.869 131.235 142.693 131.112 142.493 131.026C142.292 130.939 142.072 130.891 141.847 130.883ZM67.0153 164.831C66.1371 165.152 65.1904 165.318 64.2336 165.318C63.2767 165.318 62.33 165.152 61.4518 164.831C61.1874 164.732 60.8975 164.457 61.1111 164.294C61.3247 164.131 61.4976 164.268 61.6705 164.199C62.0011 164.062 61.7621 163.649 61.579 163.383C61.0704 162.609 61.4213 161.63 61.9248 160.848C62.4282 160.066 63.0741 159.292 63.0944 158.403C63.0635 158.117 63.0635 157.829 63.0944 157.543C63.2557 157.138 63.5116 156.763 63.8471 156.443C63.9386 156.331 64.0149 156.211 64.0962 156.091C64.2335 156.271 64.3709 156.447 64.5132 156.623C64.9709 157.216 65.4269 157.814 65.8812 158.415C66.2441 158.82 66.4739 159.299 66.5474 159.803C66.4964 160.102 66.5154 160.405 66.6033 160.697C66.8068 161.075 67.4373 161.389 67.2034 161.754C67.0879 161.951 67.0277 162.167 67.0277 162.386C67.0277 162.605 67.0879 162.821 67.2034 163.018C67.4424 163.366 67.7984 163.654 68.0374 163.997C68.1053 164.101 68.1631 164.209 68.2103 164.32C67.8238 164.492 67.4221 164.681 67.0153 164.831ZM116.344 160.194C116.044 160.255 115.743 160.315 115.443 160.384C115.403 160.229 115.387 160.143 115.387 160.143L113.801 160.542C113.197 160.565 112.595 160.46 112.051 160.237L118.601 159.696C117.854 159.876 117.101 160.044 116.344 160.194Z" fill="url(#paint2_linear)"/>
<path d="M68.1442 99.7415C66.6865 102.263 64.4719 104.417 61.7214 105.99C59.9466 106.999 57.8514 107.867 57.0021 109.522C56.2088 111.065 56.7478 112.835 56.9309 114.511C57.1558 116.776 56.7128 119.052 55.6417 121.137C54.5705 123.222 52.9046 125.05 50.7929 126.457C48.3773 128.043 45.1481 129.366 44.6294 131.915C44.2632 133.728 45.4735 135.468 46.3838 137.14C48.3061 140.672 48.9672 144.987 46.7042 148.373C46.0634 149.335 45.1786 150.216 44.8531 151.282C44.248 153.177 45.5295 155.235 47.4518 156.336C49.374 157.436 51.7845 157.736 54.1034 157.728C55.7867 157.728 57.6124 157.513 58.8125 156.512C59.616 155.841 60.0127 154.909 60.389 154.011L63.3131 147.011C63.8216 145.747 64.4014 144.432 65.51 143.487C67.8645 141.459 71.6989 141.674 75.0603 141.708C80.0079 141.758 84.9301 141.103 89.6198 139.77C92.3659 138.983 95.346 137.651 95.9867 135.266C96.6275 132.881 94.7255 130.711 93.0626 128.778C91.8184 127.345 90.642 125.863 89.5334 124.33C88.4502 122.852 87.4178 121.292 87.1178 119.573C86.6093 116.715 88.2112 113.939 89.4367 111.245C90.6623 108.551 91.5217 105.362 89.7368 102.9C88.9657 101.941 87.9833 101.117 86.8432 100.472C84.1581 98.8176 80.5576 96.8108 77.2674 96.1361C75.5034 95.7863 73.6648 95.8069 71.9125 96.1963C69.7817 96.7549 69.0341 98.1902 68.1442 99.7415Z" fill="#3F3D56"/>
<path d="M104.25 133.144C104.91 135.04 105.378 136.981 105.649 138.945C106.463 143.672 107.281 148.459 107.129 153.25C107.055 154.319 107.055 155.391 107.129 156.46C107.27 157.437 107.496 158.403 107.805 159.352C107.816 159.438 107.849 159.52 107.9 159.594C107.952 159.668 108.022 159.732 108.105 159.782C108.298 159.864 108.527 159.782 108.741 159.76C109.468 159.687 110.007 160.28 110.567 160.68C111.116 161.056 111.789 161.281 112.494 161.325C113.199 161.37 113.903 161.232 114.513 160.929C114.325 161.633 114.384 162.369 114.683 163.045C114.982 163.721 115.508 164.309 116.196 164.737C116.899 165.151 117.699 165.433 118.543 165.562C119.386 165.692 120.252 165.667 121.083 165.489C120.239 165.377 119.43 165.875 118.968 166.481C118.805 166.696 118.673 166.958 118.393 167.066C118.113 167.173 117.63 167.036 117.3 167.182C117.136 167.276 116.999 167.399 116.898 167.543C115.881 168.694 113.994 168.978 112.296 169.017C110.597 169.055 108.797 168.956 107.302 169.64C106.93 169.807 106.585 170.022 106.198 170.16C105.018 170.589 103.61 170.16 102.694 169.425C101.821 168.633 101.202 167.665 100.894 166.614C99.3685 162.455 99.6736 157.999 99.9838 153.654C100.477 146.749 101.515 139.675 104.25 133.144Z" fill="#FB4242"/>
<path opacity="0.1" d="M104.52 133C105.18 134.897 105.647 136.837 105.918 138.801C106.732 143.528 107.551 148.315 107.398 153.107C107.324 154.176 107.324 155.247 107.398 156.317C107.54 157.293 107.766 158.26 108.074 159.209C108.086 159.294 108.118 159.377 108.17 159.451C108.221 159.525 108.291 159.589 108.375 159.638C108.568 159.72 108.797 159.638 109.01 159.617C109.737 159.544 110.276 160.137 110.836 160.536C111.386 160.912 112.058 161.137 112.763 161.181C113.468 161.226 114.172 161.088 114.782 160.786C114.594 161.49 114.654 162.225 114.952 162.901C115.251 163.577 115.777 164.165 116.465 164.593C117.168 165.007 117.969 165.289 118.812 165.419C119.655 165.549 120.522 165.523 121.352 165.345C120.508 165.233 119.7 165.732 119.237 166.338C119.074 166.553 118.942 166.815 118.662 166.922C118.383 167.03 117.899 166.892 117.569 167.038C117.405 167.132 117.268 167.255 117.167 167.399C116.15 168.551 114.263 168.834 112.565 168.873C110.866 168.912 109.066 168.813 107.571 169.496C107.2 169.664 106.854 169.879 106.468 170.016C105.288 170.446 103.879 170.016 102.964 169.281C102.091 168.489 101.471 167.522 101.163 166.471C99.6378 162.311 99.943 157.855 100.253 153.511C100.746 146.605 101.784 139.532 104.52 133Z" fill="#FB4242"/>
<path d="M79.4134 259.709C79.8406 261.209 80.5424 262.648 80.9391 264.152C81.2281 265.448 81.3981 266.762 81.4476 268.08L81.8849 274.749C81.9917 276.33 82.0782 277.993 81.2442 279.412C80.6695 280.396 79.6728 281.221 79.388 282.291C78.9405 283.967 80.3593 285.552 81.6917 286.854L88.2315 293.257C90.2657 295.264 92.5185 297.374 95.5545 298.057C96.0056 298.187 96.4919 298.202 96.9529 298.1C97.7971 297.864 98.209 297 98.087 296.252C97.8956 295.514 97.4961 294.826 96.9224 294.246C95.2087 292.213 93.3627 290.215 92.2642 287.903C90.8505 284.964 90.703 281.711 90.7894 278.539C91.1353 265.605 94.9849 252.821 94.5476 239.864C91.2065 239.65 87.7331 239.181 84.3768 239.207C81.3916 239.233 81.7476 241.785 81.2289 243.826C80.5373 246.499 79.7033 249.151 79.2405 251.862C78.9992 253.183 78.8819 254.518 78.8896 255.854C78.8896 257.156 79.4134 258.458 79.4134 259.709Z" fill="#FBBEBE"/>
<path opacity="0.05" d="M79.4134 259.709C79.8406 261.209 80.5424 262.648 80.9391 264.152C81.2281 265.448 81.3981 266.762 81.4476 268.08L81.8849 274.749C81.9917 276.33 82.0782 277.993 81.2442 279.412C80.6695 280.396 79.6728 281.221 79.388 282.291C78.9405 283.967 80.3593 285.552 81.6917 286.854L88.2315 293.257C90.2657 295.264 92.5185 297.374 95.5545 298.057C96.0056 298.187 96.4919 298.202 96.9529 298.1C97.7971 297.864 98.209 297 98.087 296.252C97.8956 295.514 97.4961 294.826 96.9224 294.246C95.2087 292.213 93.3627 290.215 92.2642 287.903C90.8505 284.964 90.703 281.711 90.7894 278.539C91.1353 265.605 94.9849 252.821 94.5476 239.864C91.2065 239.65 87.7331 239.181 84.3768 239.207C81.3916 239.233 81.7476 241.785 81.2289 243.826C80.5373 246.499 79.7033 249.151 79.2405 251.862C78.9992 253.183 78.8819 254.518 78.8896 255.854C78.8896 257.156 79.4134 258.458 79.4134 259.709Z" fill="black"/>
<path d="M81.3917 279.579C79.866 279.313 78.2794 280.009 77.3233 281.057C76.4413 282.145 75.9342 283.419 75.8588 284.736C75.747 285.292 75.8228 285.864 76.0774 286.386C76.3164 286.794 76.7385 287.104 77.0131 287.495C77.2876 287.951 77.46 288.446 77.5217 288.956C78.0912 291.916 78.6608 294.881 78.9558 297.868C79.0473 298.779 79.1337 299.742 79.7643 300.485C80.3949 301.228 81.7985 301.589 82.5664 300.966C81.7707 297.557 81.3738 294.089 81.3815 290.614C83.1665 290.408 84.7226 291.594 85.8871 292.763C87.0794 293.947 88.172 295.201 89.1571 296.514C89.9856 297.758 90.9456 298.936 92.0252 300.034C93.1958 301.083 94.6514 301.875 96.2659 302.341C97.8804 302.808 99.6052 302.935 101.291 302.711C101.881 302.281 101.448 301.396 101.937 300.893C102.14 300.736 102.358 300.592 102.588 300.463C103.203 300.008 103.137 299.174 102.862 298.53C101.972 296.42 99.577 295.092 97.3344 293.889C93.266 291.74 89.1469 289.592 85.0531 287.512C83.4921 286.695 82.3039 285.456 81.6815 283.997C81.534 283.623 80.8933 279.437 81.3917 279.579Z" fill="#3F3D56"/>
<path opacity="0.05" d="M81.3917 279.579C79.866 279.313 78.2794 280.009 77.3233 281.057C76.4413 282.145 75.9342 283.419 75.8588 284.736C75.747 285.292 75.8228 285.864 76.0774 286.386C76.3164 286.794 76.7385 287.104 77.0131 287.495C77.2876 287.951 77.46 288.446 77.5217 288.956C78.0912 291.916 78.6608 294.881 78.9558 297.868C79.0473 298.779 79.1337 299.742 79.7643 300.485C80.3949 301.228 81.7985 301.589 82.5664 300.966C81.7707 297.557 81.3738 294.089 81.3815 290.614C83.1665 290.408 84.7226 291.594 85.8871 292.763C87.0794 293.947 88.172 295.201 89.1571 296.514C89.9856 297.758 90.9456 298.936 92.0252 300.034C93.1958 301.083 94.6514 301.875 96.2659 302.341C97.8804 302.808 99.6052 302.935 101.291 302.711C101.881 302.281 101.448 301.396 101.937 300.893C102.14 300.736 102.358 300.592 102.588 300.463C103.203 300.008 103.137 299.174 102.862 298.53C101.972 296.42 99.577 295.092 97.3344 293.889C93.266 291.74 89.1469 289.592 85.0531 287.512C83.4921 286.695 82.3039 285.456 81.6815 283.997C81.534 283.623 80.8933 279.437 81.3917 279.579Z" fill="#FB4242"/>
<path d="M80.7306 255.953C79.9118 264.595 82.2053 273.198 84.2446 281.693C84.4362 282.372 84.5402 283.067 84.5548 283.765C84.4693 284.634 84.2992 285.497 84.0462 286.343C83.2733 289.849 84.2598 293.442 85.2413 296.91C85.9227 299.312 86.8839 302.023 89.5334 303.072C91.3997 303.815 93.6017 303.502 95.6358 303.154C96.3043 303.094 96.9399 302.878 97.4717 302.53C98.2039 301.95 98.2294 300.992 98.1683 300.15C97.4666 290.61 91.7506 281.461 92.8643 271.947C93.0474 270.375 93.4186 268.819 93.7237 267.255C95.3002 259.167 95.0968 250.844 97.1309 242.838C97.232 242.558 97.232 242.259 97.1309 241.979C96.9588 241.704 96.6858 241.484 96.3529 241.351C94.5018 240.414 92.5236 239.585 90.3877 239.332C88.7197 239.134 86.6245 239.289 85.221 240.161C83.8174 241.033 83.6546 243.049 83.2224 244.488C82.0107 248.244 81.1771 252.079 80.7306 255.953V255.953Z" fill="#FBBEBE"/>
<path d="M83.4004 304.481C83.3921 304.6 83.4183 304.718 83.4767 304.825C83.4956 304.846 83.5203 304.863 83.5486 304.874C83.577 304.886 83.6081 304.891 83.6394 304.89C84.0666 304.89 84.4887 304.89 84.9158 304.89C84.9667 304.46 84.9667 304.03 84.9718 303.601V300.661C84.9718 298.332 84.9718 295.994 84.8497 293.678C84.8515 293.592 84.836 293.506 84.8039 293.425C84.7746 293.374 84.7238 293.334 84.6616 293.313C84.3615 293.193 83.6445 292.819 83.3902 293.249C83.1359 293.678 83.2478 295.032 83.2326 295.595C83.1919 297.483 83.1919 299.371 83.2326 301.259C83.2902 302.333 83.3461 303.407 83.4004 304.481Z" fill="#3F3D56"/>
<path d="M105.73 202.238C105.72 202.555 105.752 202.873 105.827 203.184C106.01 204.086 106.239 204.98 106.498 205.869C106.646 206.25 106.704 206.651 106.671 207.051C106.52 207.563 106.278 208.052 105.954 208.504C104.937 210.424 106.03 212.801 105.044 214.717C104.81 215.177 104.464 215.577 104.261 216.058C103.818 217.076 104.067 218.207 103.92 219.281C103.76 220.04 103.54 220.789 103.264 221.524C102.547 223.913 103.732 226.457 103.04 228.855C102.45 230.909 101.85 232.98 101.809 235.09C101.774 236.556 102.013 238.025 101.809 239.486C101.606 240.947 100.889 242.447 99.4194 243.225C98.2599 243.839 96.8207 243.908 95.4477 243.93C92.8084 243.968 90.1538 243.904 87.5145 243.732C84.8751 243.56 82.0426 243.195 80.1864 241.609C80.8933 236.929 81.5391 231.906 78.9303 227.733C78.1573 226.5 77.0996 225.34 76.8301 223.965C76.7589 223.612 76.7385 223.256 76.6521 222.908C76.5316 222.497 76.3611 222.098 76.1435 221.717C74.4247 218.403 72.7041 215.093 70.9819 211.787C70.7073 211.254 70.4326 210.721 70.1479 210.188C69.2579 208.469 68.3629 206.75 67.6052 204.971C66.7051 202.891 65.9931 200.76 65.3116 198.629C64.8293 197.367 64.5655 196.052 64.5285 194.727C64.6026 193.554 64.9282 192.402 65.4896 191.328C65.7948 190.7 66.1507 190.086 66.5067 189.484C76.7334 187.446 87.2583 186.684 97.7463 187.224C99.4234 187.25 101.087 187.483 102.684 187.916C103.767 188.239 104.741 188.777 105.527 189.484C105.889 189.813 106.186 190.189 106.407 190.597C107.022 191.732 106.981 193.038 106.941 194.284C106.849 196.626 106.758 199.011 105.995 201.25C105.867 201.571 105.778 201.902 105.73 202.238V202.238Z" fill="#3F3D56"/>
<path d="M98.5599 299.686C97.009 300.677 95.189 301.324 93.266 301.568C91.5675 301.778 89.7063 301.628 88.3586 300.708C86.833 299.681 86.2889 297.937 85.8516 296.321L85.2667 294.172C85.0531 293.399 84.8446 292.625 84.6768 291.843C84.24 289.778 84.1119 287.675 84.2954 285.582C82.902 286.042 82.068 287.439 81.9765 288.698C81.8849 289.957 82.3477 291.19 82.7698 292.402C82.9362 292.987 83.1909 293.552 83.5275 294.082C83.7767 294.435 84.1022 294.748 84.3158 295.118C84.5821 295.665 84.7352 296.246 84.7684 296.837C85.0846 298.778 85.5414 300.701 86.1363 302.595L87.0415 305.749L87.1331 306.067L87.901 308.74C87.9244 308.835 87.962 308.928 88.0128 309.015C88.1084 309.146 88.2369 309.257 88.3892 309.342C89.9769 310.325 91.8436 310.937 93.8009 311.116C95.7581 311.295 97.7365 311.034 99.5363 310.36C99.676 310.311 99.805 310.243 99.9177 310.158C100.114 309.928 100.202 309.645 100.167 309.363C100.123 308.509 100.322 307.659 100.747 306.884C100.977 306.597 101.165 306.289 101.306 305.964C101.39 305.438 101.27 304.903 100.965 304.438L99.0837 300.717C98.9727 300.353 98.7961 300.005 98.5599 299.686V299.686Z" fill="#3F3D56"/>
<path d="M94.1458 144.862C94.075 145.681 93.8837 146.489 93.5762 147.268C93.3476 147.834 92.9458 148.338 92.4117 148.73C91.537 147.733 89.9758 147.389 88.7909 146.654C87.8163 145.954 86.9682 145.138 86.2736 144.23C84.748 142.511 83.0088 140.986 81.3815 139.362C81.1323 139.112 80.8729 138.867 80.6543 138.618C79.8223 137.761 79.0692 136.852 78.4014 135.898C77.0436 133.921 76.113 131.648 74.0687 130.153C72.955 129.336 71.5565 128.799 70.5699 127.875C71.1716 127.005 71.5639 126.042 71.7243 125.043C71.9583 124.085 72.1871 123.123 72.3091 122.147C72.3447 121.889 72.3651 121.631 72.3753 121.374C72.3753 121.262 72.3753 121.154 72.3753 121.043C72.3753 120.248 71.7701 118.894 72.7312 118.439C73.611 118.009 75.0553 118.009 76.0927 118.035H76.2808C78.6894 118.057 81.038 118.672 83.0393 119.805C83.4948 120.041 83.892 120.349 84.209 120.712C84.6729 121.427 84.8512 122.25 84.7175 123.058C84.7175 123.247 84.7175 123.436 84.6819 123.621V123.896C84.6463 124.816 84.7531 125.8 85.5159 126.44C86.2787 127.08 87.6314 127.162 88.7451 127.454C88.9282 127.506 89.1011 127.557 89.2791 127.617C90.4987 128.082 91.5398 128.827 92.2846 129.766C93.1218 130.846 93.7133 132.048 94.0288 133.311C94.3394 134.441 94.535 135.591 94.6137 136.749C94.7233 139.46 94.5669 142.173 94.1458 144.862V144.862Z" fill="#FBBEBE"/>
<path opacity="0.1" d="M84.6972 123.599V123.875C83.3394 124.304 80.0288 123.118 78.4981 123.118C75.4468 123.118 74.5213 123.621 72.3244 122.126C72.3702 121.76 72.4007 121.391 72.4108 121.021C72.4108 120.226 71.8057 118.873 72.7668 118.417C73.728 117.962 75.2587 117.987 76.2961 118.013C78.7047 118.036 81.0532 118.651 83.0546 119.784C83.5101 120.019 83.9073 120.327 84.2242 120.69C84.8701 121.515 84.7683 122.603 84.6972 123.599Z" fill="black"/>
<path d="M93.1135 112.895C93.1139 114.491 92.6959 116.067 91.8893 117.51C91.0828 118.953 89.9078 120.227 88.449 121.24C86.9901 122.253 85.2836 122.981 83.4522 123.37C81.6208 123.76 79.71 123.801 77.8573 123.492C74.9537 123.006 72.3394 121.684 70.4598 119.752C68.5802 117.82 67.5516 115.396 67.5492 112.895C67.5153 111.458 67.821 110.03 68.4484 108.694C69.0757 107.358 70.0122 106.141 71.203 105.114C72.3938 104.088 73.8149 103.272 75.3832 102.716C76.9514 102.159 78.6354 101.872 80.3364 101.872C82.0375 101.872 83.7214 102.159 85.2897 102.716C86.858 103.272 88.2791 104.088 89.4699 105.114C90.6606 106.141 91.5971 107.358 92.2245 108.694C92.8519 110.03 93.1575 111.458 93.1236 112.895H93.1135Z" fill="#FBBEBE"/>
<path d="M71.6023 125.662C71.2009 125.378 70.7091 125.2 70.1885 125.151C69.8138 125.182 69.457 125.301 69.1592 125.496C68.8614 125.69 68.6348 125.952 68.5053 126.251C68.1951 126.831 68.0985 127.471 67.8289 128.069C67.4632 128.872 66.7995 129.553 65.9372 130.011C65.332 130.329 64.615 130.552 64.203 131.042C63.5521 131.82 63.9488 132.907 64.498 133.741C66.5322 136.848 70.2445 138.898 73.7992 140.793L77.8065 142.941C79.4158 143.842 81.083 144.667 82.8003 145.412C85.582 146.572 88.5926 147.316 91.359 148.502C92.6304 149.043 93.9017 149.692 95.29 149.877C95.5863 149.077 95.7723 148.251 95.8443 147.415C96.5309 142.258 97.2072 136.985 95.8443 131.923C95.6644 130.943 95.1762 130.021 94.4306 129.255C93.906 128.831 93.3053 128.48 92.6507 128.215C91.027 127.476 89.3565 126.813 87.6467 126.229C86.845 125.902 85.9639 125.737 85.0735 125.748C85.1507 126.313 85.3507 126.861 85.6634 127.364C87.8094 131.406 89.9588 135.45 92.1117 139.495C92.5842 140.232 92.852 141.051 92.8948 141.888C92.849 143.079 91.8777 144.239 92.2896 145.382C88.5384 140.772 84.2355 136.501 79.449 132.637C79.239 132.488 79.0661 132.305 78.9405 132.099C78.8247 131.775 78.8004 131.432 78.8693 131.098C78.9151 130.462 78.7574 129.611 78.1268 129.186C77.6895 128.889 77.0436 128.803 76.5605 128.546C74.8773 127.643 73.255 126.625 71.6023 125.662Z" fill="#FB4242"/>
<path opacity="0.1" d="M105.776 190.442C102.545 191.816 99.0246 192.638 95.4171 192.862C91.8202 193.079 88.2103 193.096 84.6107 192.913L76.413 192.651C72.6905 192.527 69.0341 192.273 65.4845 191.328C65.7897 190.7 66.1456 190.086 66.5016 189.484C76.7283 187.446 87.2532 186.684 97.7412 187.224C99.4183 187.25 101.082 187.483 102.679 187.916C103.761 188.239 104.736 188.777 105.522 189.484C105.603 189.811 105.695 190.133 105.776 190.442Z" fill="black"/>
<path d="M105.201 156.675C103.788 160.719 104.759 165.145 105.639 169.292C105.886 169.433 106.075 169.636 106.179 169.873C106.282 170.109 106.296 170.367 106.219 170.611C106.043 171.089 105.815 171.552 105.537 171.995C105.399 172.217 105.324 172.463 105.317 172.715C105.31 172.966 105.371 173.215 105.496 173.443C105.624 173.632 105.822 173.778 105.954 173.963C106.131 174.263 106.219 174.594 106.213 174.93C106.325 176.494 106.437 178.092 105.939 179.601C105.649 180.46 105.156 181.388 105.481 182.256C105.674 182.781 106.152 183.223 106.219 183.769C106.285 184.315 105.888 184.882 105.649 185.432C105.084 186.721 105.39 188.281 105.781 189.622C102.55 190.995 99.0297 191.817 95.4223 192.041C91.8254 192.26 88.2153 192.277 84.6158 192.093L76.4182 191.83C72.6651 191.71 68.9833 191.452 65.4083 190.49C65.0625 188.406 64.7726 186.111 66.1558 184.37C66.4229 184.091 66.6388 183.78 66.7966 183.447C67.0407 182.733 66.5067 182.007 66.3389 181.298C65.988 179.807 67.1729 178.402 68.1849 177.151C68.3407 176.984 68.4611 176.795 68.5409 176.593C68.729 176.017 68.3171 175.385 68.312 174.805C68.3078 174.638 68.3533 174.472 68.4443 174.324C68.5917 174.079 68.8765 173.894 69.0291 173.67C69.1914 173.357 69.241 173.01 69.1715 172.674C68.9816 170.511 68.6731 168.362 68.2459 166.228C68.2053 166.039 68.1646 165.841 68.1086 165.648C68.0361 165.347 67.911 165.057 67.7374 164.788C67.4984 164.44 67.1475 164.161 66.9136 163.813C66.7981 163.617 66.7379 163.402 66.7379 163.183C66.7379 162.965 66.7981 162.749 66.9136 162.554C67.1424 162.193 66.5169 161.879 66.3186 161.505C66.2334 161.214 66.2144 160.912 66.2626 160.616C66.1902 160.113 65.9622 159.636 65.6015 159.232C65.154 158.635 64.7065 158.042 64.2488 157.453C62.2147 154.786 60.0941 152.164 57.887 149.589C56.8394 148.356 55.7664 147.127 54.6832 145.915C53.8034 144.935 52.8982 143.942 52.4558 142.769C52.3775 142.566 52.3163 142.357 52.2727 142.146C52.0271 141.02 52.2179 139.856 52.8169 138.829C53.4095 137.976 54.0902 137.169 54.851 136.418C55.571 135.496 56.352 134.61 57.1903 133.762C57.6134 133.34 58.1326 132.995 58.7171 132.746C59.3016 132.497 59.9394 132.35 60.5924 132.314C61.3501 132.314 62.235 132.495 62.7588 132.035C62.952 131.872 63.0538 131.652 63.2673 131.493C63.8216 131.064 64.7319 131.352 65.3981 131.67L78.2031 137.785L80.278 138.782C80.6543 138.971 81.0408 139.16 81.4171 139.353C83.1936 140.229 84.8962 141.209 86.5127 142.284C88.8824 143.891 91.5116 145.369 93.5763 147.251C93.7746 147.427 93.9627 147.604 94.1458 147.788C94.5188 145.588 94.8917 143.385 95.2646 141.179C95.4024 140.545 95.4519 139.899 95.4121 139.254C95.3154 138.621 95.131 137.999 94.8629 137.402C94.7815 137.187 94.695 136.972 94.6137 136.758C94.1509 135.589 93.6881 134.424 93.2304 133.255C92.5541 131.536 91.832 129.762 90.3064 128.498C89.9359 128.232 89.5954 127.937 89.2893 127.617C89.2893 127.617 89.2893 127.617 89.2893 127.617C89.1447 127.458 89.0463 127.271 89.0022 127.074C88.958 126.876 88.9693 126.672 89.035 126.479L99.8211 129.323C100.33 129.461 100.838 129.594 101.347 129.753C101.944 129.973 102.502 130.263 103.005 130.613C103.816 131.158 104.446 131.872 104.834 132.684C105.222 133.497 105.353 134.381 105.217 135.249C105.11 135.821 104.876 136.362 104.734 136.925C104.484 137.944 104.098 139.117 104.622 140.062C105.146 141.007 105.639 141.841 106.112 142.731C106.521 143.408 106.861 144.114 107.129 144.841C107.423 145.833 107.542 146.857 107.48 147.879C107.416 150.159 106.95 152.418 106.096 154.582C105.776 155.266 105.456 155.962 105.201 156.675Z" fill="#FB4242"/>
<path d="M83.1919 161.797L108.766 159.765L113.236 159.339L109.127 160.568L83.1919 161.797Z" fill="#3F3D56"/>
<path d="M82.6172 162.846V161.217L109.727 160.087L111.05 161.045L82.6172 162.846Z" fill="#3F3D56"/>
<path d="M82.7037 159.748C83.2733 159.619 83.8835 159.644 84.4581 159.528C85.2057 159.378 85.877 158.991 86.6398 158.91C87.1101 158.878 87.5833 158.907 88.0433 158.996L91.5523 159.511C91.8218 159.554 92.1371 159.623 92.2337 159.842C92.2594 159.941 92.2531 160.044 92.2156 160.14C92.178 160.236 92.1105 160.321 92.0201 160.388C91.3895 160.951 90.3826 161.032 89.4774 161.08L87.0314 161.204C86.5549 161.198 86.0837 161.289 85.6583 161.471C85.4534 161.57 85.2957 161.726 85.2122 161.913C85.1287 162.099 85.1246 162.305 85.2006 162.493C85.3317 162.681 85.5266 162.831 85.76 162.923C86.7347 163.377 87.8552 163.556 88.9587 163.435C89.8503 163.291 90.7251 163.081 91.5726 162.807C93.7246 162.223 95.9957 162.02 98.2446 162.21C98.8295 162.257 99.5109 162.399 99.7194 162.863C99.7747 163.026 99.7823 163.198 99.7415 163.364C99.7008 163.531 99.6129 163.686 99.4855 163.817C98.6108 164.844 96.8716 164.878 95.4172 165.158C94.0267 165.426 92.7402 165.989 91.6794 166.795C92.0049 167.358 91.7353 168.028 91.4099 168.587C91.0418 169.233 90.6025 169.849 90.0978 170.426C89.8262 170.784 89.4449 171.074 88.9943 171.264C88.698 171.351 88.3873 171.397 88.0739 171.402C85.0352 171.553 81.986 171.409 78.9863 170.972C78.6624 170.953 78.3551 170.844 78.1116 170.662C77.9569 170.488 77.8603 170.282 77.8319 170.065C77.5217 168.776 77.2471 167.487 77.0131 166.168C76.7846 165.35 76.8775 164.492 77.2776 163.722C77.6539 163.125 78.2438 162.932 78.8439 162.528C80.1457 161.655 80.9797 160.134 82.7037 159.748Z" fill="#FBBEBE"/>
<path d="M115.733 132.873L109.387 159.472C109.335 159.673 109.341 159.88 109.403 160.079C109.465 160.277 109.583 160.459 109.745 160.611C109.908 160.763 110.111 160.881 110.338 160.953C110.565 161.026 110.809 161.051 111.05 161.028L134.987 159.043C135.317 159.018 135.628 158.903 135.874 158.715C136.12 158.528 136.287 158.278 136.349 158.003L142.213 133.384C142.261 133.194 142.258 132.997 142.204 132.807C142.149 132.618 142.044 132.442 141.897 132.292C141.751 132.142 141.565 132.022 141.356 131.941C141.146 131.86 140.918 131.82 140.687 131.824H117.244C116.886 131.822 116.54 131.926 116.264 132.117C115.988 132.309 115.8 132.576 115.733 132.873Z" fill="#3F3D56"/>
<path d="M127.643 164.539C129.169 163.727 129.601 162.085 130.298 160.697C130.857 159.679 131.499 158.696 132.22 157.754C132.83 156.894 133.441 155.867 132.957 154.96C132.576 154.382 131.946 153.95 131.198 153.753C130.523 153.479 129.76 153.399 129.026 153.525C128.203 153.714 127.592 154.29 127.038 154.836L125.065 156.77C124.22 157.696 123.203 158.501 122.054 159.155C121.332 159.494 120.568 159.766 119.776 159.967C118.362 160.362 116.928 160.71 115.479 161.002C114.646 161.14 113.832 161.353 113.053 161.638C112.897 161.687 112.754 161.762 112.631 161.858C112.509 161.953 112.411 162.069 112.341 162.197C112.278 162.519 112.368 162.85 112.591 163.117C113.099 163.903 113.664 165.506 114.706 165.785C115.699 165.993 116.711 166.126 117.732 166.185C118.749 166.275 119.517 165.931 120.417 165.609C121.552 165.244 122.764 165.08 123.977 165.128C125.014 165.11 126.825 165.235 127.643 164.539Z" fill="#FBBEBE"/>
<path d="M114.538 160.934C114.538 160.934 115.438 166.052 121.083 165.489C121.083 165.489 118.078 166.498 118.393 167.066C118.708 167.633 111.426 165.961 111.426 165.961L111.05 163.293C111.05 163.293 110.811 161.819 111.05 161.78C111.289 161.741 114.538 160.934 114.538 160.934Z" fill="#FB4242"/>
<path opacity="0.1" d="M114.595 161C114.595 161 115.495 166.118 121.14 165.555C121.14 165.555 118.134 166.565 118.45 167.132C118.765 167.699 111.483 166.028 111.483 166.028L111.106 163.359C111.106 163.359 110.867 161.885 111.106 161.847C111.345 161.808 114.595 161 114.595 161Z" fill="#FB4242"/>
<path opacity="0.1" d="M88.4502 139.546C89.0071 139.783 89.465 140.158 89.7622 140.621C90.2366 141.256 90.5949 141.949 90.8251 142.675C91.1048 143.534 91.237 144.544 92.0099 145.18" fill="black"/>
<path opacity="0.1" d="M64.7167 153.723C65.1303 154.968 64.9591 156.299 64.2386 157.44C62.2045 154.773 60.0839 152.152 57.8768 149.576C56.8292 148.343 55.7562 147.114 54.673 145.902C53.7932 144.922 52.888 143.93 52.4456 142.756C52.3673 142.553 52.3061 142.344 52.2625 142.133C52.8049 141.451 53.6186 140.956 54.5561 140.737C56.041 144.376 59.8042 146.985 62.4994 150.096C63.506 151.174 64.2587 152.405 64.7167 153.723V153.723Z" fill="black"/>
<path opacity="0.1" d="M83.675 172.364L74.7654 172.622C74.0077 172.643 73.072 172.768 72.8329 173.378C72.7617 173.572 72.7719 173.782 72.7007 173.976C72.4515 174.659 71.3683 174.74 70.5191 174.736C69.7817 174.736 69.0443 174.762 68.312 174.809C68.3078 174.642 68.3533 174.476 68.4442 174.328C68.5917 174.083 68.8765 173.898 69.0291 173.675C69.1914 173.361 69.241 173.015 69.1715 172.678C68.9816 170.515 68.6731 168.366 68.2459 166.232C68.2052 166.043 68.1646 165.845 68.1086 165.652C68.7986 165.268 69.6062 165.061 70.4326 165.059C71.1649 165.128 71.8362 165.489 72.5685 165.458C73.8398 165.403 74.7196 164.204 75.991 164.135C76.2625 164.152 76.5353 164.124 76.7945 164.053C77.1962 163.881 77.2623 163.43 77.4708 163.095C77.7759 162.597 78.6303 162.476 79.2761 162.605C79.2585 163.744 79.3452 164.881 79.5355 166.009C79.5992 166.502 79.7358 166.987 79.9423 167.452C80.1849 167.923 80.4884 168.37 80.8475 168.785C81.8036 169.988 82.7189 171.152 83.675 172.364Z" fill="black"/>
<path d="M54.0679 140.329C52.4863 140.664 51.3624 141.918 50.8996 143.242C50.4369 144.566 50.5182 145.975 50.564 147.354C50.72 152.474 50.3063 157.594 49.3283 162.648C48.8604 165.072 48.2603 167.504 48.4383 169.953C48.5349 171.281 48.896 172.652 49.9029 173.675C51.4946 175.282 54.2611 175.613 56.7428 175.531C61.1976 175.385 65.571 174.281 70.0309 174.306C70.8802 174.306 71.9582 174.225 72.2125 173.542C72.2837 173.352 72.2685 173.142 72.3447 172.949C72.5787 172.338 73.5144 172.209 74.2772 172.188L83.1868 171.934C82.2307 170.744 81.3154 169.575 80.3593 168.385C80.0016 167.969 79.6965 167.523 79.449 167.053C79.2449 166.586 79.1083 166.099 79.0422 165.605C78.8534 164.479 78.7684 163.342 78.7879 162.206C78.1421 162.081 77.2623 162.206 76.9775 162.691C76.769 163.031 76.7029 163.478 76.3063 163.649C76.0466 163.724 75.771 163.752 75.4977 163.731C74.2314 163.804 73.3516 165.02 72.0803 165.059C71.348 165.089 70.6716 164.724 69.9444 164.659C68.79 164.556 67.7577 165.201 66.7 165.596C65.8325 165.917 64.8957 166.083 63.9488 166.083C63.0018 166.083 62.0651 165.917 61.1976 165.596C60.9382 165.501 60.6483 165.226 60.8619 165.063C61.0755 164.9 61.2433 165.037 61.4162 164.969C61.7417 164.831 61.5027 164.423 61.3247 164.156C60.8162 163.387 61.1721 162.438 61.6654 161.638C62.1587 160.839 62.8045 160.087 62.8198 159.202C62.7883 158.916 62.7883 158.628 62.8198 158.342C62.9801 157.939 63.2343 157.566 63.5674 157.247C63.9948 156.663 64.2735 156.01 64.3856 155.33C64.4976 154.65 64.4407 153.958 64.2183 153.297C63.7582 151.981 63.0038 150.751 61.996 149.675C59.3211 146.581 55.5579 143.968 54.0679 140.329Z" fill="#FB4242"/>
<path opacity="0.1" d="M78.1675 137.772L80.2423 138.769C79.6063 139.018 78.9543 139.238 78.2896 139.426C73.611 140.754 75.279 142.597 70.3462 142.546C66.9847 142.516 63.1504 142.297 60.7958 144.325C59.6872 145.279 59.1278 146.585 58.5989 147.849C58.3548 148.424 58.1158 149 57.8768 149.567C56.8292 148.334 55.7562 147.105 54.673 145.893C53.7932 144.914 52.8881 143.921 52.4456 142.748C51.9637 141.444 52.093 140.033 52.8067 138.807C53.3994 137.955 54.0801 137.148 54.8408 136.397C55.5608 135.475 56.3418 134.588 57.1801 133.741C57.6032 133.319 58.1224 132.973 58.7069 132.725C59.2914 132.476 59.9292 132.329 60.5822 132.293C61.34 132.293 62.2248 132.473 62.7486 132.013C62.9419 131.85 63.0436 131.631 63.2572 131.472C63.8115 131.042 64.7217 131.33 65.3879 131.648L78.1675 137.772Z" fill="black"/>
<path d="M90.5454 104.928C90.477 104.413 90.3265 103.909 90.0979 103.428C89.8786 103.058 89.5997 102.715 89.2689 102.41C88.1909 101.383 86.8698 100.56 85.391 99.9918C83.9123 99.424 82.309 99.125 80.6848 99.1141C80.4021 99.0985 80.1188 99.1367 79.8559 99.2258C79.7903 99.2506 79.7288 99.2823 79.6728 99.3203C77.3284 97.9839 74.5874 96.6733 72.0447 96.1533C70.2807 95.8034 68.4422 95.8241 66.6898 96.2135C64.559 96.7549 63.8166 98.1902 62.9114 99.7587C61.4552 102.281 59.2403 104.436 56.4885 106.007C54.7188 107.017 52.6185 107.885 51.7693 109.539C50.976 111.082 51.515 112.852 51.7032 114.528C51.9235 116.793 51.4784 119.068 50.4076 121.152C49.3368 123.236 47.6734 125.064 45.5651 126.474C43.1445 128.06 39.9152 129.384 39.4016 131.932C39.0355 133.745 40.2407 135.486 41.151 137.157C43.0783 140.689 43.7394 145.004 41.4764 148.39C40.8306 149.353 39.9508 150.234 39.6203 151.299C39.0151 153.194 40.3017 155.253 42.2189 156.353C44.1361 157.453 46.5517 157.754 48.8706 157.745C50.5589 157.745 52.3846 157.53 53.5797 156.529C54.3223 155.806 54.8628 154.951 55.1612 154.028C56.1376 151.693 57.1157 149.36 58.0955 147.028C58.604 145.764 59.1838 144.449 60.2924 143.504C62.6418 141.476 66.4813 141.691 69.8377 141.725C74.7756 141.777 73.1076 139.937 77.781 138.605C80.5271 137.823 83.5123 136.491 84.153 134.102C84.7938 131.713 82.8919 129.547 81.2289 127.613C79.9813 126.181 78.8049 124.698 77.6997 123.165C76.6165 121.687 75.5841 120.127 75.2841 118.408C74.7756 115.551 82.9885 113.957 84.2191 111.262C84.5704 110.502 84.8659 109.724 85.104 108.933C85.6939 108.894 86.238 108.847 86.6296 108.834C88.201 108.774 89.9656 108.254 90.5047 107.008C90.7243 106.329 90.7383 105.613 90.5454 104.928V104.928Z" fill="#3F3D56"/>
<g opacity="0.1">
<path opacity="0.1" d="M76.7385 98.2761C77.0027 98.1912 77.2853 98.1546 77.5674 98.1687H77.6844C75.9497 97.2446 74.0654 96.5382 72.0905 96.0717L71.6175 95.99C73.3489 96.6632 75.0093 97.4597 76.5809 98.3707C76.63 98.3353 76.6828 98.3037 76.7385 98.2761V98.2761Z" fill="black"/>
<path opacity="0.1" d="M90.5454 104.847C90.477 104.332 90.3265 103.827 90.0979 103.347C89.8799 102.976 89.6008 102.633 89.2689 102.328C87.5302 100.674 85.1809 99.5637 82.602 99.1786C83.9554 99.7347 85.1653 100.512 86.1618 101.465C86.4957 101.766 86.7751 102.108 86.9907 102.479C87.2234 102.96 87.3741 103.466 87.4382 103.983C87.6344 104.667 87.6239 105.382 87.4077 106.063C86.8737 107.309 85.104 107.829 83.5377 107.885C83.1563 107.885 82.6071 107.949 82.0121 107.984C81.7747 108.776 81.4792 109.555 81.1272 110.317C79.8966 113.007 71.6989 114.614 72.1973 117.463C72.4922 119.182 73.5297 120.742 74.6078 122.22C75.6859 123.698 76.8962 125.228 78.137 126.668C79.7999 128.601 81.6968 130.823 81.0611 133.156C80.4254 135.49 77.4403 136.878 74.6942 137.66C70.0157 138.992 71.6837 140.831 66.7508 140.78C63.3894 140.745 59.5499 140.53 57.2005 142.559C56.0918 143.513 55.5325 144.819 55.0036 146.082L52.0693 153.083C51.7699 154.005 51.2314 154.859 50.4928 155.584C49.2927 156.585 47.467 156.791 45.7838 156.795C44.8251 156.804 43.8672 156.744 42.9207 156.615C44.7107 157.436 46.8415 157.672 48.896 157.663C50.5844 157.663 52.41 157.448 53.6051 156.447C54.3477 155.724 54.8883 154.87 55.1867 153.946C56.163 151.614 57.1411 149.281 58.1209 146.946C58.6295 145.683 59.2092 144.368 60.3178 143.422C62.6673 141.394 66.5067 141.609 69.8631 141.643C74.801 141.695 73.133 139.856 77.8065 138.524C80.5526 137.742 83.5377 136.409 84.1785 134.02C84.8192 131.631 82.9173 129.465 81.2544 127.531C80.0067 126.099 78.8303 124.617 77.7251 123.084C76.6419 121.606 75.6096 120.046 75.3095 118.327C74.801 115.469 83.0139 113.875 84.2446 111.181C84.5958 110.42 84.8913 109.643 85.1294 108.852C85.7193 108.813 86.2635 108.766 86.655 108.753C88.2264 108.693 89.9911 108.173 90.5301 106.926C90.7413 106.245 90.7466 105.53 90.5454 104.847V104.847Z" fill="black"/>
</g>
<defs>
<linearGradient id="paint0_linear" x1="275.018" y1="271.354" x2="275.018" y2="42.1548" gradientUnits="userSpaceOnUse">
<stop stop-color="#808080" stop-opacity="0.25"/>
<stop offset="0.54" stop-color="#808080" stop-opacity="0.12"/>
<stop offset="1" stop-color="#808080" stop-opacity="0.1"/>
</linearGradient>
<linearGradient id="paint1_linear" x1="-2245.14" y1="904.452" x2="-2231.55" y2="904.452" gradientUnits="userSpaceOnUse">
<stop stop-color="#808080" stop-opacity="0.25"/>
<stop offset="0.54" stop-color="#808080" stop-opacity="0.12"/>
<stop offset="1" stop-color="#808080" stop-opacity="0.1"/>
</linearGradient>
<linearGradient id="paint2_linear" x1="87580.2" y1="172613" x2="87580.2" y2="63609.6" gradientUnits="userSpaceOnUse">
<stop stop-color="#808080" stop-opacity="0.25"/>
<stop offset="0.54" stop-color="#808080" stop-opacity="0.12"/>
<stop offset="1" stop-color="#808080" stop-opacity="0.1"/>
</linearGradient>
</defs>
</svg>
