<svg width="150" height="65" viewBox="0 0 150 65" fill="none" xmlns="http://www.w3.org/2000/svg">
<g clip-path="url(#clip0)">
<path opacity="0.1" d="M63.8141 2.88206C57.7167 1.22499 51.2735 -0.159206 44.696 0.0148065C35.0249 0.269893 25.7412 4.15849 21.1948 9.86828C17.3374 14.706 16.8615 20.3763 15.1998 25.745C13.1549 32.3584 9.23111 38.6457 5.04168 44.7925C2.792 48.0947 0.417803 51.4682 0.0483914 55.0879C-0.463527 60.1135 3.12959 65.1213 8.76485 68.4641C14.4001 71.807 21.8838 73.5708 29.3952 73.9554C33.3923 74.1601 37.5693 73.9702 41.1195 72.7264C44.8759 71.4105 47.614 69.0326 51.3855 67.7355C54.8804 66.5332 58.9689 66.3651 62.8927 66.5213C68.0158 66.7252 73.0731 67.4442 77.9154 68.6569C83.3998 70.0332 88.4997 72.0274 93.9647 73.4235C99.4298 74.8196 105.551 75.5987 111.143 74.434C116.401 73.3395 120.551 70.6818 124.294 67.9905C130.413 63.5979 136.022 58.8565 141.065 53.8134C144.443 50.4311 147.586 46.8628 149.079 42.9208C151.935 35.3839 148.005 26.881 139.29 21.7338C132.069 17.4695 122.379 15.6186 112.893 14.4954C104.243 13.4711 94.2415 13.4079 86.279 10.7383C78.686 8.18945 71.7765 5.04734 63.8141 2.88206Z" fill="#FB4242"/>
<path d="M87.522 53.0406V56.1536H88.9512L88.6745 52.8118L87.522 53.0406Z" fill="#AAABB0"/>
<path d="M66.0532 52.4125V55.5255H67.4838L67.2071 52.1837L66.0532 52.4125Z" fill="#AAABB0"/>
<path d="M91.0267 47.8428C91.0267 47.5271 90.6138 47.2712 90.1045 47.2712C89.5952 47.2712 89.1824 47.5271 89.1824 47.8428V52.2411C89.1824 52.5568 89.5952 52.8127 90.1045 52.8127C90.6138 52.8127 91.0267 52.5568 91.0267 52.2411V47.8428Z" fill="#AAABB0"/>
<path d="M67.3675 46.614C67.3675 46.2984 66.9546 46.0425 66.4454 46.0425C65.9361 46.0425 65.5232 46.2984 65.5232 46.614V52.2403C65.5232 52.5559 65.9361 52.8118 66.4454 52.8118C66.9546 52.8118 67.3675 52.5559 67.3675 52.2403V46.614Z" fill="#AAABB0"/>
<path d="M93.3801 14.1102C93.3801 14.1102 95.2244 13.6243 95.5011 14.1102C95.7778 14.596 95.9162 18.7947 95.9162 18.7947H94.1632L93.3801 14.1102Z" fill="#AAABB0"/>
<path d="M73.1799 14.1102C73.1799 14.1102 71.3342 13.6243 71.0575 14.1102C70.7808 14.596 70.6425 18.7947 70.6425 18.7947H72.3954L73.1799 14.1102Z" fill="#AAABB0"/>
<path d="M72.3955 18.7947L72.7649 13.7674C72.7649 13.7674 72.6266 12.6535 77.007 12.9962C81.3873 13.339 94.2103 14.0245 94.2103 14.0245V18.7947H72.3955Z" fill="#33323D"/>
<path d="M89.9211 45.2721L89.2293 52.9549C89.2293 52.9549 79.0822 56.4398 66.7684 53.1263L67.8753 45.0434L89.9211 45.2721Z" fill="#33323D"/>
<path d="M80.2817 15.0236L80.5114 19.9935H94.8092L93.9791 13.4247L80.2817 15.0236Z" fill="#444053"/>
<path d="M81.7345 41.9869H68.2668V52.5548H81.7345V41.9869Z" fill="#4C4981"/>
<path d="M76.7771 46.3004C76.7771 46.3004 78.7141 45.3578 79.0365 45.6432C79.3589 45.9285 77.8854 47.1573 77.2849 47.0142C76.6844 46.8711 76.7771 46.3004 76.7771 46.3004Z" fill="#FFB9B9"/>
<path d="M130.537 18.5085H42.1312V45.9285H130.537V18.5085Z" fill="#504F60"/>
<path d="M72.4411 9.7401C72.4411 9.7401 71.7493 5.74107 72.4411 5.25607C73.1329 4.77108 84.7549 0.171374 95.5011 5.56969C95.5011 5.56969 96.5153 5.59882 96.3313 7.02638C96.2228 7.92989 96.2302 8.83731 96.3534 9.7401C96.3534 9.7401 73.2256 10.7684 72.4411 9.7401Z" fill="#33323D"/>
<path opacity="0.1" d="M72.4411 9.7401C72.4411 9.7401 71.7493 5.74107 72.4411 5.25607C73.1329 4.77108 84.7549 0.171374 95.5011 5.56969C95.5011 5.56969 96.5153 5.59882 96.3313 7.02638C96.2228 7.92989 96.2302 8.83731 96.3534 9.7401C96.3534 9.7401 73.2256 10.7684 72.4411 9.7401Z" fill="black"/>
<path d="M72.4411 10.2542C72.4411 10.2542 71.7493 6.25519 72.4411 5.7702C73.1329 5.28521 84.7549 0.685504 95.5011 6.08382C95.5011 6.08382 96.5153 6.11295 96.3313 7.54051C96.2228 8.44402 96.2302 9.35144 96.3534 10.2542C96.3534 10.2542 73.2256 11.2825 72.4411 10.2542Z" fill="#33323D"/>
<path d="M96.7464 8.42651C96.7464 8.42651 97.4838 10.1403 97.2541 10.4256C97.0245 10.7109 97.066 11.5113 97.066 11.5113C97.066 11.5113 97.1158 12.0254 96.7464 12.0819C96.3769 12.1385 96.0546 12.1676 96.3534 12.339C96.6523 12.5104 96.3534 12.7674 96.3534 12.7674C96.3534 12.7674 96.1915 13.1676 96.3534 13.4247C96.5153 13.6817 95.4071 13.7888 95.5011 14.1102C95.5952 14.4315 95.9051 15.3381 95.5011 15.3672C95.0971 15.3963 95.6395 16.5094 95.2756 16.5094C94.9117 16.5094 94.653 18.5085 94.653 18.5085C94.653 18.5085 92.0934 17.1666 90.3875 17.5377C90.3875 17.5377 90.5258 16.4237 91.0792 16.0236C91.6327 15.6234 91.4653 14.596 91.4653 14.596L94.2103 9.48304L96.7464 8.42651Z" fill="#4C4981"/>
<path d="M83.0489 32.0574C82.4498 32.4679 81.8037 30.276 81.8037 30.276C81.8037 30.276 80.0977 31.7327 78.9909 30.7618C78.2244 30.0892 78.829 28.1835 79.2676 27.0773C79.4641 26.5854 79.6301 26.2512 79.6301 26.2512L82.1205 25.9942C82.1205 25.9942 82.1288 26.3301 82.1841 26.7379C82.2589 27.2889 82.4207 27.9727 82.7652 28.1364C83.3726 28.42 83.6493 31.6435 83.0489 32.0574Z" fill="#AE6E79"/>
<path opacity="0.1" d="M81.7581 6.39827C81.7581 6.39827 77.422 6.37 76.3622 7.79755C75.3023 9.22511 75.2553 9.71181 74.8402 9.93974C74.4252 10.1677 79.359 11.3682 79.359 11.3682L79.59 16.2806C79.59 16.2806 80.5585 15.6731 82.1261 15.9482C83.6937 16.2232 85.6777 15.9482 85.6777 15.9482C85.6777 15.9482 85.585 15.8445 86.8773 15.9482C88.1696 16.0518 92.2732 14.71 92.2732 14.71C92.2732 14.71 92.341 12.5609 92.2497 12.1034C92.1584 11.6458 95.1774 8.2834 95.1774 8.2834C95.1774 8.2834 97.5294 6.88412 95.086 6.39827C95.086 6.39827 94.2213 5.5911 91.9965 5.59881C89.7717 5.60652 81.7581 6.39827 81.7581 6.39827Z" fill="black"/>
<path d="M81.7581 6.31261C81.7581 6.31261 77.422 6.28434 76.3622 7.71189C75.3023 9.13944 75.2553 9.62615 74.8402 9.85408C74.4252 10.082 79.359 11.2825 79.359 11.2825L79.59 16.195C79.59 16.195 80.5585 15.5874 82.1261 15.8625C83.6937 16.1375 85.6777 15.8625 85.6777 15.8625C85.6777 15.8625 85.5851 15.7588 86.8773 15.8625C88.1696 15.9662 92.2732 14.6243 92.2732 14.6243C92.2732 14.6243 93.8865 12.9962 93.7952 12.5395C93.7039 12.0828 97.023 8.62618 97.023 8.62618C97.023 8.62618 97.5308 6.79846 95.086 6.31261C95.086 6.31261 94.2213 5.50544 91.9965 5.51315C89.7717 5.52086 81.7581 6.31261 81.7581 6.31261Z" fill="#4C4981"/>
<path opacity="0.1" d="M82.1953 26.7354C81.2447 26.552 79.7533 26.9564 79.2787 27.0781C79.4752 26.5863 79.6412 26.2521 79.6412 26.2521L82.1316 25.995C82.1316 25.995 82.1358 26.3309 82.1953 26.7354Z" fill="black"/>
<path d="M76.1767 9.85406H74.8401C74.8401 9.85406 74.5634 11.5969 74.8401 12.1111C75.1169 12.6252 75.2552 12.5507 75.1625 12.9311C75.0698 13.3116 75.8087 13.8942 75.8087 13.8942C75.8087 13.8942 75.9 15.3304 76.3621 15.865C76.8242 16.3997 75.8543 18.7973 75.8543 18.7973C76.1188 19.2112 76.5102 19.5894 77.0068 19.9112C77.7913 20.3962 78.2064 22.1956 77.9753 22.8811C77.7443 23.5666 78.6215 23.8237 78.6215 23.8237C78.6215 23.8237 78.9909 27.0233 79.1292 27.0233C79.2676 27.0233 81.942 26.1664 82.7722 26.9085L82.1261 23.9668L82.1731 18.2831C82.1731 18.2831 81.2959 17.5685 81.758 16.9404C82.2201 16.3123 81.3886 14.8265 81.3886 14.8265L80.189 11.5138L76.1767 9.85406Z" fill="#4C4981"/>
<path d="M67.8754 55.0114C67.8754 55.0114 65.9384 54.7543 65.8927 55.0114C65.847 55.2685 63.5863 57.8965 66.4005 58.6677C69.2147 59.4389 76.7302 61.0952 88.9527 58.953C88.9527 58.953 89.7358 59.1244 89.5518 58.0679C89.3677 57.0113 89.3678 55.84 89.3678 55.84C89.3678 55.84 87.5221 55.5255 86.1385 55.6403C84.7549 55.7552 72.7179 57.2684 67.8754 55.0114Z" fill="#33323D"/>
<path opacity="0.1" d="M67.8754 55.0114C67.8754 55.0114 65.9384 54.7543 65.8927 55.0114C65.847 55.2685 63.5863 57.8965 66.4005 58.6677C69.2147 59.4389 76.7302 61.0952 88.9527 58.953C88.9527 58.953 89.7358 59.1244 89.5518 58.0679C89.3677 57.0113 89.3678 55.84 89.3678 55.84C89.3678 55.84 87.5221 55.5255 86.1385 55.6403C84.7549 55.7552 72.7179 57.2684 67.8754 55.0114Z" fill="black"/>
<path d="M67.8754 54.6687C67.8754 54.6687 65.9384 54.4116 65.8927 54.6687C65.847 54.9257 63.5863 57.5538 66.4005 58.3249C69.2147 59.0961 76.7302 60.7525 88.9527 58.6103C88.9527 58.6103 89.7358 58.7817 89.5518 57.7251C89.3677 56.6686 89.3678 55.4973 89.3678 55.4973C89.3678 55.4973 87.5221 55.1828 86.1385 55.2976C84.7549 55.4124 72.7179 56.9257 67.8754 54.6687Z" fill="#33323D"/>
<path d="M79.1708 10.8806C79.0518 11.2996 78.782 11.7023 78.7405 12.1265C78.699 12.5507 78.9633 13.0331 79.5956 13.1993C79.772 13.232 79.943 13.275 80.1061 13.3278C80.3496 13.4298 80.4492 13.6217 80.5004 13.8017C80.5684 14.034 80.5847 14.271 80.5489 14.506C80.5143 14.7425 80.4326 14.997 80.6208 15.2035C80.9515 15.5694 81.8134 15.5154 82.4693 15.4126L82.2437 16.4948C82.2257 16.5805 82.2147 16.6774 82.3157 16.7356C82.3634 16.7565 82.4174 16.7711 82.4744 16.7788C82.5314 16.7864 82.5904 16.7869 82.6477 16.7802C83.2178 16.7579 83.8044 16.7091 84.2928 16.5231C84.7812 16.3372 85.1451 15.991 85.0524 15.6423C84.9445 15.2378 84.2693 14.9165 84.3606 14.5103C84.4312 14.1959 84.9279 13.9962 85.2544 13.7546C85.8452 13.3124 85.877 12.6406 85.4135 12.1402C84.95 11.6398 84.0548 11.3296 83.1334 11.2731C82.6228 11.2413 82.0915 11.2799 81.6114 11.1702C81.4444 11.1323 81.2938 11.0709 81.1714 10.991C81.049 10.911 80.9581 10.8146 80.9058 10.7092" fill="#444053"/>
<path d="M63.0798 48.985L63.5627 48.3338C63.5627 48.3338 66.1693 46.83 66.7684 46.7246C67.3675 46.6192 69.8123 46.1599 70.1817 46.1599C70.5511 46.1599 77.285 45.9311 77.285 45.9311L78.0681 47.0742L69.6172 48.2232L66.7684 49.5085L63.0798 48.985Z" fill="#767D9F"/>
<path d="M83.3837 31.4473L82.9424 33.551L82.7722 34.3607L80.7895 34.5321C80.7895 34.5321 80.5751 34.2476 80.2721 33.8106C79.352 32.4842 77.6198 29.749 78.6242 29.2769C79.9594 28.6479 80.2845 30.7336 80.2845 30.7336L81.8064 30.276L83.3837 31.4473Z" fill="#FFB9B9"/>
<path d="M83.0531 35.3607H73.0402V44.7289H83.0531V35.3607Z" fill="white"/>
<path opacity="0.1" d="M83.0531 35.3607H73.0402V44.7289H83.0531V35.3607Z" fill="black"/>
<path d="M87.5533 35.8679L77.6481 34.961L75.4357 44.2284L85.341 45.1354L87.5533 35.8679Z" fill="white"/>
<path d="M83.6789 36.3116L78.5806 35.8448L77.4419 40.6146L82.5403 41.0814L83.6789 36.3116Z" fill="#FB4242"/>
<path d="M83.0723 42.5375L76.8954 41.972L76.6481 43.0078L82.825 43.5734L83.0723 42.5375Z" fill="#FB4242"/>
<path opacity="0.1" d="M85.6776 11.7246C88.874 11.7246 91.4651 10.1199 91.4651 8.14031C91.4651 6.16075 88.874 4.556 85.6776 4.556C82.4813 4.556 79.8901 6.16075 79.8901 8.14031C79.8901 10.1199 82.4813 11.7246 85.6776 11.7246Z" fill="black"/>
<path d="M85.6776 11.639C88.874 11.639 91.4651 10.0342 91.4651 8.05465C91.4651 6.07509 88.874 4.47034 85.6776 4.47034C82.4813 4.47034 79.8901 6.07509 79.8901 8.05465C79.8901 10.0342 82.4813 11.639 85.6776 11.639Z" fill="#AE6E79"/>
<path d="M80.9057 10.7109C80.8664 10.6186 80.8806 10.5207 80.9459 10.4342C81.1659 10.1505 81.7926 10.1257 82.3004 10.1403C83.4944 10.1745 84.8046 10.1788 85.7386 9.71182C86.126 9.51988 86.559 9.03746 87.1221 9.12914C87.623 9.21055 87.8319 9.63127 88.3535 9.72467C88.7312 9.79236 89.1228 9.6844 89.5074 9.63898C90.0608 9.57129 90.6281 9.62784 91.1898 9.63041C91.7516 9.63299 92.3617 9.56701 92.745 9.31251C93.2624 8.96976 93.178 8.43422 93.1324 7.96465C93.0756 7.35809 93.1421 6.74952 93.3302 6.15321C93.5184 5.56026 93.8075 4.89704 93.279 4.38891C92.7754 3.90477 91.7322 3.77196 91.0197 3.40093C90.3528 3.05818 90 2.50892 89.2957 2.19102C88.4089 1.79086 87.2038 1.84827 86.1135 1.91768L83.7476 2.07363C83.1374 2.1139 82.5024 2.15932 82.0002 2.38468C81.0939 2.79084 80.9694 3.63486 80.1116 4.07958C79.7297 4.27666 79.2413 4.37434 78.8055 4.52172C78.3697 4.66911 77.9491 4.90218 77.8992 5.20722C77.8577 5.46429 78.0819 5.70164 78.1912 5.94928C78.4499 6.54052 78.0459 7.1489 77.7872 7.74443C77.5284 8.33996 77.4786 9.06316 78.2299 9.45818C78.3821 9.53873 78.5592 9.60042 78.7072 9.6844C79.215 9.97145 79.2842 10.4556 79.1666 10.8737" fill="#444053"/>
<path d="M86.1496 12.5318C86.226 12.5318 86.2879 12.4359 86.2879 12.3176C86.2879 12.1993 86.226 12.1034 86.1496 12.1034C86.0732 12.1034 86.0112 12.1993 86.0112 12.3176C86.0112 12.4359 86.0732 12.5318 86.1496 12.5318Z" fill="#444053"/>
<path d="M86.1496 13.4247C86.226 13.4247 86.2879 13.3288 86.2879 13.2105C86.2879 13.0922 86.226 12.9962 86.1496 12.9962C86.0732 12.9962 86.0112 13.0922 86.0112 13.2105C86.0112 13.3288 86.0732 13.4247 86.1496 13.4247Z" fill="#444053"/>
<path d="M83.0807 32.0514C83.2288 31.946 83.327 31.6753 83.3837 31.3179L81.7345 30.0446C81.7345 30.0446 82.4332 32.5133 83.0807 32.0514Z" fill="#AE6E79"/>
<path opacity="0.1" d="M84.9403 53.098C84.9403 53.098 82.234 55.6892 73.779 55.4115C65.8137 55.1545 61.9259 52.727 62.1113 51.8701C62.2967 51.0132 61.6035 48.9276 63.3095 48.3278C64.2987 47.9807 65.6007 48.1864 66.5194 48.4211C66.8368 48.501 67.1842 48.5235 67.5214 48.486C67.8586 48.4486 68.1717 48.3527 68.4245 48.2095C69.2644 47.7408 70.8306 47.213 73.303 47.6285C73.6212 47.6811 73.9568 47.6772 74.2715 47.6174C75.3009 47.4229 77.7512 47.0853 79.5291 47.835C79.8101 47.955 80.1404 48.023 80.4814 48.031C80.8224 48.039 81.1601 47.9868 81.455 47.8805L81.4799 47.871C82.3101 47.5566 86.1841 50.5274 86.1841 50.5274C86.1841 50.5274 86.3695 52.8126 84.9403 53.098Z" fill="black"/>
<path d="M84.9403 53.1837C84.9403 53.1837 82.234 55.7749 73.779 55.4973C65.8137 55.2402 61.9259 52.8127 62.1113 51.9558C62.2967 51.0989 61.6035 49.0133 63.3095 48.4135C64.2987 48.0664 65.6007 48.2721 66.5194 48.5069C66.8368 48.5867 67.1842 48.6092 67.5214 48.5717C67.8586 48.5343 68.1717 48.4384 68.4245 48.2952C69.2644 47.8265 70.8306 47.2987 73.303 47.7143C73.6212 47.7668 73.9568 47.763 74.2715 47.7031C75.3009 47.5086 77.7512 47.171 79.5291 47.9208C79.8101 48.0407 80.1404 48.1087 80.4814 48.1167C80.8224 48.1248 81.1601 48.0726 81.455 47.9662L81.4799 47.9568C82.3101 47.6423 86.1841 50.6131 86.1841 50.6131C86.1841 50.6131 86.3695 52.8984 84.9403 53.1837Z" fill="#767D9F"/>
<path opacity="0.1" d="M73.779 54.1982C76.8233 54.1982 79.2911 52.6698 79.2911 50.7844C79.2911 48.899 76.8233 47.3706 73.779 47.3706C70.7347 47.3706 68.2668 48.899 68.2668 50.7844C68.2668 52.6698 70.7347 54.1982 73.779 54.1982Z" fill="black"/>
<path d="M73.779 54.2839C76.8233 54.2839 79.2911 52.7555 79.2911 50.8701C79.2911 48.9847 76.8233 47.4563 73.779 47.4563C70.7347 47.4563 68.2668 48.9847 68.2668 50.8701C68.2668 52.7555 70.7347 54.2839 73.779 54.2839Z" fill="#FFB9B9"/>
<path d="M72.199 47.919C71.6206 48.0159 71.0506 48.201 70.7684 48.5051C70.5982 48.6885 70.5387 48.9087 70.2924 49.0613C69.9437 49.2781 69.3557 49.2823 68.8839 49.404C68.4121 49.5257 68.1008 49.9541 68.5629 50.0895C68.0814 50.1049 67.7245 50.38 67.665 50.6533C67.6055 50.9267 67.7729 51.1992 67.9348 51.4597C68.4633 52.3028 69.032 53.1828 70.1969 53.7826C72.0952 54.7612 74.9564 54.7158 77.5064 54.6121C77.7147 54.6164 77.9212 54.5868 78.1055 54.5264C78.3822 54.4133 78.4168 54.1965 78.4624 54.0063C78.6547 53.194 79.3659 52.4562 79.8308 51.6807C80.2956 50.9053 80.4866 49.9944 79.7035 49.308C78.551 48.2901 74.1387 47.5934 72.199 47.919Z" fill="#B96B6B"/>
<path opacity="0.1" d="M82.9424 33.551L82.7722 34.3607L80.7896 34.5321C80.7896 34.5321 80.5751 34.2476 80.2721 33.8106L82.9106 33.5038L82.9424 33.551Z" fill="black"/>
<path d="M85.0316 51.4417L86.1855 50.6131L85.9545 46.0434C86.0681 45.7137 86.1453 45.3796 86.1855 45.0434C86.2312 44.5575 85.6086 43.4727 85.6086 43.4727C85.7051 43.2556 85.8363 43.0449 86.0001 42.8438C86.2768 42.501 85.6099 41.7299 85.6099 41.7299C85.6099 41.7299 84.6165 39.7308 85.0316 38.7308C85.4467 37.7308 84.9306 37.1601 84.9306 37.1601C84.9306 37.1601 84.5252 36.0462 84.5709 35.5895C84.6165 35.1328 83.648 34.7035 83.648 34.7035L82.9106 33.5895L79.9594 33.9323V37.7882C79.9594 37.7882 80.1434 41.4728 79.9594 42.1874C79.7754 42.9021 80.3275 43.5867 80.3275 43.5867C80.3275 43.5867 80.0051 44.6432 80.2818 45.0434C80.5585 45.4435 81.1119 46.4144 81.1119 46.4144C81.0092 46.7614 81.041 47.1185 81.2046 47.4563C81.4814 47.9568 81.2046 48.2421 81.2046 48.2421L85.0316 51.4417Z" fill="#767D9F"/>
<g opacity="0.1">
<path opacity="0.1" d="M93.3344 5.87131C93.1784 6.3729 93.1083 6.88328 93.1254 7.39398C93.1373 6.96933 93.2091 6.54614 93.3399 6.12923C93.4617 5.74878 93.6166 5.33919 93.5834 4.95959C93.5324 5.26652 93.4492 5.57107 93.3344 5.87131Z" fill="black"/>
<path opacity="0.1" d="M78.7114 9.4085C78.5634 9.32281 78.3863 9.26283 78.2341 9.18143C77.8301 8.96807 77.6599 8.65874 77.6267 8.32455C77.5865 8.75299 77.7277 9.16772 78.2341 9.43849C78.3863 9.5199 78.5634 9.58159 78.7114 9.66556C79.0209 9.85523 79.2003 10.1115 79.2122 10.3811C79.2524 10.0212 79.1348 9.64671 78.7114 9.4085Z" fill="black"/>
<path opacity="0.1" d="M78.2701 6.20892C78.2943 6.02794 78.269 5.84573 78.1954 5.66995C78.1151 5.48658 77.9712 5.30749 77.9187 5.12326C77.9187 5.14297 77.9076 5.16353 77.9034 5.18496C77.8633 5.44202 78.0874 5.67937 78.1954 5.92701C78.2351 6.01924 78.2601 6.11366 78.2701 6.20892Z" fill="black"/>
<path opacity="0.1" d="M92.7491 9.03063C92.3659 9.28769 91.7557 9.3511 91.194 9.34853C90.6323 9.34596 90.0636 9.28941 89.5116 9.35796C89.1269 9.40594 88.7354 9.51305 88.3577 9.44364C87.8361 9.35024 87.6271 8.92952 87.1277 8.84812C86.559 8.75557 86.126 9.23799 85.7441 9.42993C84.8102 9.89265 83.4999 9.88836 82.3059 9.85837C81.7981 9.8438 81.1714 9.86865 80.9528 10.1531C80.8861 10.2394 80.8718 10.3377 80.9127 10.4299L79.2219 10.5944C79.2155 10.6806 79.2003 10.7665 79.1763 10.8515L80.9127 10.6801C80.8718 10.5879 80.8861 10.4896 80.9528 10.4033C81.1714 10.1189 81.7981 10.094 82.3059 10.1086C83.4999 10.1429 84.8102 10.1471 85.7441 9.68014C86.1315 9.4882 86.5646 9.00578 87.1277 9.09832C87.6271 9.17887 87.8361 9.60045 88.3577 9.69385C88.7354 9.76069 89.1269 9.65358 89.5116 9.60816C90.065 9.53961 90.6323 9.59617 91.194 9.59874C91.7557 9.60131 92.3659 9.53533 92.7491 9.28084C93.1324 9.02635 93.1877 8.64675 93.1642 8.27658C93.1476 8.56363 93.0521 8.82927 92.7491 9.03063Z" fill="black"/>
</g>
<g opacity="0.1">
<path opacity="0.1" d="M79.9415 13.1462C79.7786 13.093 79.6076 13.05 79.431 13.0177C79.1307 12.9332 78.8923 12.7822 78.7627 12.5944C78.8665 12.89 79.1293 13.159 79.5693 13.2747C79.7459 13.3071 79.9169 13.3501 80.0799 13.4033C80.184 13.4488 80.2682 13.5098 80.3247 13.5806C80.2694 13.4127 80.1684 13.2413 79.9415 13.1462Z" fill="black"/>
<path opacity="0.1" d="M82.3047 15.231C81.6668 15.3312 80.8339 15.3835 80.4839 15.0485C80.4948 15.1292 80.5325 15.2077 80.5946 15.279C80.8934 15.6089 81.6239 15.5977 82.2452 15.5163L82.3047 15.231Z" fill="black"/>
<path opacity="0.1" d="M84.8891 15.4658C84.9776 15.8137 84.6124 16.1607 84.1281 16.3432C83.6439 16.5257 83.0531 16.5763 82.4831 16.6003C82.3924 16.6075 82.3003 16.6011 82.2146 16.5814C82.1887 16.6176 82.1803 16.6578 82.1905 16.6969C82.2008 16.736 82.2292 16.7724 82.2724 16.8017C82.3156 16.831 82.3715 16.8518 82.4335 16.8617C82.4955 16.8716 82.5608 16.8701 82.6214 16.8573C83.1914 16.835 83.7781 16.7862 84.2665 16.6003C84.7549 16.4143 85.1201 16.0681 85.0261 15.7194C84.9995 15.6313 84.9534 15.546 84.8891 15.4658Z" fill="black"/>
<path opacity="0.1" d="M85.5035 12.3639C85.588 12.5722 85.5945 12.7897 85.5226 12.9999C85.4506 13.21 85.3021 13.4072 85.0884 13.5763C84.7619 13.8214 84.2652 14.0176 84.1947 14.3321C84.1711 14.4767 84.2194 14.6223 84.333 14.7494C84.3205 14.6963 84.3205 14.6423 84.333 14.5892C84.4036 14.2747 84.9003 14.075 85.2268 13.8334C85.7636 13.4315 85.8384 12.8394 85.5035 12.3639Z" fill="black"/>
</g>
<g opacity="0.1">
<path opacity="0.1" d="M68.8853 49.536C69.3558 49.4151 69.9438 49.4109 70.2938 49.1932C70.5401 49.0407 70.5996 48.8205 70.7698 48.638C71.0465 48.3329 71.6207 48.1487 72.199 48.0519C74.136 47.7262 78.5524 48.422 79.7035 49.4306C80.0409 49.7357 80.2248 50.0959 80.232 50.4657C80.2764 50.0388 80.091 49.6148 79.7049 49.2601C78.5537 48.2515 74.1415 47.5557 72.2004 47.8813C71.622 47.9782 71.052 48.1624 70.7711 48.4674C70.601 48.65 70.5415 48.8702 70.2952 49.0227C69.9452 49.2395 69.3571 49.2438 68.8867 49.3654C68.5284 49.4571 68.2627 49.7279 68.3596 49.9096C68.3982 49.8274 68.4652 49.7514 68.556 49.6869C68.6468 49.6224 68.7592 49.5709 68.8853 49.536Z" fill="black"/>
<path opacity="0.1" d="M67.6677 50.781C67.7258 50.5068 68.0828 50.2326 68.5657 50.2172C68.515 50.2041 68.4696 50.1841 68.433 50.1588C68.3964 50.1334 68.3694 50.1033 68.354 50.0706C68.1703 50.1129 68.0088 50.1855 67.8869 50.2805C67.7649 50.3754 67.6873 50.4893 67.6622 50.6096C67.6491 50.6794 67.6491 50.7498 67.6622 50.8196C67.6677 50.8067 67.6677 50.7939 67.6677 50.781Z" fill="black"/>
</g>
<path d="M96.976 19.7287H84.3855V29.8972H96.976V19.7287Z" fill="white"/>
<path opacity="0.1" d="M96.976 19.7287H84.3855V29.8972H96.976V19.7287Z" fill="black"/>
<path d="M101.786 20.3253L89.3782 21.6471L92.1615 31.6685L104.57 30.3466L101.786 20.3253Z" fill="white"/>
<path d="M95.3008 28.1681L92.3855 28.4787L93.0394 30.8331L95.9547 30.5225L95.3008 28.1681Z" fill="#FB4242"/>
<path d="M99.3348 27.7379L96.4196 28.0485L97.0735 30.4029L99.9887 30.0923L99.3348 27.7379Z" fill="#FB4242"/>
<path d="M102.186 24.2885L91.9619 25.3758L92.6177 27.7409L102.841 26.6536L102.186 24.2885Z" fill="#FB4242"/>
<path d="M101.333 21.4658L91.1096 22.553L91.2559 23.0807L101.48 21.9934L101.333 21.4658Z" fill="#FB4242"/>
<path d="M101.669 22.4364L91.4449 23.5237L91.5912 24.0513L101.815 22.9641L101.669 22.4364Z" fill="#FB4242"/>
<path d="M91.4652 16.9661C91.4652 16.9661 85.6777 20.565 88.5832 21.4793C91.4887 22.3936 93.3801 18.4374 93.3801 18.4374L93.8394 17.5377L91.4652 16.9661Z" fill="#AE6E79"/>
<path opacity="0.1" d="M90.9588 16.6482L90.2435 17.6268C90.2435 17.6268 93.7716 17.9335 94.5091 18.5942L94.0719 16.8676L93.553 16.1307L90.9588 16.6482Z" fill="black"/>
<path d="M91.0972 16.5625L90.3818 17.5411C90.3818 17.5411 93.91 17.8478 94.6474 18.5085L94.2102 16.7819L93.6914 16.045L91.0972 16.5625Z" fill="#4C4981"/>
<path d="M112.454 34.5544L112.378 34.587L112.483 34.6162L112.597 34.6102L112.61 34.5612L112.454 34.5544Z" fill="#464A5F"/>
<path opacity="0.1" d="M112.454 34.5544L112.378 34.587L112.483 34.6162L112.597 34.6102L112.61 34.5612L112.454 34.5544Z" fill="black"/>
<path d="M112.454 34.5544L112.377 34.5852L112.316 34.5389L112.353 34.5012L112.388 34.4944L112.454 34.5544Z" fill="#9C9CA1"/>
<path opacity="0.1" d="M112.454 34.5544L112.377 34.5852L112.316 34.5389L112.353 34.5012L112.388 34.4944L112.454 34.5544Z" fill="black"/>
<path d="M126.072 28.6325L120.408 23.5658C120.358 23.5206 120.294 23.4819 120.22 23.4521C120.145 23.4222 120.062 23.4017 119.975 23.3917C119.888 23.3818 119.798 23.3826 119.712 23.3941C119.625 23.4056 119.543 23.4275 119.47 23.4587L106.844 28.8262C106.696 28.889 106.594 28.9855 106.561 29.0946C106.529 29.2036 106.567 29.3163 106.668 29.408L112.317 34.5389L126.072 28.6325Z" fill="#9C9CA1"/>
<path opacity="0.1" d="M126.072 28.6325L120.408 23.5658C120.358 23.5206 120.294 23.4819 120.22 23.4521C120.145 23.4222 120.062 23.4017 119.975 23.3917C119.888 23.3818 119.798 23.3826 119.712 23.3941C119.625 23.4056 119.543 23.4275 119.47 23.4587L106.844 28.8262C106.696 28.889 106.594 28.9855 106.561 29.0946C106.529 29.2036 106.567 29.3163 106.668 29.408L112.317 34.5389L126.072 28.6325Z" fill="black"/>
<path d="M126.211 28.6445L120.546 23.5778C120.496 23.5325 120.432 23.4939 120.357 23.464C120.283 23.4341 120.2 23.4136 120.113 23.4037C120.025 23.3937 119.936 23.3945 119.849 23.406C119.762 23.4175 119.68 23.4395 119.607 23.4707L106.982 28.8416C106.834 28.9044 106.733 29.0008 106.7 29.1099C106.666 29.2189 106.704 29.3316 106.805 29.4234L112.454 34.5569L126.211 28.6445Z" fill="#9C9CA1"/>
<path d="M130.945 29.6462L126.241 28.7104L112.483 34.6169L117.262 35.5852C117.369 35.6067 117.482 35.6125 117.594 35.6021C117.705 35.5916 117.811 35.5653 117.902 35.5252L130.984 29.8047C131.009 29.7962 131.028 29.7832 131.041 29.7676C131.053 29.7519 131.057 29.7343 131.053 29.7171C131.049 29.6999 131.036 29.6839 131.017 29.6712C130.998 29.6585 130.973 29.6498 130.945 29.6462Z" fill="#464A5F"/>
<path opacity="0.1" d="M130.945 29.6462L126.241 28.7104L112.483 34.6169L117.262 35.5852C117.369 35.6067 117.482 35.6125 117.594 35.6021C117.705 35.5916 117.811 35.5653 117.902 35.5252L130.984 29.8047C131.009 29.7962 131.028 29.7832 131.041 29.7676C131.053 29.7519 131.057 29.7343 131.053 29.7171C131.049 29.6999 131.036 29.6839 131.017 29.6712C130.998 29.6585 130.973 29.6498 130.945 29.6462Z" fill="black"/>
<path d="M130.916 29.587L126.212 28.6505L112.454 34.5569L117.233 35.5235C117.34 35.5454 117.453 35.5515 117.565 35.5412C117.676 35.5309 117.782 35.5046 117.874 35.4644L130.955 29.7439C130.979 29.7351 130.998 29.7222 131.009 29.7068C131.021 29.6914 131.025 29.6742 131.021 29.6574C131.017 29.6406 131.005 29.6249 130.986 29.6124C130.967 29.5998 130.943 29.591 130.916 29.587Z" fill="#464A5F"/>
<g opacity="0.1">
<path opacity="0.1" d="M123.989 28.4183L123.642 28.1098C123.621 28.0919 123.59 28.0797 123.555 28.0757C123.519 28.0717 123.483 28.0763 123.453 28.0884L122.937 28.3018C122.908 28.3144 122.888 28.3335 122.881 28.355C122.875 28.3765 122.881 28.3989 122.9 28.4174L123.22 28.7216C123.24 28.7398 123.27 28.7526 123.305 28.7572C123.34 28.7619 123.376 28.758 123.406 28.7465L123.95 28.5348C123.98 28.5223 124 28.5031 124.008 28.4814C124.015 28.4597 124.008 28.437 123.989 28.4183Z" fill="black"/>
<path opacity="0.1" d="M123.062 28.8159L122.713 28.5083C122.692 28.4904 122.661 28.4782 122.626 28.4742C122.591 28.4702 122.555 28.4747 122.525 28.4868L122.01 28.7019C121.981 28.7144 121.961 28.7334 121.954 28.755C121.946 28.7765 121.953 28.7989 121.972 28.8176L122.291 29.1218C122.311 29.1401 122.342 29.1531 122.376 29.1579C122.411 29.1626 122.448 29.1589 122.478 29.1475L123.023 28.9358C123.039 28.9296 123.052 28.9215 123.062 28.9121C123.072 28.9027 123.08 28.8921 123.083 28.8809C123.087 28.8697 123.087 28.8582 123.083 28.8471C123.079 28.8359 123.072 28.8253 123.062 28.8159Z" fill="black"/>
<path opacity="0.1" d="M122.088 29.2332L121.739 28.9256C121.718 28.9077 121.687 28.8954 121.652 28.8915C121.617 28.8875 121.581 28.892 121.551 28.9041L121.035 29.1192C121.006 29.1319 120.985 29.1511 120.978 29.1728C120.971 29.1945 120.978 29.2171 120.998 29.2357L121.317 29.5399C121.337 29.5582 121.368 29.5709 121.403 29.5755C121.437 29.5802 121.474 29.5763 121.504 29.5648L122.048 29.3531C122.063 29.347 122.077 29.339 122.087 29.3296C122.097 29.3202 122.105 29.3096 122.109 29.2984C122.112 29.2872 122.112 29.2757 122.109 29.2645C122.105 29.2533 122.098 29.2426 122.088 29.2332Z" fill="black"/>
<path opacity="0.1" d="M121.101 29.6565L120.753 29.348C120.732 29.3303 120.701 29.3183 120.666 29.3143C120.631 29.3103 120.596 29.3147 120.566 29.3266L120.05 29.5425C120.021 29.5552 120.001 29.5742 119.994 29.5957C119.987 29.6173 119.994 29.6396 120.012 29.6582L120.332 29.9624C120.352 29.9805 120.382 29.9933 120.417 29.9981C120.451 30.0028 120.487 29.9993 120.517 29.9881L121.063 29.7756C121.078 29.7694 121.091 29.7613 121.101 29.752C121.111 29.7426 121.118 29.7321 121.122 29.721C121.126 29.7099 121.126 29.6985 121.122 29.6875C121.119 29.6764 121.111 29.6659 121.101 29.6565Z" fill="black"/>
<path opacity="0.1" d="M120.116 30.0789L119.768 29.7713C119.747 29.7534 119.716 29.7412 119.681 29.7372C119.646 29.7332 119.609 29.7377 119.58 29.7499L119.065 29.9649C119.036 29.9775 119.015 29.9965 119.008 30.018C119.001 30.0395 119.007 30.0619 119.026 30.0806L119.346 30.3848C119.365 30.4032 119.396 30.4161 119.431 30.4209C119.466 30.4257 119.502 30.422 119.532 30.4105L120.078 30.198C120.093 30.1918 120.106 30.1838 120.116 30.1744C120.126 30.165 120.133 30.1545 120.137 30.1435C120.141 30.1324 120.141 30.121 120.137 30.1099C120.134 30.0988 120.126 30.0883 120.116 30.0789Z" fill="black"/>
<path opacity="0.1" d="M119.174 30.5399L118.741 30.1578C118.736 30.1535 118.731 30.1499 118.724 30.147C118.717 30.1442 118.709 30.1423 118.701 30.1413C118.693 30.1403 118.684 30.1404 118.676 30.1415C118.668 30.1425 118.661 30.1446 118.654 30.1475L118.02 30.4122C118.013 30.415 118.007 30.4186 118.003 30.4229C117.998 30.4271 117.995 30.4319 117.993 30.4369C117.991 30.4419 117.991 30.4471 117.993 30.4521C117.994 30.4572 117.998 30.462 118.002 30.4662L118.399 30.8441C118.408 30.8528 118.423 30.8589 118.439 30.8612C118.455 30.8634 118.472 30.8616 118.486 30.8561L119.156 30.599C119.164 30.5962 119.171 30.5923 119.176 30.5877C119.182 30.583 119.186 30.5777 119.187 30.5721C119.189 30.5664 119.189 30.5606 119.186 30.5551C119.184 30.5495 119.18 30.5444 119.174 30.5399Z" fill="black"/>
<path opacity="0.1" d="M118.189 30.9623L117.753 30.5802C117.748 30.5759 117.742 30.5722 117.735 30.5694C117.728 30.5666 117.721 30.5646 117.712 30.5637C117.704 30.5627 117.696 30.5628 117.687 30.5638C117.679 30.5649 117.671 30.567 117.665 30.5699L117.031 30.8347C117.017 30.8406 117.008 30.8495 117.005 30.8596C117.002 30.8697 117.005 30.8801 117.014 30.8887L117.411 31.2665C117.416 31.271 117.421 31.2749 117.428 31.278C117.435 31.281 117.443 31.2832 117.451 31.2843C117.459 31.2854 117.467 31.2855 117.476 31.2845C117.484 31.2835 117.492 31.2815 117.499 31.2785L118.167 31.0215C118.175 31.019 118.183 31.0153 118.189 31.0108C118.195 31.0063 118.199 31.0009 118.201 30.9952C118.203 30.9895 118.203 30.9836 118.201 30.9779C118.199 30.9722 118.195 30.9669 118.189 30.9623Z" fill="black"/>
<path opacity="0.1" d="M117.316 31.3368L116.883 30.9581C116.873 30.9498 116.859 30.9442 116.842 30.9425C116.826 30.9407 116.809 30.9429 116.796 30.9487L116.162 31.2126C116.148 31.2185 116.138 31.2275 116.135 31.2377C116.132 31.248 116.135 31.2586 116.144 31.2674L116.541 31.6453C116.55 31.6538 116.565 31.6598 116.581 31.662C116.597 31.6642 116.614 31.6626 116.628 31.6573L117.298 31.4002C117.307 31.3975 117.315 31.3935 117.321 31.3885C117.327 31.3835 117.332 31.3776 117.333 31.3714C117.335 31.3652 117.334 31.3588 117.331 31.3528C117.328 31.3468 117.323 31.3413 117.316 31.3368Z" fill="black"/>
<path opacity="0.1" d="M116.339 31.7549L115.906 31.3728C115.896 31.3645 115.882 31.3589 115.866 31.3572C115.849 31.3554 115.833 31.3576 115.819 31.3634L115.185 31.6273C115.178 31.6301 115.172 31.6338 115.167 31.6381C115.163 31.6424 115.159 31.6473 115.158 31.6524C115.156 31.6575 115.156 31.6627 115.158 31.6678C115.159 31.6729 115.163 31.6778 115.167 31.6821L115.564 32.06C115.574 32.0685 115.588 32.0745 115.604 32.0767C115.62 32.079 115.637 32.0773 115.651 32.072L116.321 31.8149C116.329 31.812 116.336 31.8081 116.342 31.8033C116.347 31.7986 116.351 31.7932 116.352 31.7875C116.354 31.7818 116.354 31.7759 116.351 31.7703C116.349 31.7647 116.345 31.7595 116.339 31.7549Z" fill="black"/>
<path opacity="0.1" d="M115.393 32.1577L114.96 31.7755C114.955 31.7713 114.949 31.7676 114.942 31.7648C114.935 31.762 114.928 31.76 114.92 31.7591C114.911 31.7581 114.903 31.7582 114.895 31.7592C114.887 31.7603 114.879 31.7623 114.872 31.7652L114.239 32.03C114.232 32.0328 114.226 32.0364 114.221 32.0406C114.216 32.0449 114.213 32.0496 114.211 32.0547C114.21 32.0597 114.21 32.0649 114.211 32.0699C114.213 32.0749 114.216 32.0797 114.221 32.084L114.618 32.4619C114.627 32.4706 114.641 32.4767 114.658 32.4789C114.674 32.4812 114.691 32.4794 114.705 32.4739L115.375 32.2168C115.383 32.214 115.39 32.2101 115.395 32.2054C115.4 32.2008 115.404 32.1955 115.406 32.1898C115.408 32.1842 115.407 32.1784 115.405 32.1729C115.403 32.1673 115.399 32.1621 115.393 32.1577Z" fill="black"/>
<path opacity="0.1" d="M114.446 32.5673L114.017 32.1842C114.008 32.176 113.993 32.1704 113.977 32.1686C113.961 32.1669 113.944 32.1691 113.93 32.1748L113.297 32.4387C113.29 32.4416 113.284 32.4453 113.279 32.4496C113.274 32.4539 113.271 32.4587 113.269 32.4638C113.268 32.4689 113.268 32.4742 113.269 32.4793C113.271 32.4844 113.274 32.4893 113.279 32.4936L113.676 32.8715C113.685 32.88 113.699 32.886 113.715 32.8882C113.732 32.8904 113.749 32.8887 113.763 32.8835L114.433 32.6264C114.44 32.6233 114.447 32.6193 114.452 32.6145C114.457 32.6098 114.46 32.6044 114.461 32.5988C114.463 32.5932 114.462 32.5875 114.459 32.582C114.457 32.5766 114.452 32.5715 114.446 32.5673Z" fill="black"/>
<path opacity="0.1" d="M113.5 32.9726L113.067 32.5904C113.062 32.5861 113.056 32.5825 113.05 32.5797C113.043 32.5769 113.035 32.5749 113.027 32.574C113.019 32.573 113.01 32.573 113.002 32.5741C112.994 32.5752 112.987 32.5772 112.98 32.5801L112.346 32.8432C112.339 32.8459 112.333 32.8496 112.328 32.8538C112.324 32.858 112.32 32.8628 112.319 32.8678C112.317 32.8728 112.317 32.878 112.319 32.8831C112.32 32.8881 112.323 32.8929 112.328 32.8972L112.725 33.275C112.734 33.2837 112.749 33.2898 112.765 33.2921C112.781 33.2943 112.798 33.2925 112.812 33.287L113.482 33.03C113.49 33.0271 113.496 33.0233 113.501 33.0188C113.506 33.0143 113.51 33.0091 113.512 33.0037C113.513 32.9983 113.513 32.9928 113.511 32.9874C113.509 32.982 113.505 32.977 113.5 32.9726Z" fill="black"/>
<path opacity="0.1" d="M123.366 27.8605L123.018 27.552C122.997 27.5341 122.965 27.5219 122.93 27.5179C122.895 27.5139 122.859 27.5184 122.829 27.5306L122.319 27.7465C122.29 27.759 122.269 27.778 122.262 27.7995C122.255 27.8211 122.261 27.8435 122.28 27.8622L122.6 28.1664C122.62 28.1846 122.65 28.1973 122.685 28.202C122.72 28.2066 122.756 28.2027 122.787 28.1912L123.332 27.9796C123.362 27.9666 123.382 27.9468 123.389 27.9244C123.395 27.9021 123.387 27.8791 123.366 27.8605Z" fill="black"/>
<path opacity="0.1" d="M122.003 26.6411L121.655 26.3309C121.634 26.3133 121.603 26.3012 121.568 26.2972C121.534 26.2933 121.498 26.2976 121.468 26.3095L120.952 26.5246C120.923 26.5371 120.902 26.5561 120.895 26.5776C120.888 26.5992 120.894 26.6216 120.913 26.6403L121.233 26.9445C121.253 26.9628 121.283 26.9757 121.318 26.9805C121.353 26.9853 121.389 26.9816 121.42 26.9702L121.965 26.7585C121.995 26.746 122.015 26.7267 122.023 26.7047C122.03 26.6828 122.023 26.66 122.003 26.6411Z" fill="black"/>
<path opacity="0.1" d="M122.438 28.258L122.089 27.9504C122.068 27.9328 122.037 27.9207 122.003 27.9167C121.968 27.9127 121.932 27.9171 121.902 27.929L121.386 28.1441C121.357 28.1567 121.337 28.1758 121.33 28.1973C121.323 28.2188 121.33 28.2412 121.349 28.2597L121.667 28.5639C121.687 28.5823 121.718 28.5952 121.752 28.6C121.787 28.6048 121.824 28.6011 121.854 28.5896L122.399 28.378C122.415 28.3718 122.428 28.3637 122.438 28.3543C122.448 28.3448 122.456 28.3342 122.459 28.3231C122.463 28.3119 122.463 28.3004 122.459 28.2892C122.455 28.278 122.448 28.2674 122.438 28.258Z" fill="black"/>
<path opacity="0.1" d="M121.464 28.6753L121.115 28.3677C121.094 28.3498 121.063 28.3376 121.028 28.3336C120.993 28.3296 120.957 28.3342 120.927 28.3463L120.412 28.5588C120.383 28.5713 120.362 28.5905 120.355 28.6122C120.348 28.634 120.354 28.6566 120.374 28.6753L120.693 28.9795C120.713 28.9978 120.744 29.0105 120.779 29.0151C120.813 29.0198 120.85 29.0159 120.88 29.0044L121.425 28.7927C121.455 28.7802 121.476 28.7609 121.483 28.7389C121.49 28.717 121.483 28.6942 121.464 28.6753Z" fill="black"/>
<path opacity="0.1" d="M120.477 29.0987L120.13 28.7902C120.109 28.7723 120.078 28.7601 120.043 28.7561C120.008 28.7521 119.972 28.7566 119.942 28.7688L119.426 28.9873C119.397 28.9999 119.377 29.019 119.37 29.0405C119.363 29.062 119.37 29.0844 119.389 29.1029L119.708 29.4071C119.728 29.4253 119.759 29.4381 119.794 29.4427C119.828 29.4474 119.865 29.4435 119.895 29.432L120.439 29.2203C120.454 29.2141 120.468 29.206 120.479 29.1964C120.489 29.1868 120.497 29.176 120.5 29.1646C120.504 29.1533 120.504 29.1415 120.5 29.1302C120.496 29.1189 120.488 29.1081 120.477 29.0987Z" fill="black"/>
<path opacity="0.1" d="M121.097 27.0584L120.749 26.7508C120.728 26.7331 120.697 26.7211 120.662 26.7171C120.627 26.7131 120.591 26.7175 120.562 26.7294L120.046 26.9445C120.016 26.957 119.996 26.976 119.989 26.9975C119.982 27.019 119.988 27.0415 120.007 27.0601L120.327 27.3643C120.346 27.3827 120.377 27.3956 120.412 27.4004C120.446 27.4052 120.483 27.4015 120.513 27.39L121.058 27.1784C121.074 27.1722 121.087 27.1641 121.097 27.1547C121.108 27.1452 121.115 27.1346 121.118 27.1234C121.122 27.1123 121.122 27.1008 121.118 27.0896C121.115 27.0784 121.108 27.0678 121.097 27.0584Z" fill="black"/>
<path opacity="0.1" d="M120.123 27.4766L119.775 27.1681C119.754 27.1502 119.722 27.138 119.687 27.134C119.652 27.13 119.616 27.1345 119.586 27.1467L119.072 27.3592C119.042 27.3717 119.022 27.3907 119.015 27.4122C119.008 27.4337 119.014 27.4562 119.033 27.4748L119.353 27.779C119.373 27.7973 119.403 27.81 119.438 27.8146C119.473 27.8193 119.509 27.8154 119.539 27.8039L120.084 27.5922C120.114 27.5797 120.134 27.5607 120.141 27.5392C120.148 27.5177 120.142 27.4952 120.123 27.4766Z" fill="black"/>
<path opacity="0.1" d="M119.137 27.899L118.788 27.5914C118.767 27.5736 118.737 27.5614 118.702 27.5572C118.667 27.5531 118.631 27.5574 118.601 27.5691L118.085 27.7876C118.056 27.8003 118.036 27.8193 118.029 27.8409C118.022 27.8624 118.029 27.8847 118.048 27.9033L118.367 28.2075C118.387 28.2259 118.418 28.2388 118.453 28.2436C118.487 28.2484 118.524 28.2447 118.554 28.2332L119.098 28.0207C119.114 28.0145 119.127 28.0063 119.138 27.9968C119.149 27.9872 119.156 27.9764 119.159 27.965C119.163 27.9536 119.163 27.9419 119.159 27.9306C119.155 27.9192 119.148 27.9085 119.137 27.899Z" fill="black"/>
<path opacity="0.1" d="M119.492 29.5211L119.144 29.2135C119.123 29.1957 119.092 29.1835 119.057 29.1793C119.023 29.1752 118.987 29.1794 118.957 29.1912L118.445 29.4071C118.416 29.4198 118.396 29.4388 118.389 29.4604C118.382 29.4819 118.389 29.5042 118.407 29.5228L118.722 29.827C118.741 29.8451 118.772 29.8579 118.806 29.8627C118.84 29.8675 118.877 29.8639 118.907 29.8527L119.452 29.6402C119.467 29.634 119.481 29.6261 119.491 29.6167C119.501 29.6074 119.508 29.5969 119.512 29.5858C119.516 29.5748 119.516 29.5633 119.513 29.5522C119.509 29.5411 119.502 29.5305 119.492 29.5211Z" fill="black"/>
<path opacity="0.1" d="M118.507 29.9435L118.158 29.6359C118.138 29.618 118.106 29.6058 118.071 29.6018C118.036 29.5978 118 29.6024 117.97 29.6145L117.456 29.8296C117.426 29.8421 117.406 29.8611 117.399 29.8826C117.392 29.9041 117.398 29.9266 117.417 29.9452L117.736 30.2494C117.756 30.2678 117.787 30.2807 117.822 30.2855C117.856 30.2903 117.893 30.2866 117.923 30.2751L118.468 30.0635C118.484 30.0573 118.497 30.0492 118.507 30.0398C118.518 30.0303 118.525 30.0197 118.528 30.0086C118.532 29.9974 118.532 29.9859 118.528 29.9747C118.525 29.9635 118.517 29.9529 118.507 29.9435Z" fill="black"/>
<path opacity="0.1" d="M117.565 30.4045L117.132 30.0224C117.127 30.0181 117.121 30.0145 117.115 30.0117C117.108 30.0088 117.1 30.0069 117.092 30.0059C117.084 30.005 117.075 30.005 117.067 30.0061C117.059 30.0071 117.052 30.0092 117.045 30.0121L116.411 30.2769C116.404 30.2796 116.398 30.2833 116.393 30.2875C116.389 30.2917 116.385 30.2965 116.384 30.3015C116.382 30.3065 116.382 30.3117 116.384 30.3168C116.385 30.3218 116.388 30.3266 116.393 30.3308L116.79 30.7087C116.795 30.7131 116.8 30.7169 116.807 30.7199C116.814 30.7229 116.822 30.725 116.83 30.7261C116.838 30.7273 116.846 30.7274 116.854 30.7264C116.863 30.7255 116.87 30.7236 116.877 30.7207L117.547 30.4637C117.555 30.4608 117.562 30.457 117.567 30.4523C117.573 30.4476 117.576 30.4423 117.578 30.4367C117.58 30.4311 117.58 30.4253 117.577 30.4197C117.575 30.4142 117.571 30.409 117.565 30.4045Z" fill="black"/>
<path opacity="0.1" d="M116.692 30.779L116.259 30.3959C116.249 30.3877 116.235 30.3821 116.218 30.3803C116.202 30.3786 116.185 30.3808 116.172 30.3865L115.539 30.6504C115.526 30.6564 115.516 30.6654 115.513 30.6756C115.509 30.6858 115.512 30.6965 115.521 30.7053L115.919 31.0832C115.928 31.0917 115.942 31.0977 115.958 31.0999C115.974 31.1021 115.991 31.1004 116.006 31.0952L116.675 30.8381C116.684 30.8354 116.691 30.8316 116.696 30.8269C116.702 30.8222 116.706 30.8168 116.707 30.8111C116.709 30.8054 116.708 30.7995 116.706 30.7939C116.703 30.7883 116.698 30.7832 116.692 30.779Z" fill="black"/>
<path opacity="0.1" d="M115.715 31.1971L115.282 30.815C115.272 30.8067 115.258 30.8011 115.242 30.7993C115.225 30.7976 115.209 30.7998 115.195 30.8055L114.561 31.0694C114.554 31.0722 114.548 31.0758 114.544 31.0801C114.539 31.0843 114.536 31.0891 114.534 31.0941C114.532 31.0991 114.532 31.1043 114.534 31.1093C114.535 31.1144 114.539 31.1192 114.543 31.1234L114.94 31.5022C114.95 31.5107 114.964 31.5167 114.98 31.5189C114.996 31.5211 115.013 31.5194 115.027 31.5142L115.697 31.2571C115.705 31.2542 115.712 31.2502 115.718 31.2455C115.723 31.2408 115.727 31.2354 115.728 31.2297C115.73 31.224 115.73 31.2181 115.727 31.2125C115.725 31.2069 115.721 31.2016 115.715 31.1971Z" fill="black"/>
<path opacity="0.1" d="M114.769 31.6033L114.336 31.2211C114.331 31.2169 114.325 31.2132 114.318 31.2104C114.311 31.2076 114.304 31.2056 114.296 31.2047C114.288 31.2037 114.279 31.2038 114.271 31.2048C114.263 31.2059 114.255 31.2079 114.249 31.2109L113.615 31.4722C113.608 31.475 113.602 31.4786 113.597 31.4828C113.593 31.4871 113.589 31.4918 113.588 31.4969C113.586 31.5019 113.586 31.5071 113.587 31.5121C113.589 31.5171 113.592 31.5219 113.597 31.5262L113.994 31.9041C114.003 31.9128 114.017 31.9189 114.034 31.9211C114.05 31.9234 114.067 31.9216 114.081 31.9161L114.751 31.659C114.758 31.6561 114.764 31.6524 114.769 31.648C114.774 31.6437 114.777 31.6387 114.779 31.6335C114.781 31.6283 114.781 31.623 114.779 31.6178C114.777 31.6126 114.774 31.6077 114.769 31.6033Z" fill="black"/>
<path opacity="0.1" d="M120.815 28.0952L120.466 27.7876C120.445 27.7699 120.415 27.7579 120.38 27.7539C120.345 27.7499 120.309 27.7543 120.28 27.7662L119.763 27.9821C119.735 27.9948 119.714 28.0138 119.708 28.0353C119.701 28.0569 119.707 28.0792 119.726 28.0978L120.046 28.402C120.066 28.42 120.096 28.4326 120.13 28.4372C120.165 28.4418 120.201 28.4381 120.231 28.4268L120.776 28.2152C120.792 28.209 120.805 28.2009 120.815 28.1915C120.825 28.182 120.833 28.1714 120.836 28.1602C120.84 28.1491 120.84 28.1376 120.836 28.1264C120.833 28.1152 120.825 28.1046 120.815 28.0952Z" fill="black"/>
<path opacity="0.1" d="M119.829 28.5185L119.48 28.2101C119.459 28.1922 119.428 28.18 119.393 28.176C119.358 28.172 119.321 28.1765 119.292 28.1887L118.777 28.4046C118.748 28.4171 118.728 28.4361 118.72 28.4576C118.713 28.4792 118.72 28.5016 118.738 28.5203L119.058 28.8245C119.078 28.8428 119.108 28.8557 119.143 28.8605C119.178 28.8653 119.214 28.8616 119.245 28.8502L119.79 28.6377C119.805 28.6314 119.818 28.6234 119.828 28.614C119.838 28.6047 119.846 28.5942 119.849 28.5831C119.853 28.572 119.853 28.5606 119.849 28.5495C119.846 28.5385 119.839 28.5279 119.829 28.5185Z" fill="black"/>
<path opacity="0.1" d="M118.845 28.941L118.496 28.6334C118.475 28.6155 118.444 28.6032 118.409 28.5993C118.374 28.5953 118.338 28.5998 118.308 28.6119L117.792 28.827C117.763 28.8397 117.743 28.8587 117.736 28.8802C117.729 28.9018 117.736 28.9241 117.755 28.9427L118.074 29.2469C118.094 29.2652 118.124 29.2782 118.159 29.283C118.194 29.2877 118.23 29.284 118.261 29.2726L118.805 29.0601C118.82 29.0539 118.833 29.0459 118.844 29.0366C118.854 29.0273 118.861 29.0168 118.865 29.0057C118.869 28.9946 118.869 28.9832 118.865 28.9721C118.862 28.961 118.855 28.9504 118.845 28.941Z" fill="black"/>
<path opacity="0.1" d="M117.858 29.3634L117.51 29.0558C117.489 29.0382 117.458 29.0261 117.423 29.0221C117.388 29.0181 117.353 29.0225 117.323 29.0344L116.807 29.2495C116.778 29.2621 116.758 29.2812 116.751 29.3027C116.744 29.3242 116.751 29.3466 116.769 29.3652L117.089 29.6728C117.109 29.6909 117.139 29.7037 117.173 29.7085C117.208 29.7132 117.244 29.7097 117.274 29.6985L117.82 29.4868C117.836 29.4806 117.85 29.4724 117.861 29.4627C117.871 29.453 117.879 29.442 117.882 29.4304C117.886 29.4188 117.886 29.4069 117.882 29.3953C117.878 29.3838 117.87 29.373 117.858 29.3634Z" fill="black"/>
<path opacity="0.1" d="M116.923 29.8244L116.49 29.4422C116.485 29.438 116.479 29.4343 116.472 29.4315C116.466 29.4287 116.458 29.4267 116.45 29.4258C116.442 29.4248 116.433 29.4249 116.425 29.4259C116.417 29.427 116.41 29.429 116.403 29.432L115.769 29.6967C115.755 29.7025 115.746 29.7114 115.742 29.7215C115.739 29.7315 115.742 29.742 115.751 29.7507L116.148 30.1295C116.153 30.1338 116.158 30.1375 116.165 30.1404C116.172 30.1433 116.18 30.1453 116.188 30.1464C116.196 30.1474 116.204 30.1474 116.213 30.1464C116.221 30.1455 116.228 30.1435 116.235 30.1406L116.905 29.8835C116.913 29.8807 116.92 29.8768 116.925 29.8722C116.931 29.8675 116.934 29.8622 116.936 29.8566C116.938 29.8509 116.938 29.8451 116.935 29.8396C116.933 29.834 116.929 29.8289 116.923 29.8244Z" fill="black"/>
<path opacity="0.1" d="M116.044 30.1989L115.611 29.8159C115.601 29.8075 115.587 29.8019 115.57 29.8001C115.554 29.7984 115.537 29.8006 115.523 29.8064L114.89 30.0703C114.877 30.0763 114.867 30.0853 114.864 30.0955C114.86 30.1057 114.863 30.1164 114.873 30.1252L115.27 30.5031C115.279 30.5118 115.293 30.5179 115.309 30.5201C115.326 30.5224 115.343 30.5205 115.357 30.5151L116.026 30.258C116.034 30.2552 116.041 30.2513 116.047 30.2466C116.052 30.242 116.056 30.2366 116.058 30.231C116.059 30.2254 116.059 30.2196 116.057 30.2141C116.054 30.2085 116.05 30.2033 116.044 30.1989Z" fill="black"/>
<path opacity="0.1" d="M115.068 30.6153L114.635 30.2323C114.625 30.224 114.61 30.2183 114.593 30.2166C114.577 30.2148 114.56 30.2171 114.546 30.2229L113.912 30.4868C113.899 30.4928 113.889 30.5018 113.886 30.512C113.883 30.5222 113.886 30.5328 113.894 30.5416L114.293 30.9195C114.302 30.9282 114.316 30.9343 114.332 30.9366C114.349 30.9388 114.366 30.937 114.38 30.9315L115.048 30.6744C115.057 30.6718 115.064 30.668 115.07 30.6634C115.075 30.6588 115.079 30.6535 115.081 30.6478C115.083 30.6421 115.083 30.6362 115.08 30.6306C115.078 30.625 115.074 30.6198 115.068 30.6153Z" fill="black"/>
<path opacity="0.1" d="M114.121 31.0232L113.688 30.641C113.683 30.6367 113.677 30.6331 113.67 30.6303C113.663 30.6274 113.656 30.6255 113.647 30.6245C113.639 30.6236 113.631 30.6236 113.622 30.6247C113.614 30.6258 113.607 30.6278 113.6 30.6307L112.966 30.8955C112.952 30.9014 112.943 30.9103 112.94 30.9204C112.937 30.9305 112.94 30.9409 112.949 30.9495L113.346 31.3274C113.351 31.3319 113.356 31.3358 113.363 31.3388C113.37 31.3419 113.378 31.344 113.386 31.3452C113.394 31.3463 113.402 31.3464 113.411 31.3454C113.419 31.3444 113.427 31.3423 113.434 31.3394L114.102 31.0823C114.11 31.0797 114.117 31.0759 114.123 31.0713C114.129 31.0667 114.133 31.0613 114.135 31.0556C114.136 31.05 114.136 31.0441 114.134 31.0385C114.132 31.0329 114.127 31.0276 114.121 31.0232Z" fill="black"/>
<path opacity="0.1" d="M113.822 32.0086L113.389 31.6264C113.38 31.6182 113.365 31.6126 113.349 31.6108C113.333 31.6091 113.316 31.6113 113.302 31.617L112.669 31.8809C112.662 31.8837 112.656 31.8873 112.651 31.8916C112.646 31.8958 112.643 31.9006 112.641 31.9056C112.64 31.9106 112.639 31.9158 112.641 31.9208C112.643 31.9259 112.646 31.9307 112.651 31.9349L113.048 32.3137C113.057 32.3222 113.071 32.3282 113.087 32.3304C113.104 32.3326 113.121 32.3309 113.135 32.3257L113.804 32.0686C113.813 32.0657 113.819 32.0617 113.825 32.057C113.83 32.0523 113.834 32.0469 113.836 32.0412C113.837 32.0355 113.837 32.0296 113.835 32.024C113.832 32.0184 113.828 32.0131 113.822 32.0086Z" fill="black"/>
<path opacity="0.1" d="M112.876 32.4148L112.443 32.0326C112.438 32.0283 112.432 32.0247 112.426 32.0219C112.419 32.0191 112.411 32.0171 112.403 32.0162C112.395 32.0152 112.386 32.0152 112.378 32.0163C112.37 32.0174 112.363 32.0194 112.356 32.0223L111.722 32.2871C111.715 32.2899 111.709 32.2935 111.704 32.2977C111.7 32.3019 111.696 32.3067 111.695 32.3117C111.693 32.3168 111.693 32.322 111.695 32.327C111.696 32.332 111.699 32.3368 111.704 32.3411L112.101 32.719C112.11 32.7276 112.125 32.7338 112.141 32.736C112.157 32.7383 112.174 32.7364 112.188 32.731L112.858 32.4739C112.866 32.4711 112.873 32.4672 112.878 32.4625C112.884 32.4579 112.887 32.4525 112.889 32.4469C112.891 32.4413 112.891 32.4355 112.888 32.4299C112.886 32.4244 112.882 32.4192 112.876 32.4148Z" fill="black"/>
<path opacity="0.1" d="M114.362 29.9864L113.947 29.6265C113.934 29.6153 113.914 29.6077 113.892 29.6053C113.87 29.6029 113.848 29.6059 113.829 29.6136L113.232 29.863C113.222 29.8668 113.214 29.8717 113.208 29.8774C113.202 29.8831 113.198 29.8896 113.195 29.8964C113.193 29.9031 113.193 29.9101 113.195 29.9169C113.198 29.9236 113.202 29.9301 113.208 29.9358L113.582 30.2914C113.587 30.2973 113.595 30.3024 113.604 30.3064C113.613 30.3104 113.623 30.3133 113.634 30.3148C113.645 30.3163 113.656 30.3165 113.667 30.3152C113.678 30.314 113.689 30.3115 113.698 30.3077L114.33 30.0618C114.341 30.0583 114.35 30.0536 114.357 30.0478C114.364 30.0421 114.37 30.0355 114.373 30.0284C114.376 30.0213 114.376 30.0139 114.374 30.0067C114.373 29.9995 114.368 29.9925 114.362 29.9864Z" fill="black"/>
<path opacity="0.1" d="M113.416 30.3925L113.008 30.0326C113.001 30.0269 112.993 30.0221 112.984 30.0183C112.975 30.0145 112.964 30.0119 112.953 30.0106C112.942 30.0094 112.931 30.0094 112.92 30.0109C112.909 30.0123 112.899 30.015 112.89 30.0189L112.292 30.2726C112.283 30.2763 112.275 30.2811 112.269 30.2868C112.263 30.2924 112.258 30.2988 112.256 30.3055C112.254 30.3122 112.254 30.3191 112.256 30.3258C112.258 30.3325 112.262 30.3389 112.269 30.3445L112.642 30.701C112.654 30.7125 112.673 30.7206 112.695 30.7237C112.717 30.7267 112.739 30.7244 112.758 30.7173L113.391 30.4714C113.401 30.4676 113.411 30.4624 113.418 30.4562C113.425 30.45 113.43 30.4429 113.432 30.4355C113.435 30.428 113.434 30.4203 113.432 30.4129C113.429 30.4055 113.423 30.3985 113.416 30.3925Z" fill="black"/>
<path opacity="0.1" d="M112.469 30.7987L112.061 30.4379C112.048 30.4268 112.028 30.4192 112.006 30.4168C111.985 30.4144 111.962 30.4174 111.943 30.4251L111.346 30.6744C111.336 30.6782 111.328 30.6832 111.322 30.6889C111.316 30.6946 111.312 30.7011 111.309 30.7078C111.307 30.7146 111.307 30.7216 111.31 30.7283C111.312 30.7351 111.316 30.7416 111.322 30.7473L111.696 31.1029C111.702 31.1088 111.709 31.1139 111.718 31.1179C111.727 31.1219 111.738 31.1247 111.748 31.1263C111.759 31.1278 111.77 31.1279 111.781 31.1267C111.792 31.1255 111.803 31.1229 111.812 31.1192L112.444 30.8732C112.454 30.8695 112.463 30.8646 112.469 30.8587C112.476 30.8529 112.48 30.8463 112.483 30.8393C112.485 30.8323 112.485 30.8251 112.483 30.8181C112.48 30.8111 112.476 30.8045 112.469 30.7987Z" fill="black"/>
<path opacity="0.1" d="M111.535 31.2151L111.102 30.8321C111.093 30.8238 111.078 30.8182 111.062 30.8165C111.046 30.8147 111.029 30.8169 111.015 30.8227L110.381 31.0866C110.368 31.0925 110.358 31.1015 110.355 31.1118C110.351 31.122 110.354 31.1326 110.363 31.1414L110.761 31.5193C110.77 31.5278 110.784 31.5338 110.8 31.536C110.816 31.5383 110.833 31.5366 110.848 31.5313L111.517 31.2743C111.526 31.2717 111.533 31.2679 111.539 31.2632C111.545 31.2586 111.548 31.2532 111.55 31.2475C111.552 31.2417 111.551 31.2358 111.549 31.2302C111.546 31.2246 111.542 31.2194 111.535 31.2151Z" fill="black"/>
<path opacity="0.1" d="M122.734 27.2606L122.359 26.9307C122.338 26.913 122.307 26.9009 122.272 26.8971C122.237 26.8933 122.201 26.898 122.171 26.9102L120.707 27.5451C120.679 27.5579 120.659 27.5768 120.653 27.5981C120.646 27.6195 120.653 27.6416 120.671 27.66L121.024 27.9976C121.034 28.0069 121.047 28.0149 121.062 28.0212C121.077 28.0274 121.094 28.0317 121.112 28.0338C121.13 28.036 121.149 28.0359 121.166 28.0337C121.184 28.0314 121.201 28.027 121.216 28.0207L122.702 27.3772C122.731 27.364 122.75 27.3445 122.756 27.3229C122.762 27.3012 122.754 27.2789 122.734 27.2606Z" fill="black"/>
<path opacity="0.1" d="M113.172 31.4165L112.713 31.0146C112.708 31.0103 112.702 31.0066 112.695 31.0038C112.688 31.001 112.68 30.9991 112.672 30.9982C112.663 30.9973 112.655 30.9975 112.647 30.9987C112.639 30.9999 112.631 31.0021 112.624 31.0052L111.044 31.6907C111.031 31.6964 111.021 31.7052 111.018 31.7151C111.015 31.7251 111.018 31.7354 111.027 31.7438L111.459 32.1577C111.464 32.1622 111.47 32.166 111.477 32.169C111.484 32.172 111.492 32.1741 111.5 32.1751C111.509 32.1761 111.517 32.1761 111.526 32.175C111.534 32.174 111.542 32.1718 111.549 32.1688L113.155 31.4722C113.169 31.4661 113.179 31.4569 113.182 31.4464C113.185 31.436 113.182 31.4253 113.172 31.4165Z" fill="black"/>
<path opacity="0.1" d="M118.199 28.3429L117.775 27.959C117.766 27.9506 117.751 27.9448 117.735 27.9429C117.719 27.941 117.702 27.9431 117.688 27.9487L114.179 29.4157C114.166 29.4214 114.156 29.4303 114.153 29.4404C114.149 29.4505 114.152 29.461 114.161 29.4697L114.594 29.881C114.599 29.8854 114.605 29.8893 114.612 29.8923C114.619 29.8953 114.627 29.8973 114.636 29.8984C114.644 29.8994 114.653 29.8994 114.661 29.8983C114.669 29.8972 114.677 29.8951 114.684 29.8921L118.182 28.3977C118.189 28.3948 118.195 28.3911 118.199 28.3867C118.204 28.3824 118.207 28.3775 118.209 28.3724C118.21 28.3673 118.21 28.3621 118.208 28.357C118.207 28.352 118.203 28.3472 118.199 28.3429Z" fill="black"/>
</g>
<path d="M124.082 28.4286L123.733 28.1201C123.712 28.1022 123.681 28.09 123.646 28.086C123.611 28.082 123.575 28.0865 123.545 28.0987L123.03 28.3146C123.001 28.3271 122.981 28.3461 122.973 28.3676C122.966 28.3892 122.973 28.4116 122.991 28.4303L123.311 28.7345C123.331 28.7528 123.361 28.7657 123.396 28.7705C123.431 28.7753 123.467 28.7716 123.498 28.7602L124.043 28.5477C124.058 28.5414 124.071 28.5334 124.081 28.524C124.091 28.5147 124.099 28.5042 124.102 28.4931C124.106 28.482 124.106 28.4706 124.102 28.4595C124.099 28.4485 124.092 28.4379 124.082 28.4286Z" fill="#464A5F"/>
<path d="M123.149 28.8262L122.8 28.5185C122.779 28.5009 122.748 28.4888 122.714 28.4848C122.679 28.4808 122.643 28.4852 122.614 28.4971L122.097 28.7122C122.068 28.7247 122.048 28.7437 122.041 28.7652C122.034 28.7868 122.04 28.8092 122.059 28.8279L122.378 29.1321C122.398 29.1504 122.429 29.1633 122.463 29.1681C122.498 29.1729 122.535 29.1692 122.565 29.1578L123.11 28.9461C123.126 28.9399 123.139 28.9318 123.149 28.9224C123.159 28.913 123.167 28.9023 123.17 28.8912C123.174 28.88 123.174 28.8685 123.17 28.8573C123.167 28.8462 123.159 28.8356 123.149 28.8262Z" fill="#464A5F"/>
<path d="M122.18 29.2443L121.832 28.9367C121.811 28.9188 121.78 28.9066 121.745 28.9026C121.71 28.8986 121.673 28.9031 121.644 28.9153L121.129 29.1312C121.1 29.1437 121.079 29.1627 121.072 29.1843C121.065 29.2058 121.071 29.2282 121.09 29.2469L121.41 29.5511C121.43 29.5693 121.46 29.582 121.495 29.5867C121.53 29.5913 121.566 29.5874 121.597 29.5759L122.142 29.3643C122.157 29.358 122.17 29.35 122.181 29.3405C122.191 29.3311 122.198 29.3205 122.202 29.3093C122.205 29.2982 122.205 29.2867 122.202 29.2755C122.198 29.2643 122.191 29.2537 122.18 29.2443Z" fill="#464A5F"/>
<path d="M121.193 29.6667L120.844 29.3583C120.823 29.3406 120.792 29.3285 120.757 29.3246C120.723 29.3206 120.687 29.325 120.657 29.3368L120.141 29.5528C120.126 29.5591 120.113 29.5673 120.103 29.5768C120.093 29.5863 120.086 29.5969 120.083 29.6081C120.079 29.6192 120.08 29.6307 120.083 29.6418C120.087 29.6529 120.095 29.6634 120.105 29.6727L120.425 29.9769C120.445 29.9953 120.475 30.0082 120.51 30.013C120.545 30.0178 120.581 30.0141 120.612 30.0026L121.155 29.7901C121.171 29.7838 121.185 29.7756 121.196 29.7658C121.207 29.7561 121.214 29.745 121.217 29.7335C121.221 29.7219 121.221 29.71 121.216 29.6985C121.212 29.687 121.204 29.6762 121.193 29.6667Z" fill="#464A5F"/>
<path d="M120.208 30.0892L119.859 29.7816C119.838 29.7639 119.807 29.7518 119.772 29.7479C119.738 29.7439 119.702 29.7483 119.672 29.7601L119.156 29.9752C119.127 29.9879 119.107 30.0069 119.1 30.0284C119.093 30.05 119.1 30.0723 119.119 30.0909L119.437 30.3951C119.457 30.4134 119.487 30.4264 119.522 30.4312C119.557 30.4359 119.593 30.4322 119.624 30.4208L120.169 30.2083C120.184 30.2021 120.197 30.194 120.207 30.1847C120.217 30.1753 120.225 30.1648 120.228 30.1537C120.232 30.1427 120.232 30.1313 120.228 30.1202C120.225 30.1091 120.218 30.0986 120.208 30.0892Z" fill="#464A5F"/>
<path d="M119.265 30.5502L118.832 30.168C118.828 30.1638 118.822 30.1601 118.815 30.1573C118.808 30.1545 118.8 30.1525 118.792 30.1516C118.784 30.1506 118.776 30.1507 118.768 30.1517C118.76 30.1528 118.752 30.1548 118.745 30.1578L118.111 30.4225C118.104 30.4253 118.098 30.4289 118.094 30.4331C118.089 30.4374 118.086 30.4421 118.084 30.4472C118.082 30.4522 118.082 30.4574 118.084 30.4624C118.086 30.4675 118.089 30.4723 118.093 30.4765L118.49 30.8544C118.5 30.8631 118.514 30.8692 118.53 30.8714C118.546 30.8737 118.563 30.8719 118.578 30.8664L119.247 30.6093C119.255 30.6065 119.262 30.6026 119.268 30.598C119.273 30.5933 119.277 30.588 119.278 30.5823C119.28 30.5767 119.28 30.5709 119.278 30.5654C119.275 30.5598 119.271 30.5546 119.265 30.5502Z" fill="#464A5F"/>
<path d="M118.28 30.9726L117.847 30.5904C117.843 30.5862 117.836 30.5825 117.829 30.5797C117.822 30.5768 117.815 30.5749 117.806 30.5739C117.798 30.573 117.79 30.573 117.782 30.5741C117.773 30.5752 117.766 30.5772 117.759 30.5801L117.126 30.8449C117.119 30.8477 117.113 30.8513 117.109 30.8555C117.104 30.8598 117.101 30.8645 117.099 30.8696C117.097 30.8746 117.097 30.8798 117.099 30.8848C117.101 30.8899 117.104 30.8946 117.108 30.8989L117.505 31.2776C117.51 31.282 117.516 31.2857 117.523 31.2886C117.529 31.2915 117.537 31.2935 117.545 31.2946C117.553 31.2956 117.562 31.2956 117.57 31.2946C117.578 31.2936 117.586 31.2917 117.593 31.2888L118.262 31.0317C118.27 31.0288 118.277 31.0249 118.282 31.0202C118.287 31.0155 118.291 31.0102 118.293 31.0047C118.294 30.9991 118.294 30.9933 118.292 30.9878C118.29 30.9823 118.286 30.9771 118.28 30.9726Z" fill="#464A5F"/>
<path d="M117.407 31.3471L116.974 30.964C116.964 30.9558 116.95 30.9502 116.934 30.9484C116.917 30.9466 116.901 30.9489 116.887 30.9546L116.253 31.2151C116.239 31.221 116.23 31.23 116.226 31.2403C116.223 31.2505 116.226 31.2611 116.235 31.2699L116.632 31.6478C116.642 31.6563 116.656 31.6623 116.672 31.6645C116.688 31.6668 116.705 31.6651 116.72 31.6598L117.389 31.4028C117.396 31.3999 117.403 31.3962 117.407 31.3918C117.412 31.3874 117.416 31.3825 117.417 31.3773C117.419 31.3721 117.419 31.3667 117.417 31.3615C117.415 31.3563 117.412 31.3514 117.407 31.3471Z" fill="#464A5F"/>
<path d="M116.43 31.7661L115.997 31.3865C115.988 31.3782 115.973 31.3726 115.957 31.3708C115.941 31.3691 115.924 31.3713 115.91 31.377L115.277 31.6409C115.269 31.6438 115.263 31.6475 115.259 31.6518C115.254 31.6561 115.251 31.661 115.249 31.666C115.247 31.6711 115.247 31.6764 115.249 31.6815C115.251 31.6866 115.254 31.6915 115.259 31.6958L115.656 32.0737C115.665 32.0822 115.679 32.0882 115.695 32.0904C115.712 32.0926 115.728 32.0909 115.743 32.0857L116.412 31.8286C116.421 31.8259 116.429 31.8219 116.435 31.8169C116.441 31.812 116.445 31.8062 116.447 31.8001C116.449 31.7941 116.448 31.7878 116.445 31.7819C116.442 31.776 116.437 31.7705 116.43 31.7661Z" fill="#464A5F"/>
<path d="M115.484 32.1714L115.051 31.7892C115.046 31.785 115.04 31.7813 115.034 31.7785C115.027 31.7757 115.019 31.7737 115.011 31.7728C115.003 31.7718 114.994 31.7719 114.986 31.7729C114.978 31.774 114.971 31.776 114.964 31.7789L114.33 32.0437C114.323 32.0465 114.317 32.0501 114.312 32.0543C114.308 32.0586 114.304 32.0633 114.303 32.0684C114.301 32.0734 114.301 32.0786 114.303 32.0836C114.304 32.0886 114.308 32.0934 114.312 32.0977L114.709 32.4756C114.714 32.48 114.719 32.4838 114.726 32.4868C114.733 32.4897 114.741 32.4919 114.749 32.493C114.757 32.4941 114.765 32.4942 114.773 32.4933C114.782 32.4923 114.789 32.4904 114.796 32.4876L115.466 32.2305C115.474 32.2277 115.481 32.2238 115.486 32.2191C115.492 32.2145 115.495 32.2092 115.497 32.2035C115.499 32.1979 115.499 32.1921 115.496 32.1866C115.494 32.181 115.49 32.1758 115.484 32.1714Z" fill="#464A5F"/>
<path d="M114.538 32.5775L114.105 32.1945C114.095 32.1862 114.08 32.1806 114.064 32.1789C114.048 32.1771 114.031 32.1793 114.017 32.1851L113.384 32.449C113.37 32.4549 113.36 32.4639 113.357 32.4742C113.354 32.4844 113.357 32.495 113.366 32.5038L113.763 32.8817C113.772 32.8902 113.786 32.8962 113.803 32.8984C113.819 32.9007 113.836 32.899 113.85 32.8937L114.52 32.6366C114.528 32.6338 114.535 32.6299 114.54 32.6253C114.545 32.6206 114.549 32.6153 114.551 32.6097C114.553 32.604 114.552 32.5983 114.55 32.5927C114.548 32.5871 114.544 32.582 114.538 32.5775Z" fill="#464A5F"/>
<path d="M113.591 32.9828L113.158 32.6007C113.154 32.5964 113.148 32.5928 113.141 32.59C113.134 32.5871 113.126 32.5852 113.118 32.5842C113.11 32.5833 113.102 32.5833 113.094 32.5844C113.086 32.5854 113.078 32.5875 113.071 32.5904L112.437 32.8552C112.43 32.8579 112.424 32.8616 112.42 32.8658C112.415 32.87 112.412 32.8748 112.41 32.8798C112.408 32.8848 112.408 32.89 112.41 32.8951C112.412 32.9001 112.415 32.9049 112.419 32.9092L112.817 33.287C112.821 33.2914 112.827 33.2952 112.833 33.2982C112.84 33.3012 112.848 33.3033 112.856 33.3044C112.864 33.3055 112.873 33.3056 112.881 33.3047C112.889 33.3038 112.897 33.3019 112.904 33.299L113.573 33.042C113.581 33.0391 113.588 33.0353 113.594 33.0306C113.599 33.0259 113.603 33.0206 113.604 33.015C113.606 33.0094 113.606 33.0036 113.604 32.998C113.601 32.9925 113.597 32.9873 113.591 32.9828Z" fill="#464A5F"/>
<path d="M123.458 27.8733L123.109 27.5648C123.088 27.5472 123.057 27.5351 123.022 27.5311C122.988 27.5271 122.952 27.5315 122.922 27.5434L122.406 27.7593C122.377 27.772 122.357 27.791 122.35 27.8126C122.343 27.8341 122.35 27.8564 122.369 27.875L122.687 28.1792C122.707 28.1976 122.737 28.2105 122.772 28.2153C122.807 28.2201 122.843 28.2164 122.874 28.2049L123.419 27.9924C123.434 27.9862 123.447 27.9782 123.457 27.9688C123.467 27.9594 123.475 27.9489 123.478 27.9378C123.482 27.9268 123.482 27.9154 123.478 27.9043C123.475 27.8932 123.468 27.8827 123.458 27.8733Z" fill="#464A5F"/>
<path d="M122.095 26.6514L121.746 26.3438C121.725 26.3261 121.694 26.3141 121.66 26.3101C121.625 26.3061 121.589 26.3105 121.559 26.3224L121.043 26.5374C121.014 26.5501 120.994 26.5691 120.987 26.5907C120.98 26.6122 120.987 26.6345 121.006 26.6531L121.326 26.9573C121.345 26.9754 121.375 26.9882 121.41 26.993C121.444 26.9978 121.481 26.9942 121.511 26.983L122.056 26.7714C122.071 26.7651 122.085 26.7571 122.095 26.7476C122.105 26.7382 122.112 26.7276 122.116 26.7164C122.12 26.7053 122.12 26.6938 122.116 26.6826C122.112 26.6714 122.105 26.6608 122.095 26.6514Z" fill="#464A5F"/>
<path d="M122.529 28.2683L122.181 27.959C122.16 27.9413 122.129 27.9293 122.094 27.9253C122.059 27.9213 122.023 27.9257 121.994 27.9376L121.478 28.1526C121.449 28.1653 121.429 28.1843 121.422 28.2059C121.415 28.2274 121.421 28.2497 121.44 28.2683L121.76 28.5725C121.78 28.5906 121.81 28.6034 121.844 28.6082C121.879 28.613 121.915 28.6094 121.945 28.5982L122.49 28.3866C122.521 28.374 122.542 28.3545 122.549 28.3324C122.556 28.3102 122.549 28.2872 122.529 28.2683Z" fill="#464A5F"/>
<path d="M121.555 28.6856L121.212 28.378C121.191 28.3603 121.16 28.3483 121.126 28.3443C121.091 28.3403 121.055 28.3447 121.025 28.3566L120.509 28.5717C120.48 28.5843 120.46 28.6035 120.453 28.6253C120.446 28.647 120.453 28.6695 120.472 28.6882L120.79 28.9924C120.81 29.0106 120.841 29.0233 120.875 29.028C120.91 29.0326 120.947 29.0288 120.977 29.0172L121.522 28.8056C121.537 28.7991 121.55 28.7908 121.559 28.7813C121.569 28.7717 121.576 28.761 121.579 28.7499C121.582 28.7387 121.582 28.7273 121.577 28.7163C121.573 28.7052 121.566 28.6948 121.555 28.6856Z" fill="#464A5F"/>
<path d="M120.57 29.1089L120.221 28.8004C120.201 28.7825 120.169 28.7703 120.134 28.7663C120.099 28.7623 120.063 28.7669 120.033 28.779L119.519 28.9949C119.489 29.0075 119.469 29.0265 119.462 29.048C119.455 29.0695 119.461 29.0919 119.48 29.1106L119.799 29.4148C119.819 29.4332 119.85 29.4461 119.884 29.4509C119.919 29.4557 119.956 29.452 119.986 29.4405L120.531 29.228C120.547 29.2218 120.56 29.2138 120.57 29.2044C120.58 29.195 120.587 29.1845 120.591 29.1734C120.594 29.1624 120.594 29.151 120.591 29.1399C120.587 29.1288 120.58 29.1183 120.57 29.1089Z" fill="#464A5F"/>
<path d="M121.189 27.0687L120.84 26.7594C120.819 26.7417 120.788 26.7297 120.753 26.7257C120.719 26.7217 120.683 26.7261 120.653 26.738L120.137 26.953C120.108 26.9657 120.088 26.9847 120.081 27.0063C120.074 27.0278 120.081 27.0501 120.1 27.0687L120.419 27.3729C120.439 27.391 120.469 27.4038 120.504 27.4086C120.538 27.4134 120.574 27.4098 120.605 27.3986L121.15 27.187C121.18 27.1744 121.201 27.1549 121.208 27.1328C121.216 27.1106 121.209 27.0876 121.189 27.0687Z" fill="#464A5F"/>
<path d="M120.214 27.4869L119.866 27.1784C119.845 27.1607 119.814 27.1487 119.779 27.1447C119.745 27.1407 119.709 27.1451 119.679 27.157L119.163 27.3729C119.134 27.3854 119.113 27.4044 119.106 27.4259C119.099 27.4475 119.105 27.4699 119.124 27.4886L119.444 27.7928C119.464 27.8111 119.494 27.824 119.529 27.8288C119.564 27.8336 119.6 27.8299 119.631 27.8185L120.176 27.606C120.191 27.5997 120.204 27.5917 120.214 27.5823C120.224 27.573 120.231 27.5625 120.235 27.5514C120.239 27.5403 120.239 27.5289 120.235 27.5179C120.232 27.5068 120.225 27.4962 120.214 27.4869Z" fill="#464A5F"/>
<path d="M119.229 27.9093L118.881 27.6017C118.86 27.5838 118.829 27.5716 118.794 27.5676C118.759 27.5636 118.722 27.5681 118.693 27.5803L118.178 27.7953C118.149 27.8078 118.128 27.8268 118.121 27.8484C118.114 27.8699 118.12 27.8923 118.139 27.911L118.459 28.2161C118.479 28.2344 118.509 28.2473 118.544 28.2521C118.579 28.2569 118.615 28.2532 118.646 28.2418L119.189 28.0293C119.205 28.0231 119.218 28.0151 119.229 28.0057C119.239 27.9963 119.246 27.9857 119.25 27.9745C119.254 27.9633 119.254 27.9518 119.25 27.9406C119.247 27.9294 119.24 27.9188 119.229 27.9093Z" fill="#464A5F"/>
<path d="M119.584 29.5314L119.235 29.2237C119.214 29.2061 119.183 29.194 119.148 29.19C119.114 29.186 119.078 29.1904 119.048 29.2023L118.532 29.4157C118.503 29.4283 118.483 29.4474 118.476 29.4689C118.469 29.4904 118.476 29.5128 118.495 29.5314L118.814 29.8355C118.834 29.8537 118.864 29.8664 118.899 29.8712C118.933 29.876 118.969 29.8724 119 29.8613L119.545 29.6487C119.575 29.6362 119.596 29.6169 119.603 29.5949C119.61 29.573 119.603 29.5502 119.584 29.5314Z" fill="#464A5F"/>
<path d="M118.598 29.9538L118.25 29.6462C118.229 29.6285 118.198 29.6165 118.163 29.6125C118.129 29.6085 118.093 29.6129 118.063 29.6248L117.547 29.8441C117.518 29.8566 117.497 29.8756 117.49 29.8972C117.483 29.9187 117.489 29.9411 117.508 29.9598L117.828 30.264C117.848 30.2824 117.878 30.2953 117.913 30.3001C117.948 30.3049 117.984 30.3011 118.015 30.2897L118.56 30.0781C118.576 30.0718 118.59 30.0636 118.601 30.0538C118.612 30.044 118.62 30.0329 118.623 30.0212C118.627 30.0095 118.627 29.9975 118.622 29.9859C118.618 29.9743 118.61 29.9634 118.598 29.9538Z" fill="#464A5F"/>
<path d="M117.656 30.4148L117.223 30.0326C117.219 30.0284 117.213 30.0247 117.206 30.0219C117.199 30.0191 117.191 30.0171 117.183 30.0162C117.175 30.0152 117.167 30.0153 117.159 30.0163C117.15 30.0174 117.143 30.0194 117.136 30.0223L116.508 30.2871C116.501 30.2899 116.495 30.2935 116.49 30.2977C116.485 30.302 116.482 30.3067 116.481 30.3118C116.479 30.3168 116.479 30.322 116.48 30.327C116.482 30.3321 116.485 30.3368 116.49 30.3411L116.887 30.719C116.891 30.7234 116.897 30.7272 116.904 30.7302C116.911 30.7332 116.918 30.7353 116.926 30.7364C116.935 30.7375 116.943 30.7376 116.951 30.7367C116.959 30.7358 116.967 30.7338 116.974 30.731L117.644 30.4739C117.651 30.4707 117.657 30.4666 117.662 30.4618C117.667 30.457 117.67 30.4516 117.671 30.4461C117.672 30.4405 117.672 30.4348 117.669 30.4295C117.666 30.4241 117.662 30.4191 117.656 30.4148Z" fill="#464A5F"/>
<path d="M116.785 30.7867L116.351 30.4036C116.342 30.3953 116.327 30.3897 116.31 30.3879C116.294 30.3862 116.277 30.3884 116.263 30.3942L115.629 30.6581C115.616 30.6642 115.606 30.6732 115.603 30.6834C115.6 30.6935 115.603 30.7041 115.611 30.713L116.01 31.0909C116.019 31.0995 116.033 31.1057 116.049 31.1079C116.066 31.1102 116.083 31.1083 116.097 31.1029L116.765 30.8458C116.773 30.8432 116.781 30.8394 116.786 30.8348C116.792 30.8302 116.796 30.8248 116.798 30.8191C116.8 30.8134 116.799 30.8076 116.797 30.802C116.795 30.7963 116.791 30.7911 116.785 30.7867Z" fill="#464A5F"/>
<path d="M115.806 31.2083L115.373 30.8252C115.364 30.817 115.349 30.8114 115.333 30.8096C115.317 30.8078 115.3 30.8101 115.286 30.8158L114.652 31.0797C114.639 31.0856 114.629 31.0947 114.626 31.1049C114.622 31.1151 114.625 31.1258 114.634 31.1346L115.032 31.5124C115.041 31.521 115.055 31.5269 115.071 31.5292C115.087 31.5314 115.104 31.5297 115.119 31.5244L115.788 31.2674C115.797 31.2648 115.804 31.261 115.81 31.2564C115.815 31.2517 115.819 31.2463 115.821 31.2406C115.823 31.2349 115.822 31.229 115.82 31.2234C115.817 31.2177 115.813 31.2126 115.806 31.2083Z" fill="#464A5F"/>
<path d="M114.861 31.6136L114.433 31.2314C114.428 31.2271 114.422 31.2235 114.415 31.2207C114.408 31.2178 114.401 31.2159 114.392 31.2149C114.384 31.214 114.376 31.214 114.368 31.2151C114.36 31.2162 114.352 31.2182 114.345 31.2211L113.712 31.4859C113.698 31.4916 113.688 31.5005 113.685 31.5106C113.682 31.5207 113.685 31.5312 113.694 31.5399L114.091 31.9178C114.1 31.9264 114.114 31.9326 114.13 31.9348C114.147 31.937 114.164 31.9352 114.178 31.9297L114.848 31.6727C114.856 31.6697 114.862 31.6657 114.867 31.661C114.873 31.6562 114.876 31.6508 114.877 31.6452C114.878 31.6395 114.878 31.6337 114.875 31.6283C114.872 31.6228 114.868 31.6178 114.861 31.6136Z" fill="#464A5F"/>
<path d="M120.906 28.1064L120.559 27.7979C120.538 27.78 120.507 27.7678 120.472 27.7638C120.437 27.7598 120.401 27.7644 120.371 27.7765L119.855 27.9924C119.826 28.0051 119.806 28.0241 119.799 28.0456C119.792 28.0672 119.799 28.0895 119.817 28.1081L120.137 28.4123C120.157 28.4305 120.188 28.4433 120.222 28.4479C120.257 28.4525 120.293 28.4487 120.324 28.4371L120.868 28.2255C120.883 28.2193 120.896 28.2112 120.906 28.2019C120.916 28.1925 120.923 28.182 120.927 28.1709C120.93 28.1599 120.931 28.1485 120.927 28.1374C120.923 28.1263 120.916 28.1158 120.906 28.1064Z" fill="#464A5F"/>
<path d="M119.921 28.5288L119.573 28.2212C119.552 28.2034 119.521 28.1912 119.486 28.187C119.452 28.1829 119.416 28.1871 119.386 28.1989L118.87 28.4149C118.841 28.4275 118.821 28.4466 118.814 28.4681C118.807 28.4896 118.813 28.512 118.832 28.5305L119.152 28.8347C119.172 28.8529 119.202 28.8656 119.236 28.8704C119.271 28.8752 119.307 28.8716 119.337 28.8604L119.882 28.6479C119.898 28.6417 119.911 28.6337 119.921 28.6243C119.931 28.6149 119.938 28.6044 119.942 28.5934C119.945 28.5823 119.945 28.5709 119.942 28.5598C119.938 28.5487 119.931 28.5382 119.921 28.5288Z" fill="#464A5F"/>
<path d="M118.936 28.9512L118.583 28.6445C118.562 28.6266 118.531 28.6144 118.496 28.6104C118.461 28.6064 118.425 28.6109 118.395 28.6231L117.891 28.8373C117.862 28.8498 117.842 28.8688 117.835 28.8903C117.827 28.9119 117.834 28.9343 117.853 28.953L118.172 29.2572C118.192 29.2755 118.223 29.2884 118.257 29.2932C118.292 29.298 118.329 29.2943 118.359 29.2829L118.904 29.0712C118.919 29.0647 118.932 29.0563 118.941 29.0467C118.951 29.0372 118.957 29.0265 118.96 29.0153C118.963 29.0042 118.963 28.9928 118.959 28.9818C118.954 28.9708 118.947 28.9604 118.936 28.9512Z" fill="#464A5F"/>
<path d="M117.95 29.3737L117.601 29.0661C117.58 29.0484 117.549 29.0364 117.514 29.0324C117.48 29.0284 117.444 29.0328 117.414 29.0447L116.898 29.2597C116.869 29.2724 116.849 29.2914 116.842 29.313C116.835 29.3345 116.842 29.3568 116.861 29.3754L117.18 29.6796C117.2 29.6977 117.23 29.7105 117.265 29.7153C117.299 29.7201 117.335 29.7165 117.366 29.7053L117.911 29.4937C117.926 29.4874 117.94 29.4794 117.95 29.4699C117.96 29.4605 117.967 29.4499 117.971 29.4387C117.975 29.4275 117.974 29.416 117.971 29.4049C117.967 29.3937 117.96 29.3831 117.95 29.3737Z" fill="#464A5F"/>
<path d="M117.009 29.8347L116.576 29.4525C116.571 29.4482 116.565 29.4446 116.558 29.4417C116.551 29.4389 116.543 29.437 116.535 29.436C116.527 29.4351 116.518 29.4351 116.51 29.4362C116.502 29.4373 116.494 29.4393 116.487 29.4422L115.853 29.707C115.84 29.7128 115.83 29.7216 115.827 29.7317C115.823 29.7418 115.826 29.7523 115.835 29.761L116.233 30.1397C116.237 30.1441 116.243 30.1478 116.25 30.1507C116.257 30.1537 116.265 30.1557 116.273 30.1567C116.281 30.1578 116.29 30.1578 116.298 30.1568C116.306 30.1558 116.314 30.1538 116.321 30.1509L116.989 29.8938C116.997 29.8911 117.005 29.8872 117.01 29.8826C117.016 29.878 117.019 29.8727 117.021 29.867C117.023 29.8614 117.023 29.8556 117.021 29.85C117.019 29.8444 117.014 29.8392 117.009 29.8347Z" fill="#464A5F"/>
<path d="M116.136 30.2091L115.703 29.827C115.698 29.8227 115.692 29.8191 115.685 29.8163C115.678 29.8134 115.671 29.8115 115.663 29.8105C115.654 29.8096 115.646 29.8096 115.638 29.8107C115.63 29.8117 115.622 29.8138 115.615 29.8167L114.986 30.0806C114.972 30.0865 114.962 30.0955 114.959 30.1058C114.956 30.116 114.959 30.1266 114.968 30.1354L115.365 30.5133C115.374 30.5218 115.389 30.5278 115.405 30.5301C115.421 30.5323 115.438 30.5306 115.452 30.5253L116.122 30.2683C116.13 30.2652 116.136 30.2612 116.141 30.2564C116.146 30.2516 116.149 30.2463 116.151 30.2407C116.152 30.2351 116.151 30.2293 116.149 30.2239C116.146 30.2184 116.142 30.2134 116.136 30.2091Z" fill="#464A5F"/>
<path d="M115.159 30.6282L114.726 30.2451C114.716 30.2368 114.701 30.2312 114.685 30.2294C114.668 30.2277 114.651 30.2299 114.637 30.2357L114.005 30.4996C113.991 30.5055 113.981 30.5146 113.978 30.5248C113.975 30.535 113.978 30.5457 113.987 30.5545L114.384 30.9324C114.393 30.941 114.407 30.9472 114.424 30.9494C114.44 30.9516 114.457 30.9498 114.471 30.9443L115.141 30.6873C115.149 30.6845 115.156 30.6806 115.161 30.6759C115.167 30.6713 115.17 30.6659 115.172 30.6603C115.174 30.6547 115.173 30.6489 115.171 30.6433C115.169 30.6378 115.165 30.6326 115.159 30.6282Z" fill="#464A5F"/>
<path d="M114.213 31.0335L113.779 30.6513C113.775 30.647 113.769 30.6433 113.762 30.6405C113.755 30.6377 113.747 30.6357 113.739 30.6348C113.73 30.6338 113.722 30.6339 113.714 30.6349C113.706 30.636 113.698 30.6381 113.691 30.641L113.059 30.9058C113.052 30.9086 113.046 30.9122 113.041 30.9164C113.036 30.9206 113.033 30.9254 113.031 30.9304C113.03 30.9355 113.03 30.9406 113.031 30.9457C113.033 30.9507 113.036 30.9555 113.041 30.9598L113.438 31.3385C113.442 31.3428 113.448 31.3465 113.455 31.3494C113.462 31.3524 113.469 31.3544 113.478 31.3554C113.486 31.3565 113.494 31.3565 113.502 31.3555C113.51 31.3545 113.518 31.3525 113.525 31.3496L114.195 31.0926C114.202 31.0896 114.209 31.0857 114.214 31.0811C114.22 31.0764 114.223 31.0711 114.225 31.0655C114.227 31.0599 114.226 31.0542 114.224 31.0487C114.222 31.0431 114.218 31.038 114.213 31.0335Z" fill="#464A5F"/>
<path d="M113.915 32.0197L113.482 31.6367C113.472 31.6284 113.457 31.6228 113.441 31.621C113.424 31.6192 113.407 31.6215 113.393 31.6273L112.76 31.8912C112.746 31.8971 112.736 31.9061 112.733 31.9164C112.73 31.9266 112.733 31.9372 112.742 31.946L113.139 32.3239C113.148 32.3324 113.162 32.3384 113.179 32.3406C113.195 32.3429 113.212 32.3412 113.226 32.3359L113.896 32.0789C113.904 32.0762 113.911 32.0724 113.917 32.0678C113.923 32.0632 113.926 32.0579 113.928 32.0522C113.93 32.0465 113.93 32.0406 113.928 32.035C113.925 32.0294 113.921 32.0242 113.915 32.0197Z" fill="#464A5F"/>
<path d="M112.969 32.425L112.536 32.0429C112.531 32.0386 112.525 32.0349 112.518 32.0321C112.511 32.0292 112.503 32.0273 112.495 32.0263C112.487 32.0254 112.478 32.0254 112.47 32.0265C112.462 32.0276 112.454 32.0296 112.447 32.0326L111.813 32.2973C111.8 32.3031 111.79 32.312 111.787 32.3221C111.783 32.3322 111.787 32.3427 111.795 32.3513L112.193 32.7292C112.197 32.7336 112.203 32.7375 112.21 32.7405C112.217 32.7435 112.225 32.7456 112.233 32.7467C112.241 32.7478 112.25 32.7479 112.258 32.747C112.266 32.746 112.274 32.7441 112.281 32.7412L112.949 32.4841C112.958 32.4815 112.965 32.4777 112.971 32.4731C112.976 32.4685 112.98 32.4632 112.982 32.4575C112.984 32.4518 112.984 32.4459 112.981 32.4403C112.979 32.4347 112.975 32.4295 112.969 32.425Z" fill="#464A5F"/>
<path d="M114.453 29.9975L114.045 29.6367C114.032 29.6256 114.012 29.618 113.99 29.6156C113.969 29.6132 113.946 29.6161 113.927 29.6239L113.326 29.8732C113.307 29.8811 113.294 29.8931 113.29 29.9067C113.285 29.9203 113.29 29.9344 113.302 29.9461L113.676 30.3025C113.688 30.3141 113.707 30.3222 113.729 30.3251C113.751 30.328 113.774 30.3254 113.793 30.318L114.424 30.072C114.434 30.0685 114.443 30.0637 114.45 30.058C114.457 30.0523 114.462 30.0457 114.465 30.0387C114.468 30.0317 114.468 30.0244 114.466 30.0173C114.464 30.0102 114.46 30.0035 114.453 29.9975Z" fill="#464A5F"/>
<path d="M113.507 30.4028L113.099 30.0429C113.093 30.0372 113.085 30.0323 113.075 30.0286C113.066 30.0248 113.056 30.0222 113.045 30.0209C113.034 30.0196 113.022 30.0197 113.012 30.0211C113.001 30.0226 112.99 30.0253 112.981 30.0292L112.383 30.2794C112.365 30.2871 112.352 30.2989 112.348 30.3124C112.343 30.3259 112.348 30.3399 112.36 30.3514L112.734 30.7079C112.746 30.7194 112.765 30.7276 112.787 30.7306C112.809 30.7336 112.832 30.7313 112.851 30.7241L113.483 30.4782C113.493 30.4742 113.501 30.4691 113.508 30.4632C113.514 30.4572 113.518 30.4506 113.521 30.4436C113.523 30.4365 113.523 30.4293 113.52 30.4223C113.518 30.4153 113.513 30.4087 113.507 30.4028Z" fill="#464A5F"/>
<path d="M112.561 30.8089L112.146 30.4482C112.133 30.4371 112.113 30.4295 112.092 30.4271C112.07 30.4247 112.048 30.4276 112.029 30.4353L111.43 30.6847C111.412 30.6925 111.399 30.7045 111.394 30.7181C111.39 30.7317 111.394 30.7459 111.407 30.7575L111.78 31.114C111.793 31.1256 111.812 31.1337 111.834 31.1366C111.856 31.1395 111.879 31.1369 111.898 31.1294L112.53 30.8835C112.54 30.88 112.549 30.8753 112.557 30.8696C112.564 30.8639 112.569 30.8573 112.572 30.8503C112.575 30.8433 112.575 30.836 112.573 30.8289C112.571 30.8218 112.567 30.815 112.561 30.8089Z" fill="#464A5F"/>
<path d="M111.628 31.2262L111.195 30.8432C111.185 30.8349 111.17 30.8293 111.154 30.8275C111.137 30.8258 111.12 30.828 111.106 30.8338L110.473 31.0977C110.459 31.1038 110.45 31.1128 110.447 31.1231C110.443 31.1333 110.447 31.1439 110.456 31.1526L110.853 31.5304C110.862 31.5391 110.876 31.5452 110.893 31.5475C110.909 31.5497 110.926 31.5479 110.94 31.5424L111.61 31.2854C111.618 31.2825 111.625 31.2787 111.63 31.274C111.636 31.2693 111.639 31.264 111.641 31.2584C111.643 31.2528 111.643 31.247 111.64 31.2414C111.638 31.2359 111.634 31.2307 111.628 31.2262Z" fill="#464A5F"/>
<path d="M122.827 27.2735L122.457 26.9427C122.436 26.925 122.405 26.9129 122.37 26.9091C122.335 26.9053 122.299 26.91 122.269 26.9222L120.797 27.5571C120.769 27.5699 120.749 27.5888 120.742 27.6101C120.736 27.6315 120.742 27.6535 120.761 27.6719L121.115 28.0096C121.125 28.0189 121.138 28.0269 121.154 28.0332C121.169 28.0394 121.186 28.0437 121.204 28.0458C121.221 28.048 121.24 28.0479 121.258 28.0457C121.275 28.0434 121.292 28.039 121.307 28.0327L122.792 27.3892C122.821 27.3763 122.84 27.3571 122.846 27.3356C122.853 27.3141 122.846 27.2919 122.827 27.2735Z" fill="#464A5F"/>
<path d="M113.263 31.4268L112.804 31.0249C112.799 31.0206 112.793 31.0169 112.786 31.0141C112.779 31.0113 112.771 31.0094 112.763 31.0085C112.755 31.0076 112.746 31.0078 112.738 31.009C112.73 31.0102 112.722 31.0124 112.716 31.0155L111.136 31.701C111.122 31.7069 111.113 31.7158 111.11 31.7259C111.106 31.736 111.11 31.7464 111.119 31.7549L111.552 32.168C111.557 32.1724 111.563 32.1763 111.57 32.1793C111.577 32.1823 111.585 32.1843 111.593 32.1854C111.602 32.1864 111.61 32.1864 111.619 32.1853C111.627 32.1842 111.635 32.1821 111.642 32.1791L113.248 31.4825C113.262 31.4763 113.271 31.467 113.274 31.4565C113.277 31.4461 113.273 31.4354 113.263 31.4268Z" fill="#464A5F"/>
<path d="M118.29 28.3531L117.875 27.9718C117.865 27.9632 117.851 27.9573 117.834 27.9552C117.818 27.9531 117.801 27.9551 117.786 27.9607L114.279 29.426C114.272 29.4287 114.266 29.4323 114.261 29.4366C114.257 29.4408 114.253 29.4456 114.252 29.4506C114.25 29.4556 114.25 29.4608 114.252 29.4659C114.253 29.4709 114.256 29.4757 114.261 29.4799L114.693 29.8912C114.697 29.8957 114.703 29.8995 114.71 29.9025C114.717 29.9055 114.725 29.9076 114.734 29.9087C114.742 29.9097 114.751 29.9097 114.759 29.9086C114.768 29.9075 114.776 29.9054 114.783 29.9024L118.28 28.408C118.293 28.4014 118.301 28.392 118.303 28.3818C118.305 28.3715 118.3 28.3613 118.29 28.3531Z" fill="#464A5F"/>
<path opacity="0.1" d="M118.307 27.0439L116.442 25.3652C116.39 25.3186 116.311 25.2865 116.221 25.2759C116.131 25.2653 116.038 25.2771 115.963 25.3087L110.826 27.4449C110.788 27.4607 110.755 27.481 110.73 27.5047C110.705 27.5283 110.688 27.5547 110.679 27.5825C110.67 27.6103 110.671 27.6388 110.68 27.6665C110.689 27.6942 110.707 27.7205 110.733 27.7439L112.634 29.4705C112.659 29.494 112.692 29.5141 112.73 29.5296C112.769 29.5452 112.811 29.5559 112.856 29.5612C112.901 29.5664 112.947 29.5661 112.992 29.5603C113.037 29.5544 113.079 29.5431 113.117 29.5271L118.218 27.3412C118.255 27.3253 118.287 27.305 118.312 27.2815C118.337 27.2579 118.354 27.2315 118.362 27.2039C118.37 27.1763 118.37 27.1479 118.36 27.1205C118.351 27.093 118.332 27.067 118.307 27.0439Z" fill="black"/>
<path d="M118.392 27.0541L116.527 25.3755C116.475 25.329 116.396 25.297 116.307 25.2865C116.217 25.2759 116.124 25.2875 116.049 25.3189L110.918 27.4568C110.88 27.4725 110.848 27.4928 110.822 27.5163C110.797 27.5399 110.779 27.5664 110.77 27.5942C110.762 27.622 110.762 27.6506 110.771 27.6784C110.78 27.7061 110.798 27.7325 110.824 27.7559L112.72 29.4808C112.745 29.5042 112.778 29.5243 112.816 29.5399C112.854 29.5554 112.897 29.5661 112.942 29.5714C112.987 29.5766 113.033 29.5763 113.078 29.5705C113.123 29.5646 113.165 29.5534 113.203 29.5373L118.307 27.3514C118.344 27.3354 118.375 27.315 118.4 27.2914C118.424 27.2678 118.441 27.2414 118.449 27.2138C118.457 27.1862 118.456 27.1578 118.446 27.1304C118.437 27.103 118.418 27.0771 118.392 27.0541Z" fill="#939498"/>
<path d="M129.958 29.767L126.001 28.9495L113.309 34.4095L117.237 35.2021C117.343 35.2235 117.455 35.2294 117.566 35.2193C117.676 35.2092 117.781 35.1834 117.872 35.1439L129.994 29.9238C130.017 29.9152 130.036 29.9024 130.048 29.8871C130.06 29.8718 130.064 29.8547 130.06 29.8379C130.056 29.8211 130.045 29.8054 130.026 29.7928C130.008 29.7802 129.984 29.7712 129.958 29.767Z" fill="#FB4242"/>
</g>
<defs>
<clipPath id="clip0">
<rect width="150" height="65" fill="white"/>
</clipPath>
</defs>
</svg>
